<svg width="125" height="111" viewBox="0 0 125 111" fill="none" xmlns="http://www.w3.org/2000/svg">
<path d="M115.351 25.5994H10.1475C8.13151 25.5994 6.50085 27.1564 6.50085 29.0744V106.122C6.50085 108.043 8.13459 109.597 10.1475 109.597H115.351C117.367 109.597 118.997 108.04 118.997 106.122V29.0744C118.997 27.1531 117.364 25.5994 115.351 25.5994Z" fill="#515151"/>
<rect x="76.9985" y="25.5994" width="2.99991" height="83.9974" fill="#515151"/>
<path d="M47.7964 24.5498L47.7964 110.601H10.4391C7.43713 110.601 5.00001 108.159 5.00001 105.151L5.00001 29.9991C5.00001 26.9915 7.43713 24.5498 10.4391 24.5498L47.7964 24.5498Z" fill="#FFCB05"/>
<path d="M86.9752 82.4536C83.335 76.5352 81.3829 65.3157 81.1453 54.2219C79.8715 50.006 77.6194 46.7723 74.4472 45.3413C70.9943 43.6781 66.4838 44.2473 61.288 47.1872C61.4316 46.1983 61.4919 45.2432 61.4727 44.3231C65.4346 42.0372 68.9991 41.1417 71.9963 41.5688L65.0836 39.1534C63.791 39.6864 62.4448 40.385 61.0512 41.2555C60.813 40.3721 60.475 39.5459 60.0306 38.7831C60.4968 38.46 60.9552 38.1593 61.4097 37.8698L17.6351 22.5745L0.992719 70.2045L29.5885 80.1961C29.8583 80.1102 30.1294 80.0206 30.4017 79.9272C30.3218 80.0837 30.2382 80.2388 30.1583 80.3952L31.3204 80.8013C31.5945 80.2937 31.8774 79.7851 32.1629 79.2689C32.7157 79.0473 33.2673 78.8169 33.8218 78.5665C33.3119 79.4357 32.8084 80.2989 32.3264 81.1486L33.5298 81.5691C34.3284 80.2225 35.1611 78.8626 36.0303 77.4946C36.8203 77.0877 37.6119 76.652 38.4014 76.1863C37.0691 78.109 35.8008 80.0414 34.6057 81.945L35.8953 82.3956C37.7973 79.5282 39.8668 76.6271 42.0656 73.8257C43.543 72.7875 45.0053 71.6603 46.4414 70.4275C50.3828 67.045 53.6392 63.3352 56.11 59.6107C63.1142 54.529 69.2092 53.2775 73.5971 55.5271C77.347 57.3276 79.8154 61.5796 80.8943 66.8586L80.8117 69.9721C79.7763 64.6287 77.3271 60.2618 73.566 58.3611C68.4155 55.5853 60.8713 57.6376 52.2589 65.0945C46.6868 70.002 41.4312 76.4238 37.0199 82.7886L38.3582 83.2562C42.4849 77.6215 47.2786 72.0523 52.3383 67.7325C60.8259 60.5965 68.2751 58.7079 73.3838 61.5069C77.2205 63.4801 79.7019 67.9839 80.7135 73.4195L80.615 76.6029C79.6288 71.1426 77.1574 66.5501 73.308 64.4928C68.2405 61.6119 60.8491 63.3112 52.4239 70.1841C47.8509 73.9659 43.5004 78.7724 39.6727 83.7197L40.9848 84.1781C44.4767 79.9389 48.3605 75.8785 52.433 72.6383C60.7089 66.1322 67.986 64.6276 72.9891 67.5363C76.8478 69.6513 79.3174 74.285 80.2889 79.7151L80.2014 82.3492C79.2405 76.9731 76.8062 72.3224 72.9913 70.1305C68.0211 67.1035 60.7777 68.4272 52.5273 74.7159C48.895 77.515 45.4172 80.9672 42.2369 84.6156L43.9913 85.2286C46.8667 82.1399 49.9618 79.2411 53.1805 76.8672C61.3427 70.8913 68.5143 69.7729 73.4506 72.8971C76.9132 74.9659 79.2445 79.0443 80.3729 83.8085L80.2861 86.2963C79.1679 81.611 76.8728 77.5494 73.4674 75.4252C68.5679 72.184 61.4238 73.1151 53.2946 78.8763C50.5395 80.8381 47.8723 83.1868 45.3634 85.7081L47.0429 86.2949C49.0939 84.4097 51.2374 82.6573 53.4403 81.1561C61.4498 75.7134 68.4987 74.9461 73.3566 78.2104C76.7365 80.3593 79.0233 84.3844 80.1652 88.99C80.2168 88.5052 80.2697 88.0167 80.3237 87.537C80.3429 86.844 80.3684 86.1449 80.4015 85.4484C80.4334 84.7431 80.4752 84.0454 80.5195 83.3528C80.3748 88.6065 80.6002 93.6921 81.1643 98.2173L82.3265 98.6233C81.1146 93.0506 80.5738 86.0868 80.7169 78.8633C80.7299 78.0676 80.7518 77.2708 80.7824 76.4728C80.8125 75.7124 80.8475 74.9621 80.8925 74.2195C80.7315 83.8417 81.7966 93.1213 84.0772 99.235L87.9309 100.582C87.4513 100.112 86.9953 99.5633 86.5656 98.9272C82.7492 93.5128 80.9099 81.7421 81.0488 69.6067C81.0542 68.8209 81.0683 68.0339 81.09 67.2496C81.098 67.022 81.1085 66.7994 81.1165 66.5718C81.0484 65.2617 81.0145 63.9384 80.9943 62.6116L80.984 63.1108C79.9203 58.1974 77.6412 54.2461 74.228 52.4334C70.3454 50.2305 65.0287 50.9159 58.8755 54.7658C59.5095 53.4329 60.0315 52.1195 60.4376 50.8369C65.8853 47.6456 70.6252 47.0099 74.2187 48.7641C77.4656 50.2464 79.755 53.6021 81.0185 57.9317C81.0285 57.5539 81.0398 57.1724 81.0522 56.7997C81.0541 57.2277 81.056 57.6557 81.0629 58.0813C81.0712 58.1177 81.0846 58.1517 81.0967 58.1894L81.0802 58.9588C81.2852 70.0496 83.1837 81.0492 86.7614 86.7614C90.1783 92.4761 95.3085 93.2756 101.52 88.4406L103.199 83.635C96.363 89.4752 90.6905 88.7711 86.9776 82.4586L86.9752 82.4536ZM14.6343 68.2422C12.7599 67.5872 11.7661 65.5557 12.4145 63.6999C13.063 61.8442 15.1057 60.8736 16.9801 61.5286C18.8545 62.1835 19.847 64.2188 19.1999 66.0708C18.5527 67.9228 16.5087 68.8971 14.6343 68.2422ZM30.0102 53.6838L18.3777 49.6193L20.9857 42.1552L18.9314 41.4374L19.8629 38.7713L21.9173 39.4891L22.5109 37.7902C22.8671 36.7708 23.4226 35.8672 24.1686 35.0804C24.9146 34.2936 25.857 33.7515 26.9894 33.46C28.1219 33.1686 29.4322 33.2828 30.9092 33.7989C32.1838 34.2443 33.1715 34.8366 33.8659 35.582C34.5603 36.3274 35.0849 37.1015 35.4346 37.9066L32.0288 39.7081C31.8154 39.2355 31.5522 38.8209 31.2545 38.4571C30.9567 38.0933 30.5211 37.8112 29.955 37.6134C29.0928 37.3121 28.3849 37.4 27.8286 37.8844C27.2686 38.3674 26.8626 38.9756 26.6043 39.7149L26.1672 40.9657L31.1681 42.7131L30.2366 45.3791L25.2357 43.6318L23.9154 47.4105L31.3117 49.9949L30.0201 53.6915L30.0102 53.6838Z" fill="#DDDDC0"/>
<path d="M64.3891 92.3565L73.0563 95.3849C70.6653 93.4517 67.7176 92.4134 64.3891 92.3565Z" fill="#DDDDC0"/>
<path d="M73.3361 85.8921C68.5934 82.3705 61.7111 82.5886 53.9029 87.2386C53.4044 87.5336 52.9068 87.85 52.4155 88.1727L54.661 88.9573C62.1158 84.9338 68.6884 84.9637 73.2713 88.4253C76.1477 90.4861 78.2185 93.8535 79.463 97.6234L79.5342 97.6483C79.5614 96.9204 79.595 96.1863 79.6373 95.4511C78.4191 91.4977 76.3113 87.9834 73.3323 85.8908L73.3361 85.8921Z" fill="#DDDDC0"/>
<path d="M86.6454 90.6806C83.5484 85.9283 81.7273 77.1512 81.1713 67.6304C81.2993 78.8577 83.143 89.6287 86.71 94.914C89.5405 99.3093 93.5711 100.198 98.4422 97.2243L100.072 92.5606C94.4526 96.5677 89.8121 95.7632 86.6429 90.6756L86.6454 90.6806Z" fill="#DDDDC0"/>
<path d="M87.3921 66.347C84.5585 61.2258 82.6907 53.2326 81.7852 44.9891L81.3878 44.8503C82.0022 54.601 83.9718 64.4941 87.2688 70.3596C90.9924 77.2792 96.5943 78.9559 103.27 74.3083C104.772 73.3206 106.256 72.096 107.706 70.7258L109.208 66.4281C107.28 68.3102 105.276 69.9521 103.24 71.168C96.6659 75.3441 91.1193 73.3768 87.3921 66.347Z" fill="#DDDDC0"/>
<path d="M57.1349 89.8211L60.3813 90.9555C65.3519 89.8641 69.7104 90.7292 73.0228 93.3363C74.1602 94.1862 75.1669 95.2418 76.0513 96.4307L77.9857 97.1066C76.8403 94.7623 75.3298 92.6927 73.4426 91.2079C69.397 87.8461 63.6872 87.2127 57.1386 89.8224L57.1349 89.8211Z" fill="#DDDDC0"/>
<path d="M102.681 52.2904L92.5518 48.7511C95.5029 51.7179 98.9407 53.0029 102.681 52.2904Z" fill="#DDDDC0"/>
<path d="M87.2372 74.044C83.6971 67.9595 81.6921 57.1322 81.2635 46.6211C81.0073 45.8737 80.7115 45.1671 80.3852 44.5L75.538 42.8063C78.073 44.2912 79.9502 47.0211 81.1155 50.5119C81.1194 50.5007 81.1158 50.4869 81.116 50.4744C81.1239 49.7775 81.1405 49.0919 81.1607 48.4202C81.1715 49.2201 81.1935 50.0238 81.2206 50.8252C81.2266 50.844 81.2326 50.8629 81.2387 50.8818L81.2337 51.1607C81.6225 61.7376 83.5828 72.4278 87.0917 78.3129C90.8143 84.8382 96.4712 85.8637 103.265 80.3983C103.761 80.0144 104.258 79.6016 104.75 79.17L106.365 74.5474C105.346 75.4776 104.314 76.3238 103.274 77.0622C96.5703 82.0647 90.9578 80.7195 87.2334 74.0427L87.2372 74.044Z" fill="#DDDDC0"/>
<path d="M103.379 65.0952C96.935 68.4286 91.4477 65.8703 87.713 58.5488C85.8805 55.1013 84.437 50.5287 83.3805 45.5465L82.567 45.2623C83.5603 51.605 85.1423 57.5752 87.3267 61.8453C91.0695 69.5048 96.7328 72.0408 103.458 68.1061C105.894 66.7825 108.284 64.84 110.542 62.6164L111.937 58.6248C109.27 61.3089 106.364 63.6663 103.383 65.0965L103.379 65.0952Z" fill="#DDDDC0"/>
<path d="M103.055 57.1931C105 56.6202 106.9 55.6249 108.72 54.4006L105.976 53.4418C104.965 53.8928 103.939 54.2635 102.896 54.4938C97.6793 55.8428 93.0529 53.3129 89.4929 47.6823L87.1837 46.8754C87.3349 47.2132 87.4887 47.5434 87.6502 47.8638C91.3877 55.731 96.7894 59.2566 103.052 57.188L103.055 57.1931Z" fill="#DDDDC0"/>
<path d="M73.2832 83.5768C76.3801 85.6686 78.5554 89.3029 79.7702 93.4227C79.8269 92.6465 79.886 91.8753 79.9551 91.1117C78.7733 86.7771 76.5526 82.972 73.3379 80.8558C68.5189 77.5044 61.5264 78.0862 53.5844 83.2634C51.9281 84.3438 50.3125 85.5726 48.7385 86.8871L50.6579 87.5577C51.6734 86.8064 52.7047 86.0942 53.7527 85.4422C61.5928 80.5688 68.5064 80.1647 73.2845 83.573L73.2832 83.5768Z" fill="#DDDDC0"/>
<path d="M93.4931 102.525L96.2597 103.492L97.0099 101.345C95.7723 101.997 94.5984 102.383 93.4931 102.525Z" fill="#DDDDC0"/>
<path d="M87.6653 55.1216C91.4019 62.6784 96.8847 65.5746 103.3 62.6124C106.599 61.2134 109.802 58.6541 112.677 55.7831L110.788 55.1229C108.397 57.1368 105.826 58.8487 103.183 59.7936C96.8665 62.2918 91.4366 59.0999 87.7015 51.4305C86.9245 49.8979 86.2155 48.1711 85.5772 46.3141L84.2763 45.8596C85.2007 49.3417 86.3299 52.5266 87.669 55.1229L87.6653 55.1216Z" fill="#DDDDC0"/>
<path d="M25.2298 43.6256L30.2307 45.373L31.1623 42.707L26.1614 40.9596L26.5984 39.7087C26.8581 38.9657 27.2641 38.3576 27.8227 37.8782C28.3827 37.3951 29.0907 37.3073 29.9491 37.6073C30.5152 37.8051 30.9509 38.0872 31.2486 38.451C31.5463 38.8148 31.8095 39.2293 32.023 39.7019L35.4287 37.9004C35.0828 37.0966 34.5545 36.3213 33.8601 35.5759C33.1656 34.8304 32.1817 34.2394 30.9034 33.7928C29.4264 33.2767 28.116 33.1624 26.9836 33.4539C25.8512 33.7453 24.9088 34.2875 24.1627 35.0743C23.4167 35.8611 22.8599 36.7684 22.505 37.784L21.9114 39.483L19.8571 38.7652L18.9255 41.4312L20.9798 42.149L18.3718 49.6131L30.0081 53.679L31.2997 49.9824L23.9033 47.398L25.2236 43.6193L25.2298 43.6256Z" fill="#001276"/>
<path d="M16.9786 61.5283C15.1042 60.8733 13.0602 61.8476 12.4131 63.6997C11.766 65.5517 12.7584 67.587 14.6328 68.2419C16.5072 68.8968 18.55 67.9263 19.1984 66.0705C19.8468 64.2148 18.853 62.1832 16.9786 61.5283Z" fill="#001276"/>
<path d="M80.3994 85.4472C80.3651 86.1474 80.3446 86.8442 80.3216 87.5358C80.2638 88.0142 80.2122 88.499 80.1631 88.9888C79.0213 84.3833 76.7307 80.3568 73.3545 78.2092C68.4967 74.9449 61.4477 75.7122 53.4382 81.155C51.2353 82.6561 49.0956 84.4098 47.0408 86.2937L48.7385 86.8871C50.3125 85.5726 51.9281 84.3438 53.5844 83.2634C61.5264 78.0862 68.5189 77.5044 73.3379 80.8558C76.5526 82.972 78.7733 86.7771 79.9551 91.1117C79.886 91.8753 79.8231 92.6452 79.7702 93.4227C78.5554 89.3029 76.3801 85.6686 73.2832 83.5768C68.5088 80.1698 61.5957 80.5738 53.7519 85.446C52.7051 86.0942 51.6738 86.8064 50.6571 87.5614L52.4152 88.1758C52.9066 87.8531 53.4041 87.5367 53.9026 87.2416C61.7109 82.5917 68.5969 82.3749 73.3359 85.8952C76.3098 87.9901 78.4226 91.502 79.6408 95.4555C79.5985 96.1907 79.5649 96.9247 79.5377 97.6526L81.161 98.2198C80.5968 93.6946 80.3765 88.6067 80.5162 83.3554C80.4719 84.048 80.4287 84.7493 80.3981 85.4509L80.3994 85.4472Z" fill="#99B0BE"/>
<path d="M61.0548 41.2568C62.4472 40.39 63.7947 39.6877 65.0872 39.1547L61.4134 37.871C60.9589 38.1605 60.498 38.4562 60.0342 38.7843C60.4786 39.5471 60.8167 40.3733 61.0548 41.2568Z" fill="#99B0BE"/>
<path d="M29.5893 80.1973L30.1591 80.3964C30.239 80.2399 30.3226 80.0848 30.4025 79.9284C30.1301 80.0217 29.8591 80.1114 29.5893 80.1973Z" fill="#99B0BE"/>
<path d="M32.159 79.2713C31.8735 79.7874 31.5944 80.2974 31.3165 80.8036L32.3249 81.156C32.8082 80.3025 33.308 79.4381 33.8203 78.5738C33.2659 78.8242 32.7105 79.0534 32.1615 79.2763L32.159 79.2713Z" fill="#99B0BE"/>
<path d="M87.7163 58.55C91.4523 65.8677 96.9425 68.4313 103.383 65.0965C106.364 63.6663 109.27 61.3089 111.937 58.6248L112.902 55.8616L112.677 55.7831C109.802 58.6541 106.599 61.2134 103.3 62.6124C96.8847 65.5746 91.4056 62.6797 87.6653 55.1216C86.3262 52.5253 85.2004 49.3416 84.2723 45.8582L83.3763 45.5451C84.4328 50.5272 85.8763 55.0999 87.7088 58.5473L87.7163 58.55Z" fill="#99B0BE"/>
<path d="M86.7575 86.7602C83.1799 81.048 81.2852 70.0497 81.0764 58.9576L81.0928 58.1882C81.0845 58.1518 81.0711 58.1178 81.0591 58.0801C81.0535 57.6508 81.0503 57.2265 81.0484 56.7985C81.0359 57.1712 81.0246 57.5527 81.0146 57.9305C79.7525 53.5971 77.4617 50.2452 74.2149 48.7629C70.6213 47.0087 65.8815 47.6444 60.4337 50.8357C60.0263 52.122 59.5043 53.4354 58.8716 54.7646C65.0286 50.9161 70.3415 50.2293 74.2242 52.4322C77.6336 54.2436 79.9127 58.1949 80.9801 63.1096L80.9905 62.6104C81.0106 63.9372 81.0446 65.2605 81.1127 66.5706C81.1046 66.7982 81.0942 67.0208 81.0861 67.2484C81.0645 68.0327 81.049 68.8234 81.045 69.6055C80.9098 81.7422 82.7454 93.5117 86.5617 98.926C86.9877 99.5608 87.4437 100.11 87.9271 100.58L93.4903 102.524C94.598 102.388 95.7719 102.002 97.0071 101.344L98.4448 97.2291C93.5699 100.202 89.5431 99.3141 86.7126 94.9188C83.1418 89.6322 81.2981 78.8612 81.1739 67.6352C81.7299 77.156 83.551 85.9331 86.648 90.6855C89.8171 95.7731 94.4576 96.5775 100.077 92.5705L101.52 88.4406C95.3072 93.2794 90.1783 92.4761 86.7614 86.7614L86.7575 86.7602Z" fill="#99B0BE"/>
<path d="M36.03 77.4992C35.1645 78.8685 34.3268 80.2307 33.5294 81.5736L34.6054 81.9495C35.8018 80.0423 37.0701 78.1098 38.401 76.1908C37.6078 76.6553 36.8199 77.0922 36.03 77.4992Z" fill="#99B0BE"/>
<path d="M60.3813 90.9555L64.3891 92.3565C67.7176 92.4134 70.6615 93.4504 73.0563 95.3849L76.0513 96.4307C75.1669 95.2418 74.1602 94.1862 73.0228 93.3363C69.7104 90.7292 65.3519 89.8641 60.3813 90.9555Z" fill="#99B0BE"/>
<path d="M73.2752 88.4258C68.6924 84.9642 62.1197 84.9344 54.665 88.9579L57.1349 89.8211C63.6797 87.2101 69.39 87.8434 73.4393 91.2065C75.3291 92.6964 76.8371 94.761 77.9824 97.1052L79.467 97.6239C78.2225 93.854 76.1516 90.4867 73.2752 88.4258Z" fill="#99B0BE"/>
<path d="M102.896 54.4938C103.937 54.2585 104.966 53.8891 105.976 53.4418L102.681 52.2904C98.9407 53.0029 95.5029 51.7179 92.5518 48.7511L89.4957 47.6833C93.0556 53.3139 97.6821 55.8438 102.898 54.4947L102.896 54.4938Z" fill="#99B0BE"/>
<path d="M87.2688 70.3596C83.9718 64.4941 82.0022 54.601 81.3878 44.8503L80.3875 44.5008C80.7139 45.1679 81.0059 45.8732 81.2659 46.6219C81.6945 57.133 83.6982 67.964 87.2396 74.0448C90.9639 80.7217 96.5752 82.0706 103.28 77.0643C104.319 76.3296 105.352 75.4798 106.371 74.5496L107.708 70.7223C106.258 72.0925 104.774 73.3171 103.272 74.3048C96.5963 78.9524 90.9944 77.2757 87.2707 70.3561L87.2688 70.3596Z" fill="#99B0BE"/>
<path d="M73.5541 58.3611C77.3152 60.2618 79.7669 64.6337 80.7999 69.9721L80.8824 66.8586C79.8072 61.5809 77.3351 57.3276 73.5853 55.5271C69.1974 53.2775 63.1024 54.529 56.0981 59.6107C53.6273 63.3352 50.3709 67.045 46.4296 70.4275C44.9948 71.6565 43.5312 72.7875 42.0537 73.8257C39.8563 76.6234 37.7868 79.5245 35.8834 82.3956L37.0005 82.7859C41.4118 76.4211 46.6675 69.9994 52.2396 65.0919C60.8495 57.6299 68.3924 55.5813 73.5466 58.3585L73.5541 58.3611Z" fill="#99B0BE"/>
<path d="M103.183 59.7936C105.828 58.8449 108.399 57.133 110.788 55.1229L108.72 54.4006C106.902 55.6212 105 56.6202 103.055 57.1931C96.7919 59.2616 91.3903 55.7319 87.6514 47.8684C87.4937 47.5494 87.3412 47.2154 87.1849 46.8801L85.573 46.3168C86.215 48.1752 86.9203 49.9006 87.6973 51.4332C91.4324 59.1026 96.8623 62.2945 103.178 59.7963L103.183 59.7936Z" fill="#99B0BE"/>
<path d="M87.0956 78.3142C83.5867 72.4291 81.6264 61.7389 81.2376 51.1621L81.2425 50.8831C81.2425 50.8831 81.2305 50.8454 81.2245 50.8265C81.1936 50.0239 81.1754 49.2214 81.1646 48.4216C81.1444 49.0933 81.1278 49.7788 81.1199 50.4757C81.1197 50.4883 81.1196 50.5008 81.1194 50.5133C79.9503 47.0211 78.0769 44.2926 75.5419 42.8077L71.9993 41.5698C69.0008 41.1464 65.4376 42.0382 61.4756 44.3241C61.4948 45.2442 61.4345 46.1994 61.2909 47.1882C66.4868 44.2483 70.996 43.6829 74.4501 45.3423C77.6199 46.7683 79.8758 50.0033 81.1482 54.223C81.3872 65.313 83.3379 76.5362 86.9781 82.4546C90.691 88.7671 96.3635 89.4712 103.199 83.631L104.757 79.1727C104.262 79.603 103.768 80.017 103.272 80.401C96.4789 85.8664 90.8219 84.8409 87.0993 78.3155L87.0956 78.3142Z" fill="#99B0BE"/>
<path d="M87.3226 61.8438C85.1382 57.5737 83.5562 51.6035 82.5628 45.2609L81.7831 44.9884C82.6848 53.2306 84.5564 61.2251 87.3899 66.3463C91.1134 73.3747 96.6637 75.3434 103.238 71.1673C105.274 69.9513 107.279 68.3057 109.206 66.4273L110.538 62.615C108.283 64.8436 105.889 66.7811 103.454 68.1047C96.7287 72.0394 91.0654 69.5033 87.3226 61.8438Z" fill="#99B0BE"/>
<path d="M80.777 76.4713C80.7464 77.2692 80.7246 78.066 80.7116 78.8617C80.5685 86.0852 81.1079 93.0528 82.3211 98.6218L84.0718 99.2335C81.7925 93.116 80.7224 83.8388 80.8871 74.2179C80.8459 74.9619 80.8072 75.7109 80.777 76.4713Z" fill="#99B0BE"/>
<path d="M72.9913 70.1305C76.8075 72.3187 79.2405 76.9731 80.2014 82.3492L80.2889 79.7151C79.3174 74.285 76.844 69.65 72.9891 67.5363C67.9873 64.6239 60.7102 66.1285 52.433 72.6383C48.3567 75.8772 44.4754 79.9427 40.9848 84.1781L42.2436 84.6179C45.4227 80.9733 48.9017 77.5173 52.534 74.7182C60.782 68.4244 68.0291 67.102 72.998 70.1329L72.9913 70.1305Z" fill="#99B0BE"/>
<path d="M73.2985 64.494C77.1479 66.5513 79.618 71.1475 80.6055 76.6041L80.704 73.4207C79.6924 67.985 77.211 63.4813 73.3743 61.508C68.268 58.7141 60.8164 60.5977 52.3288 67.7337C47.2667 72.0485 42.4717 77.6214 38.3487 83.2574L39.6683 83.7184C43.4959 78.7712 47.8427 73.9634 52.4195 70.1829C60.8409 63.3087 68.236 61.6106 73.3036 64.4916L73.2985 64.494Z" fill="#99B0BE"/>
<path d="M73.466 75.4296C76.8663 77.5562 79.1627 81.6141 80.2847 86.3006L80.3715 83.8129C79.2431 79.0486 76.9117 74.9702 73.4492 72.9014C68.5167 69.7786 61.3426 70.8919 53.1791 76.8716C49.9641 79.2467 46.8653 82.1442 43.9899 85.233L45.3582 85.7111C47.8708 83.1911 50.5368 80.8462 53.2894 78.8793C61.4187 73.1181 68.5627 72.187 73.4622 75.4283L73.466 75.4296Z" fill="#99B0BE"/>
<path d="M87.8382 77.5969C84.6797 71.1377 83.7893 59.3871 84.6522 47.9371C83.7611 43.4677 81.7644 39.9122 78.64 38.1216C75.2496 36.0639 70.5471 36.1998 64.9021 38.7091C65.1487 37.7049 65.3062 36.7271 65.3783 35.7776C69.6872 33.8187 73.4479 33.2522 76.4923 33.9914L69.6135 30.8135C68.229 31.2334 66.7727 31.8185 65.2504 32.576C65.0933 31.6423 64.8276 30.7576 64.4461 29.9275C64.9586 29.6413 65.4607 29.3774 65.9577 29.1246L22.3983 9.00049L0.501845 56.3964L28.957 69.5424C29.2435 69.4809 29.5316 69.4156 29.8215 69.3466C29.7236 69.4998 29.622 69.6512 29.5241 69.8044L30.6805 70.3386C31.0135 69.8432 31.3556 69.3475 31.7012 68.8444C32.2927 68.6713 32.8838 68.4891 33.4799 68.2865C32.8679 69.131 32.2632 69.9697 31.6819 70.7968L32.8794 71.35C33.8364 70.0428 34.8298 68.7253 35.8616 67.4031C36.7159 67.0628 37.5747 66.6931 38.4344 66.2923C36.8703 68.1396 35.371 70.0033 33.95 71.8446L35.2332 72.4374C37.4786 69.674 39.8997 66.8926 42.444 64.2267C44.0694 63.3049 45.6881 62.2899 47.2903 61.1636C51.6875 58.0732 55.4119 54.5774 58.3286 50.9879C66.0501 46.4532 72.4527 45.7727 76.7475 48.5279C80.4299 50.7566 82.5478 55.3825 83.132 60.9275L82.7361 64.1261C82.2032 58.5191 80.1165 53.7769 76.4325 51.4437C71.4047 48.0704 63.4295 49.4311 53.8146 56.2516C47.5856 60.7499 41.5313 66.8393 36.3523 72.9545L37.6841 73.5697C42.497 68.1782 47.9904 62.9207 53.633 58.9765C63.0874 52.4741 70.9484 51.2726 75.9308 54.6655C79.6854 57.0809 81.7915 61.9674 82.2908 67.667L81.8715 70.9359C81.4009 65.2135 79.3139 60.2366 75.5546 57.7334C70.6228 54.2602 62.8402 55.2725 53.4764 61.5102C48.3888 64.9488 43.428 69.4649 38.9917 74.1783L40.2973 74.7815C44.3171 70.7639 48.7226 66.9696 53.2407 64.0388C62.4142 58.164 70.0596 57.3408 74.9223 60.8362C78.6854 63.3999 80.7664 68.419 81.2249 74.1088L80.8718 76.8131C80.4188 71.18 78.3759 66.1469 74.6655 63.5084C69.8486 59.8944 62.256 60.5346 53.1304 66.1881C49.1098 68.7084 45.1831 71.9169 41.5433 75.3571L43.2891 76.1637C46.559 73.2695 50.0363 70.5927 53.5885 68.4691C62.5919 63.129 70.0901 62.6931 74.8624 66.4038C78.2222 68.8802 80.2162 73.3136 80.9028 78.3333L80.565 80.8869C79.881 75.9496 77.9226 71.5372 74.6273 69.0093C69.9045 65.1818 62.4534 65.4275 53.5054 70.5498C50.4719 72.2953 47.4902 74.4481 44.6544 76.7944L46.3256 77.5665C48.6263 75.8296 51.009 74.2387 53.4278 72.9125C62.2207 68.1063 69.5575 68.0197 74.235 71.8669C77.5017 74.4176 79.4552 78.7917 80.1715 83.6493C80.273 83.1551 80.3763 82.6573 80.4798 82.1686C80.5688 81.4568 80.6649 80.7392 80.7685 80.0251C80.8718 79.3019 80.9845 78.5875 81.0993 77.8786C80.4257 83.2753 80.1501 88.5357 80.2794 93.2529L81.4358 93.7871C80.7439 87.9264 80.8822 80.6999 81.7508 73.2742C81.8437 72.4559 81.9457 71.6374 82.0569 70.8186C82.1638 70.0385 82.2748 69.2692 82.3953 68.5088C81.2688 78.4032 81.4393 88.0673 83.1778 94.5919L87.0127 96.3636C86.5655 95.8324 86.1507 95.2214 85.7716 94.5233C82.3814 88.5657 81.6621 76.2585 83.0168 63.7733C83.1008 62.9645 83.1939 62.1554 83.2945 61.3497C83.3255 61.1161 83.3585 60.8879 83.3895 60.6542C83.4502 59.2981 83.5473 57.9318 83.659 56.5632L83.5985 57.0763C82.9935 51.9094 81.0407 47.6122 77.7061 45.4044C73.9271 42.7478 68.3826 42.923 61.6607 46.2739C62.4467 44.9644 63.1155 43.6637 63.6618 42.3832C69.5914 39.6402 74.5368 39.4587 78.0629 41.6242C81.2591 43.4751 83.2821 47.1599 84.1511 51.7454C84.1992 51.3573 84.2489 50.9655 84.299 50.5828C84.2582 51.0239 84.2174 51.4649 84.182 51.9039C84.1869 51.9423 84.1973 51.9786 84.206 52.0187L84.1122 52.8095C83.2161 64.2531 84.0733 75.7719 87.1879 82.0125C90.1367 88.2396 95.3408 89.5753 102.221 85.2155L104.43 80.4335C96.8063 85.7663 91.0341 84.4747 87.8402 77.6023L87.8382 77.5969ZM14.7482 55.7372C12.883 54.8755 12.0622 52.6839 12.9154 50.8372C13.7685 48.9906 15.9694 48.1949 17.8345 49.0566C19.6997 49.9183 20.5187 52.1136 19.6673 53.9566C18.8159 55.7995 16.6133 56.5989 14.7482 55.7372ZM32.0383 42.2776L20.463 36.9299L23.8944 29.5025L21.8502 28.5581L23.0758 25.9052L25.12 26.8496L25.9011 25.159C26.3697 24.1446 27.0321 23.2694 27.879 22.5335C28.7259 21.7977 29.7507 21.3333 30.9462 21.1462C32.1416 20.9591 33.4798 21.2076 34.9496 21.8866C36.2179 22.4726 37.1761 23.1812 37.8169 24.0183C38.4577 24.8554 38.9207 25.705 39.2004 26.5691L35.5128 28.0846C35.3401 27.5765 35.1104 27.1233 34.8401 26.7188C34.5698 26.3144 34.1492 25.9804 33.5859 25.7201C32.7279 25.3238 31.99 25.3435 31.3688 25.7869C30.7438 26.2285 30.2649 26.8144 29.925 27.55L29.35 28.7948L34.3263 31.0938L33.1006 33.7467L28.1243 31.4477L26.3872 35.2078L33.7472 38.6081L32.0478 42.2865L32.0383 42.2776Z" fill="#E8E8C9"/>
<path d="M63.5865 85.5417L72.2111 89.5261C69.9414 87.2963 67.009 85.9326 63.5865 85.5417Z" fill="#E8E8C9"/>
<path d="M73.447 79.7768C68.9138 75.6762 61.8035 75.2137 53.297 79.2234C52.7541 79.4775 52.21 79.7537 51.6718 80.037L53.9062 81.0694C61.9861 77.6696 68.7528 78.3565 73.1273 82.3794C75.8842 84.7892 77.6809 88.4642 78.5863 92.4713L78.6572 92.5041C78.7579 91.7571 78.8657 91.0044 78.9827 90.2514C78.1227 86.0578 76.3026 82.2277 73.4433 79.7751L73.447 79.7768Z" fill="#E8E8C9"/>
<path d="M86.6771 86.0376C83.9618 80.8336 82.9624 71.6116 83.3403 61.7501C82.3511 73.3266 83.1748 84.6044 86.321 90.4042C88.7975 95.2139 92.8601 96.5317 98.1742 93.9551L100.318 89.3144C94.1305 92.8805 89.4312 91.5887 86.6751 86.0322L86.6771 86.0376Z" fill="#E8E8C9"/>
<path d="M89.8756 61.0493C87.4684 55.4917 86.3426 47.0725 86.233 38.4916L85.8376 38.3089C85.4969 48.4131 86.5378 58.7994 89.348 65.1698C92.4924 72.6686 98.0948 74.9548 105.435 70.8344C107.08 69.967 108.731 68.8539 110.361 67.5874L112.337 63.3108C110.163 65.0568 107.936 66.5479 105.717 67.597C98.5291 71.2419 93.0127 68.6618 89.8756 61.0493Z" fill="#E8E8C9"/>
<path d="M56.368 82.206L59.5985 83.6985C64.827 83.0707 69.2298 84.3969 72.3811 87.4127C73.4678 88.4017 74.3992 89.5895 75.1914 90.9023L77.1163 91.7915C76.1707 89.2627 74.8216 86.9802 73.026 85.2625C69.1948 81.396 63.3771 80.1736 56.3718 82.2077L56.368 82.206Z" fill="#E8E8C9"/>
<path d="M107.026 48.0978L96.9467 43.4412C99.6901 46.7916 103.103 48.4583 107.026 48.0978Z" fill="#E8E8C9"/>
<path d="M88.9476 68.9615C85.9089 62.3411 84.9248 50.9892 85.5328 40.1203C85.3435 39.325 85.1094 38.5676 84.8399 37.8479L80.0165 35.6196C82.4793 37.4021 84.1401 40.4011 84.9919 44.113C84.997 44.1018 84.9947 44.0872 84.9961 44.0744C85.0739 43.3574 85.1594 42.6529 85.2472 41.9631C85.1785 42.788 85.1209 43.618 85.0688 44.4461C85.0731 44.4661 85.0775 44.4862 85.0818 44.5062L85.0488 44.7931C84.3934 55.7257 85.3451 66.932 88.3716 73.3437C91.5542 80.4363 97.2783 82.0573 104.821 77.1064C105.37 76.7604 105.924 76.385 106.473 75.9895L108.598 71.3897C107.456 72.246 106.309 73.0145 105.163 73.6711C97.7597 78.1544 92.1133 76.2085 88.9439 68.9598L88.9476 68.9615Z" fill="#E8E8C9"/>
<path d="M106.466 61.356C99.4966 64.146 94.1003 60.9632 90.9847 53.0494C89.4415 49.3157 88.4112 44.4618 87.8204 39.2249L87.011 38.8509C87.4008 45.4829 88.4342 51.7899 90.2577 56.4061C93.348 64.6688 98.9278 67.8463 106.248 64.4651C108.888 63.345 111.544 61.583 114.092 59.5181L115.927 55.5462C112.912 58.0444 109.684 60.1824 106.47 61.3577L106.466 61.356Z" fill="#E8E8C9"/>
<path d="M106.921 53.1847C108.983 52.789 111.039 51.9535 113.036 50.8742L110.305 49.6127C109.218 49.9763 108.125 50.2557 107.027 50.3886C101.52 51.2573 97.0073 48.1897 93.9029 42.035L91.605 40.9733C91.727 41.3363 91.8524 41.6918 91.9868 42.0379C95.0508 50.514 100.262 54.6846 106.919 53.1793L106.921 53.1847Z" fill="#E8E8C9"/>
<path d="M73.6237 77.3867C76.6046 79.8505 78.4822 83.8108 79.3221 88.1754C79.458 87.3816 79.5959 86.5932 79.7433 85.8136C78.9588 81.2312 77.0515 77.0903 73.9517 74.5897C69.3229 70.6568 62.0627 70.5579 53.3658 75.0973C51.552 76.0448 49.7654 77.149 48.013 78.3458L49.9229 79.2281C51.0438 78.5557 52.1771 77.9251 53.3217 77.3583C61.8833 73.1215 69.0444 73.3956 73.6254 77.383L73.6237 77.3867Z" fill="#E8E8C9"/>
<path d="M92.5475 98.9206L95.3005 100.192L96.2875 98.056C94.9477 98.6047 93.7001 98.885 92.5475 98.9206Z" fill="#E8E8C9"/>
<path d="M91.2777 49.5148C94.3718 57.6711 99.7298 61.2014 106.633 58.7909C110.17 57.6793 113.725 55.3632 116.973 52.6932L115.093 51.8246C112.43 53.6601 109.611 55.1667 106.794 55.8759C100.039 57.8185 94.7648 53.9887 91.6835 45.7166C91.0363 44.0605 90.4784 42.2112 90.0064 40.2348L88.7119 39.6368C89.3164 43.3155 90.1614 46.7087 91.2814 49.5165L91.2777 49.5148Z" fill="#E8E8C9"/>
<path d="M28.1189 31.4408L33.0952 33.7398L34.3208 31.0869L29.3445 28.7878L29.9196 27.5431C30.2612 26.8037 30.74 26.2179 31.3633 25.78C31.9883 25.3383 32.7263 25.3186 33.5805 25.7132C34.1438 25.9734 34.5643 26.3075 34.8347 26.7119C35.105 27.1164 35.3347 27.5696 35.5073 28.0777L39.195 26.5622C38.919 25.6998 38.4522 24.8485 37.8114 24.0114C37.1706 23.1743 36.2162 22.4674 34.9442 21.8797C33.4744 21.2007 32.1362 20.9521 30.9407 21.1393C29.7453 21.3264 28.7205 21.7907 27.8736 22.5266C27.0266 23.2625 26.3625 24.1414 25.8956 25.1521L25.1146 26.8427L23.0704 25.8983L21.8447 28.5512L23.889 29.4956L20.4576 36.923L32.0366 42.2724L33.736 38.594L26.376 35.1938L28.1132 31.4336L28.1189 31.4408Z" fill="#001276"/>
<path d="M17.8331 49.0562C15.9679 48.1945 13.7653 48.9939 12.9139 50.8368C12.0625 52.6797 12.8815 54.8751 14.7467 55.7368C16.6119 56.5985 18.8127 55.8028 19.6658 53.9561C20.519 52.1095 19.6982 49.9178 17.8331 49.0562Z" fill="#001276"/>
<path d="M80.7665 80.0237C80.6612 80.7415 80.5705 81.4571 80.4778 82.1672C80.3705 82.6542 80.269 83.1483 80.1694 83.6478C79.4532 78.7903 77.496 74.4144 74.233 71.8655C69.5555 68.0183 62.2187 68.1049 53.4258 72.9111C51.007 74.2373 48.6281 75.8299 46.3236 77.5651L48.013 78.3458C49.7654 77.149 51.552 76.0448 53.3658 75.0973C62.0627 70.5579 69.3229 70.6568 73.9517 74.5897C77.0515 77.0903 78.9588 81.2312 79.7433 85.8136C79.5959 86.5932 79.4542 87.3799 79.3221 88.1754C78.4822 83.8108 76.6046 79.8505 73.6237 77.3867C69.0464 73.401 61.8857 73.127 53.3204 77.362C52.1776 77.9251 51.0443 78.5558 49.9217 79.2319L51.6712 80.0402C52.2095 79.7568 52.7535 79.4807 53.2964 79.2265C61.8029 75.2168 68.917 75.681 73.4465 79.7799C76.3003 82.2346 78.1259 86.0626 78.9859 90.2562C78.8689 91.0092 78.7611 91.7619 78.6604 92.5089L80.2756 93.2551C80.1464 88.538 80.4274 83.2756 81.0955 77.8809C80.9808 78.5898 80.8663 79.3079 80.7647 80.0274L80.7665 80.0237Z" fill="#99B0BE"/>
<path d="M65.254 32.5777C66.7746 31.8239 68.2326 31.2351 69.6171 30.8151L65.9614 29.1262C65.4643 29.379 64.9601 29.6375 64.4497 29.9292C64.8312 30.7592 65.0969 31.6439 65.254 32.5777Z" fill="#99B0BE"/>
<path d="M28.9577 69.5437L29.5248 69.8056C29.6227 69.6525 29.7243 69.501 29.8222 69.3479C29.5323 69.4169 29.2442 69.4821 28.9577 69.5437Z" fill="#99B0BE"/>
<path d="M31.6969 68.8465C31.3514 69.3496 31.0129 69.847 30.6762 70.3406L31.6797 70.8042C32.2627 69.9735 32.8637 69.133 33.4776 68.294C32.8816 68.4965 32.2867 68.6771 31.699 68.8519L31.6969 68.8465Z" fill="#99B0BE"/>
<path d="M90.988 53.0509C94.1054 60.961 99.5041 64.1495 106.47 61.3577C109.684 60.1824 112.912 58.0444 115.927 55.5462L117.197 52.7965L116.973 52.6932C113.725 55.3632 110.17 57.6793 106.633 58.7909C99.7298 61.2014 94.3755 57.6728 91.2777 49.5148C90.1577 46.7069 89.3161 43.3154 88.7079 39.6349L87.8163 39.223C88.4071 44.4599 89.4373 49.3138 90.9806 53.0475L90.988 53.0509Z" fill="#99B0BE"/>
<path d="M87.184 82.0109C84.0694 75.7703 83.216 64.2532 84.1084 52.8079L84.2021 52.0171C84.1972 51.9787 84.1868 51.9424 84.1782 51.9023C84.2152 51.4596 84.2543 51.0223 84.2951 50.5812C84.2451 50.9639 84.1953 51.3557 84.1473 51.7438C83.28 47.1546 81.2553 43.4734 78.0591 41.6226C74.533 39.4571 69.5876 39.6386 63.658 42.3816C63.1099 43.6658 62.4412 44.9665 61.6568 46.2723C68.3825 42.9231 73.9233 42.7462 77.7023 45.4028C81.0331 47.6089 82.986 51.9061 83.5947 57.0747L83.6552 56.5616C83.5435 57.9302 83.4464 59.2965 83.3857 60.6526C83.3547 60.8863 83.3217 61.1145 83.2907 61.3481C83.1901 62.1538 83.0952 62.9666 83.013 63.7717C81.662 76.2586 82.3776 88.5641 85.7677 94.5217C86.1431 95.2181 86.5579 95.8291 87.0088 96.362L92.5447 98.9195C93.6993 98.8893 94.9468 98.6091 96.2847 98.0549L98.1764 93.9603C92.8586 96.5352 88.7997 95.2191 86.3232 90.4094C83.1732 84.6079 82.3496 73.3301 83.3425 61.7553C82.9645 71.6169 83.9639 80.8388 86.6793 86.0428C89.4354 91.5993 94.1347 92.8912 100.322 89.325L102.221 85.2155C95.339 89.579 90.1367 88.2396 87.1879 82.0125L87.184 82.0109Z" fill="#99B0BE"/>
<path d="M35.8608 67.4077C34.8327 68.7317 33.8339 70.0511 32.8786 71.3546L33.9492 71.8492C35.3719 70.0042 36.8712 68.1405 38.4336 66.2969C37.5702 66.6961 36.7151 67.0675 35.8608 67.4077Z" fill="#99B0BE"/>
<path d="M59.5985 83.6985L63.5865 85.5417C67.009 85.9326 69.9377 87.2946 72.2111 89.5261L75.1914 90.9023C74.3992 89.5895 73.4678 88.4017 72.3811 87.4127C69.2298 84.3969 64.827 83.0707 59.5985 83.6985Z" fill="#99B0BE"/>
<path d="M73.1314 82.3803C68.7568 78.3575 61.9901 77.6705 53.9103 81.0703L56.368 82.206C63.3696 80.1701 69.1879 81.3926 73.0228 85.2608C74.8204 86.9839 76.1675 89.261 77.1131 91.7898L78.5903 92.4723C77.6849 88.4651 75.8883 84.7901 73.1314 82.3803Z" fill="#99B0BE"/>
<path d="M107.027 50.3886C108.123 50.2502 109.22 49.9725 110.305 49.6127L107.026 48.0978C103.103 48.4583 99.6901 46.7916 96.9467 43.4412L93.9056 42.0362C97.0101 48.191 101.523 51.2586 107.03 50.3899L107.027 50.3886Z" fill="#99B0BE"/>
<path d="M89.348 65.1698C86.5378 58.7994 85.4969 48.4131 85.8376 38.3089L84.8422 37.849C85.1118 38.5687 85.3421 39.3243 85.5352 40.1214C84.9272 50.9903 85.9095 62.346 88.95 68.9626C92.1194 76.2113 97.7641 78.1609 105.169 73.6739C106.313 73.021 107.462 72.2488 108.604 71.3925L110.364 67.584C108.733 68.8505 107.083 69.9636 105.437 70.831C98.0971 74.9513 92.4948 72.6652 89.3503 65.1664L89.348 65.1698Z" fill="#99B0BE"/>
<path d="M76.4202 51.4425C80.1043 53.7757 82.193 58.5234 82.7239 64.1249L83.1198 60.9263C82.5393 55.3831 80.4177 50.7554 76.7353 48.5267C72.4404 45.7715 66.0378 46.452 58.3163 50.9867C55.3997 54.5762 51.6753 58.072 47.2781 61.1624C45.6776 62.285 44.0572 63.3038 42.4318 64.2255C39.8892 66.8877 37.4681 69.6691 35.221 72.4363L36.3327 72.9498C41.5116 66.8347 47.5659 60.7453 53.7949 56.2469C63.4078 49.421 71.3813 48.064 76.4128 51.439L76.4202 51.4425Z" fill="#99B0BE"/>
<path d="M106.794 55.8759C109.613 55.1629 112.432 53.6564 115.093 51.8246L113.036 50.8742C111.041 51.9498 108.983 52.789 106.921 53.1847C100.264 54.69 95.0534 50.5152 91.9876 42.0428C91.857 41.6984 91.7333 41.3392 91.6058 40.9782L90.0017 40.2372C90.4775 42.2153 91.0317 44.0629 91.6789 45.719C94.7602 53.9911 100.034 57.8208 106.789 55.8783L106.794 55.8759Z" fill="#99B0BE"/>
<path d="M88.3754 73.3455C85.349 66.9337 84.3972 55.7275 85.0527 44.7948L85.0857 44.508C85.0857 44.508 85.077 44.4679 85.0727 44.4479C85.1211 43.6181 85.1824 42.7898 85.2511 41.9649C85.1633 42.6547 85.0778 43.3592 85 44.0762C84.9986 44.089 84.9972 44.1019 84.9957 44.1148C84.1403 40.4012 82.4832 37.4039 80.0204 35.6214L76.4952 33.9928C73.4491 33.2573 69.6901 33.8201 65.3812 35.7789C65.3091 36.7285 65.1516 37.7062 64.905 38.7104C70.5501 36.2011 75.2509 36.069 78.6429 38.123C81.7653 39.9082 83.7658 43.4654 84.6551 47.9385C83.794 59.3848 84.6827 71.139 87.8411 77.5982C91.035 84.4706 96.8072 85.7622 104.431 80.4294L106.481 75.993C105.928 76.3868 105.378 76.7639 104.829 77.1099C97.2859 82.0609 91.5618 80.4398 88.3792 73.3472L88.3754 73.3455Z" fill="#99B0BE"/>
<path d="M90.2536 56.4042C88.4301 51.788 87.3967 45.481 87.0068 38.849L86.2309 38.4906C86.3368 47.0698 87.4663 55.4907 89.8735 61.0483C93.0068 68.6591 98.5269 71.2409 105.715 67.596C107.933 66.5469 110.163 65.0521 112.335 63.3098L114.088 59.5162C111.542 61.5865 108.884 63.3431 106.244 64.4632C98.9237 67.8444 93.3438 64.6669 90.2536 56.4042Z" fill="#99B0BE"/>
<path d="M82.0515 70.8165C81.9403 71.6353 81.8383 72.4538 81.7454 73.2721C80.8769 80.6978 80.7368 87.928 81.4304 93.785L83.1725 94.5898C81.4356 88.0615 81.2597 78.3994 82.3899 68.5066C82.2732 69.2688 82.1585 70.0363 82.0515 70.8165Z" fill="#99B0BE"/>
<path d="M74.6655 63.5084C78.3777 66.1432 80.4188 71.18 80.8718 76.8131L81.2249 74.1088C80.7664 68.419 78.6817 63.3981 74.9223 60.8362C70.0613 57.3371 62.4159 58.1603 53.2407 64.0388C48.7189 66.9679 44.3154 70.7676 40.2973 74.7815L41.55 75.3602C45.1881 71.9237 49.1165 68.7115 53.1372 66.1911C62.2607 60.5323 69.857 59.8938 74.6722 63.5115L74.6655 63.5084Z" fill="#99B0BE"/>
<path d="M75.5447 57.7336C79.304 60.2369 81.3893 65.2174 81.8616 70.9361L82.2809 67.6672C81.7816 61.9677 79.6756 57.0812 75.9209 54.6658C70.9405 51.2783 63.0775 52.4744 53.6231 58.9768C47.9785 62.9155 42.4834 68.1768 37.6742 73.57L38.9873 74.1766C43.4236 69.4632 48.3806 64.9453 53.472 61.5085C62.832 55.269 70.6184 54.2584 75.5501 57.7317L75.5447 57.7336Z" fill="#99B0BE"/>
<path d="M74.6254 69.0137C77.9153 71.5435 79.8754 75.9522 80.563 80.8913L80.9009 78.3376C80.2143 73.318 78.2203 68.8845 74.8604 66.4081C70.0919 62.6992 62.5917 63.1296 53.5866 68.4734C50.0381 70.5988 46.5571 73.2738 43.2872 76.168L44.6488 76.797C47.4883 74.4524 50.4683 72.3034 53.4997 70.5524C62.4478 65.4301 69.8989 65.1844 74.6216 69.0119L74.6254 69.0137Z" fill="#99B0BE"/>
<g clip-path="url(#clip0_2191_132775)">
<path d="M62.1786 96.5873L36.1423 36.9145C35.8396 36.2193 35.8255 35.4323 36.1031 34.7262C36.3807 34.0201 36.9273 33.4526 37.6229 33.1485L73.1535 17.6458C73.4984 17.4943 73.8698 17.4122 74.2463 17.4042C74.6229 17.3962 74.9972 17.4625 75.348 17.5993C75.6987 17.736 76.019 17.9405 76.2905 18.2012C76.5619 18.4618 76.7793 18.7734 76.93 19.1181L102.966 78.7908C103.27 79.4866 103.284 80.2745 103.006 80.9814C102.729 81.6883 102.181 82.2561 101.485 82.56L82.9984 90.6259C82.9984 90.6259 80.4362 89.9169 76.8969 91.4612C73.0361 93.1457 71.9037 95.4667 71.9037 95.4667L65.9474 98.0655C65.251 98.3687 64.4628 98.3833 63.7561 98.1061C63.0494 97.8289 62.482 97.2826 62.1786 96.5873V96.5873Z" fill="#00AEEF"/>
</g>
<path d="M75.6086 52.2049C75.9548 52.8431 76.2417 53.5121 76.4651 54.2028C76.8075 55.2112 76.9043 55.8621 76.9492 56.5845C76.9971 57.3004 76.9795 58.0178 76.8967 58.7274L76.8918 58.7668C76.8656 58.9761 76.8461 59.1293 76.8302 59.2041C76.82 59.1992 76.8083 59.1937 76.7947 59.1879C76.7398 59.1639 76.6582 59.1285 76.5338 59.0773C76.3515 59.0026 75.7914 58.6813 75.6285 58.5786C75.3935 58.4318 75.169 58.2678 74.9569 58.0879L74.8525 57.994L74.7888 58.1171C74.7556 58.1908 74.7393 58.2715 74.7412 58.3533C74.7431 58.4351 74.7631 58.5158 74.7998 58.5894C74.8654 58.7341 74.9717 58.8886 75.1917 59.1595C75.4712 59.4927 75.7829 59.7965 76.1218 60.0661C76.1646 60.1007 76.2073 60.1342 76.2473 60.1655C76.4852 60.3516 76.5848 60.4411 76.5428 60.5149C76.5369 60.5246 76.5279 60.5321 76.5174 60.5361C76.4394 60.5701 76.2617 60.5562 76.0418 60.4988C75.8467 60.4482 75.309 60.2783 74.5413 59.8051C73.9669 59.4505 73.4245 59.0433 72.921 58.5888L72.8414 58.5177C72.808 58.5502 72.7777 58.586 72.7511 58.6246C72.7219 58.6643 72.7038 58.7114 72.6986 58.7612C72.694 58.9043 72.7339 59.0463 72.8126 59.1668C73.0131 59.5092 73.4599 59.9712 73.7992 60.2972C74.3727 60.8473 75.218 61.3789 75.8263 61.7278C75.8499 61.7411 75.8765 61.7545 75.9039 61.7686C75.9419 61.7872 75.9791 61.8078 76.0152 61.8302C75.9972 61.88 75.9476 61.9797 75.8881 62.1011L75.7988 62.2808C75.4793 62.9352 75.1 63.5564 74.6658 64.1362C74.3075 64.621 73.556 65.5553 72.9882 66.0151C72.2648 66.1187 71.0689 66.0341 70.47 65.9669C69.7494 65.8915 69.0358 65.7472 68.3386 65.5358L68.141 65.4774C68.0119 65.4391 67.9051 65.4068 67.8585 65.3868C67.8652 65.3604 67.9079 65.2063 67.9143 65.1799C68.0723 64.4981 68.2579 63.5175 68.2442 62.7209C68.236 62.2512 68.2023 61.6107 68.0873 61.2278C68.0522 61.0888 67.9754 60.9635 67.8677 60.8699C67.8183 60.8312 67.7583 60.8095 67.6966 60.8081L67.5922 60.8084L67.5898 60.9149C67.5802 61.5932 67.5096 62.2677 67.379 62.9301C67.2049 63.8134 66.9632 64.3234 66.8672 64.5018C66.7617 64.699 66.6483 64.8421 66.5711 64.8758C66.5629 64.8801 66.5536 64.8819 66.5443 64.8812L66.5248 64.8756C66.4555 64.845 66.4592 64.7088 66.4837 64.4232C66.4878 64.3726 66.4919 64.3202 66.4961 64.266C66.5284 63.8344 66.5175 63.3997 66.4636 62.9684C66.4147 62.6214 66.3737 62.4383 66.3124 62.2926C66.2835 62.2156 66.238 62.1459 66.1792 62.0889C66.1205 62.0319 66.0501 61.989 65.9734 61.9634L65.8399 61.9263L65.8379 62.0667C65.8255 62.3446 65.793 62.6207 65.7407 62.8928C65.7046 63.0831 65.5592 63.7131 65.4906 63.8956C65.4431 64.0218 65.414 64.1064 65.3942 64.1629C65.3893 64.1768 65.3853 64.1884 65.3815 64.1986C65.3142 64.1585 65.1822 64.064 65.0023 63.9345C64.4201 63.51 63.8772 63.0312 63.3807 62.5047C62.8812 61.9803 62.4697 61.4666 61.9641 60.5302C61.6091 59.8962 61.3136 59.2303 61.0816 58.5416C60.8139 57.7297 60.6823 56.9109 60.7103 56.235C60.7495 55.2797 61.0231 54.6045 61.5459 54.1705C61.7299 54.0173 61.9337 53.8904 62.1519 53.7932C62.6273 53.5858 63.077 53.5814 63.4892 53.78C63.6058 53.8396 63.7073 53.9264 63.7855 54.0332C63.8636 54.14 63.9161 54.2637 63.9385 54.3941C63.9788 54.6312 63.8939 54.8333 63.7412 55.0114C63.7137 55.0427 63.6835 55.0713 63.651 55.0969C63.6827 55.1308 63.7186 55.1604 63.7577 55.1849C64.0872 55.419 64.5322 55.4233 65.0429 55.2005C65.1664 55.1463 65.2859 55.0833 65.4005 55.0121C66.0824 54.5904 66.2031 53.9744 65.9252 53.0106C65.8166 52.6345 65.7304 52.3156 65.3469 52.0426C65.0776 51.8512 64.5659 51.892 64.2412 52.0352C63.9508 52.1636 63.8306 52.3087 63.7815 52.4495C63.7711 52.4366 63.7396 52.4207 63.7282 52.4093C63.6357 52.3238 63.5722 52.2105 63.5475 52.0864C63.5131 51.8967 63.5378 51.702 63.618 51.53C63.7359 51.2761 63.9157 51.0583 64.1405 50.8972C64.2802 50.7917 64.4308 50.702 64.5897 50.6294C64.6265 50.6133 64.7497 50.5588 64.8067 50.5393C64.8315 50.5306 64.8305 50.5182 64.8385 50.4883C64.887 50.3094 65.0227 50.1638 65.3308 50.0378C65.5678 49.9408 65.8858 49.8168 66.1674 49.7909C66.3524 49.7714 66.5399 49.7807 66.7234 49.8186C66.947 49.8703 67.1515 49.9894 67.3101 50.1604C67.5694 50.4643 67.7852 50.8039 67.9507 51.1686C68.3346 52.0029 68.6738 52.4636 69.0353 52.6685C69.6185 52.999 69.9784 52.964 70.3703 52.8225L70.4117 52.805C71.1312 52.4911 71.2908 52.1419 71.3299 51.9116C71.3418 51.8509 71.3506 51.7895 71.3563 51.7278C71.3016 51.7408 71.2459 51.7494 71.1897 51.7535C71.0846 51.758 70.9793 51.7361 70.8832 51.6898C70.7871 51.6434 70.7031 51.574 70.6384 51.4876C70.5551 51.382 70.4975 51.258 70.4707 51.1261C70.4438 50.9942 70.4485 50.8583 70.4842 50.7301C70.6471 50.1731 71.1256 49.8846 71.3961 49.7622L71.4267 49.7487C71.6359 49.6566 71.8584 49.5983 72.0865 49.576C72.3699 49.5443 72.6578 49.5661 72.9358 49.6403C73.4434 49.7853 73.8621 50.1028 74.1697 50.3629C74.6747 50.7895 75.2129 51.4781 75.6086 52.2049Z" fill="white"/>
<path d="M120.5 28.2496V106.914C120.5 108.994 118.815 110.682 116.74 110.682H79.7277V24.4788L116.736 24.4788C118.812 24.4788 120.497 26.1669 120.497 28.2464L120.5 28.2496Z" fill="#FFCB05"/>
<path d="M120.717 82.5974H122.97C124.091 82.5974 125 81.669 125 80.5255V54.6686C125 53.5251 124.091 52.5967 122.97 52.5967H120.717C120.597 52.5967 120.5 52.696 120.5 52.8185V82.3757C120.5 82.4981 120.597 82.5974 120.717 82.5974Z" fill="#F3BF26"/>
<defs>
<clipPath id="clip0_2191_132775">
<rect width="44.4941" height="70.8273" fill="white" transform="translate(34.9987 34.2935) rotate(-23.5725)"/>
</clipPath>
</defs>
</svg>
