<svg xmlns="http://www.w3.org/2000/svg" width="22" height="22" viewBox="0 0 22 22">
    <path fill="none" fill-rule="evenodd" stroke="#00395D" d="M15.99 21c-2.682 0-5.883-1.822-9.544-5.44C2.152 11.216.386 7.52 1.19 4.572l.058-.213 3.24-3.24.249-.05c1.31-.264 2.479.255 2.97 1.312l1.162 2.895a2.494 2.494 0 0 1-.562 2.704l-.362.359a.817.817 0 0 0-.117 1.042 16.36 16.36 0 0 0 2.198 2.568 16.478 16.478 0 0 0 2.595 2.226c.32.22.759.169 1.043-.118l.36-.36a2.492 2.492 0 0 1 2.702-.563l2.855 1.143c1.1.51 1.614 1.676 1.353 2.989l-.049.248-3.24 3.24-.214.058a5.43 5.43 0 0 1-1.44.189z"/>
</svg>
