<svg width="96" height="96" viewBox="0 0 96 96" fill="none" xmlns="http://www.w3.org/2000/svg">
<path d="M49.7029 64.9325L25.7625 71.6144L48.8725 58.211L49.7029 64.9325Z" fill="#9F6E56"/>
<path d="M42.178 43.8272C42.0658 44.0382 42.0875 44.0461 41.934 44.2414L34.7849 50.5111L21.6931 61.8193C21.6931 61.8193 21.1618 62.2849 21.1224 62.3244C15.709 67.795 21.0693 71.0384 21.0693 71.0384C21.0693 71.0384 15.9156 69.4364 18.6115 63.3443L18.8339 57.5935L19.5265 47.3921C19.6938 46.2064 20.0638 44.4663 20.5105 43.3576C21.3369 41.3078 23.0312 39.7454 25.4201 39.8815C26.6166 39.9506 27.4903 40.1498 28.4624 40.8936C28.8835 41.2151 29.2416 41.6156 29.521 42.0674C29.6234 42.2331 30.2275 43.2669 30.0799 43.4365L32.2032 40.8304C32.7876 40.0768 33.4645 39.3705 34.1965 38.7609C35.8377 37.3938 38.0889 36.9755 40.1039 38.0566C41.8887 39.0154 42.9277 40.7555 42.605 42.5961C42.5322 43.0163 42.3925 43.4286 42.1819 43.8252L42.178 43.8272Z" fill="#9F6E56"/>
<path d="M40.3223 50.9254C40.3223 43.2057 34.0805 36.9479 26.3804 36.9479C22.3877 36.9479 18.7867 38.6327 16.2462 41.3296C16.1931 41.3848 16.14 41.442 16.0888 41.4992C13.8238 43.985 12.4405 47.2934 12.4405 50.9254C12.4405 58.6451 18.6824 64.9029 26.3824 64.9029C30.0051 64.9029 33.3051 63.516 35.7846 61.2452C35.8416 61.194 35.8967 61.1387 35.9538 61.0874C38.6438 58.5385 40.3243 54.9302 40.3243 50.9274L40.3223 50.9254Z" fill="#FFCB05"/>
<path d="M22.5826 57.1378V51.8428H21.15V49.9528H22.5826V48.7513C22.5826 48.0293 22.7301 47.3368 23.0233 46.6759C23.3185 46.013 23.7849 45.4646 24.4264 45.0326C25.0679 44.6005 25.9042 44.3835 26.9393 44.3835C27.8287 44.3835 28.5726 44.5413 29.1668 44.855C29.7631 45.1706 30.257 45.5435 30.6486 45.9775L28.9209 47.8675C28.6847 47.6189 28.4328 47.4118 28.1652 47.248C27.8976 47.0843 27.567 47.0014 27.1735 47.0014C26.5713 47.0014 26.1502 47.2145 25.9081 47.6406C25.6661 48.0668 25.5441 48.5422 25.5441 49.067V49.9528H29.0389V51.8428H25.5441V54.5199H30.7076V57.1378H22.5806H22.5826Z" fill="#E5B800"/>
<path d="M45.1887 23.872C45.1887 16.1523 38.9468 9.89453 31.2468 9.89453C27.2541 9.89453 23.653 11.5793 21.1126 14.2762C21.0595 14.3314 21.0063 14.3886 20.9552 14.4458C18.6902 16.9316 17.3069 20.24 17.3069 23.872C17.3069 31.5917 23.5487 37.8495 31.2488 37.8495C34.8715 37.8495 38.1715 36.4626 40.651 34.1919C40.708 34.1406 40.7631 34.0853 40.8202 34.034C43.5102 31.4851 45.1907 27.8768 45.1907 23.874L45.1887 23.872Z" fill="#FFCB05"/>
<path d="M27.4489 30.0844V24.7894H26.0164V22.8994H27.4489V21.698C27.4489 20.9759 27.5965 20.2834 27.8897 19.6225C28.1849 18.9597 28.6513 18.4112 29.2928 17.9792C29.9343 17.5471 30.7706 17.3301 31.8057 17.3301C32.6951 17.3301 33.4389 17.4879 34.0332 17.8016C34.6295 18.1173 35.1234 18.4901 35.515 18.9242L33.7872 20.8141C33.5511 20.5656 33.2992 20.3584 33.0316 20.1947C32.764 20.0309 32.4334 19.9481 32.0398 19.9481C31.4377 19.9481 31.0166 20.1611 30.7745 20.5873C30.5325 21.0134 30.4105 21.4888 30.4105 22.0136V22.8994H33.9053V24.7894H30.4105V27.4665H35.574V30.0844H27.447H27.4489Z" fill="#E5B800"/>
<path d="M66.87 41.5387C66.87 33.819 60.6281 27.5612 52.9281 27.5612C48.9354 27.5612 45.3343 29.246 42.7939 31.9428C42.7408 31.9981 42.6876 32.0553 42.6365 32.1125C40.3715 34.5983 38.9882 37.9067 38.9882 41.5387C38.9882 49.2583 45.23 55.5161 52.9301 55.5161C56.5528 55.5161 59.8528 54.1293 62.3323 51.8585C62.3893 51.8072 62.4444 51.752 62.5015 51.7007C65.1915 49.1518 66.872 45.5435 66.872 41.5406L66.87 41.5387Z" fill="#FFCB05"/>
<path d="M49.1302 47.7511V42.456H47.6977V40.5661H49.1302V39.3646C49.1302 38.6426 49.2778 37.9501 49.571 37.2892C49.8662 36.6263 50.3326 36.0779 50.9741 35.6458C51.6156 35.2138 52.4519 34.9968 53.487 34.9968C54.3764 34.9968 55.1202 35.1546 55.7145 35.4683C56.3108 35.7839 56.8047 36.1568 57.1963 36.5908L55.4685 38.4808C55.2324 38.2322 54.9805 38.0251 54.7129 37.8613C54.4453 37.6976 54.1147 37.6147 53.7211 37.6147C53.119 37.6147 52.6979 37.8278 52.4558 38.2539C52.2138 38.68 52.0918 39.1555 52.0918 39.6803V40.5661H55.5866V42.456H52.0918V45.1332H57.2553V47.7511H49.1283H49.1302Z" fill="#E5B800"/>
<path d="M9.719 51.0635C12.2614 53.3224 15.0675 58.5622 16.4863 62.5808C17.053 64.1848 17.3285 65.6427 17.3285 65.6427C17.3285 65.6427 17.5017 65.5243 18.645 65.9228C18.9834 65.0508 19.3337 64.3071 19.6682 63.7862C20.2271 62.9162 22.7144 60.8586 22.7144 60.8586C22.7144 60.8586 34.4347 50.811 39.9327 45.7842C45.2871 40.8876 51.3775 40.8521 51.3775 40.8521L67.2518 39.0746L82.2 27.4665L96 47.7511L77.5867 61.9081L49.7029 83.453C46.8193 85.3563 45.5065 87.1932 40.3243 85.3231C40.3243 85.3231 18.6273 78.0912 17.0963 77.4579C17.0589 77.4422 17.0235 77.4204 16.99 77.3968C16.0278 77.0101 15.0616 76.5938 14.1052 76.146C12.2063 75.2543 10.817 73.2578 9.49073 71.6282C8.12704 69.9553 5.22059 64.7371 4.39411 62.7406C3.13472 59.6946 1.2594 54.9322 0 51.8862C1.49553 48.8283 7.17266 48.8046 9.71506 51.0635H9.719ZM49.7029 64.9325L48.8725 58.211L26.3804 71.2554C26.4139 71.3086 26.4473 71.3599 26.4808 71.4132L49.7029 64.9305L49.7029 64.9325Z" fill="#C78A6B"/>
</svg>
