<svg width="60" height="60" viewBox="0 0 60 60" fill="none" xmlns="http://www.w3.org/2000/svg">
<path d="M29.5 57.9834C45.2401 57.9834 58 45.2235 58 29.4834C58 13.7433 45.2401 0.983398 29.5 0.983398C13.7599 0.983398 1 13.7433 1 29.4834C1 45.2235 13.7599 57.9834 29.5 57.9834Z" fill="#CDF5E8"/>
<path d="M30 0C13.4567 0 0 13.4567 0 30C0 46.5433 13.4567 60 30 60C46.5433 60 60 46.5433 60 30C60 13.4567 46.5375 0 30 0ZM30 56.0008C15.6365 56.0008 3.99922 44.3577 3.99922 30C3.99922 15.6423 15.6365 3.99922 30 3.99922C44.3635 3.99922 56.0008 15.6423 56.0008 30C56.0008 44.3577 44.3577 56.0008 30 56.0008V56.0008Z" fill="#00395D"/>
<path d="M30.0232 10.056H29.9766C29.6541 10.056 29.3896 9.7916 29.3896 9.46902V6.87069C29.3896 6.54811 29.6541 6.28369 29.9766 6.28369C30.3595 6.28369 30.6101 6.56172 30.6101 6.87069V9.46902C30.6101 9.7916 30.3457 10.056 30.0232 10.056Z" fill="#00395D" stroke="#CDF5E8"/>
<path d="M29.3896 50.4727C29.3896 50.1502 29.6541 49.8857 29.9766 49.8857C30.3595 49.8857 30.6101 50.1638 30.6101 50.4727V53.0711C30.6101 53.3937 30.3457 53.6581 30.0232 53.6581H29.9766C29.6541 53.6581 29.3896 53.3937 29.3896 53.0711V50.4727Z" fill="#00395D" stroke="#CDF5E8"/>
<path d="M50.5079 29.3604H53.1062C53.4288 29.3604 53.6932 29.6248 53.6932 29.9473C53.6932 30.3302 53.4152 30.5809 53.1062 30.5809H50.5079C50.1853 30.5809 49.9209 30.3164 49.9209 29.9939V29.9473C49.9209 29.6248 50.1853 29.3604 50.5079 29.3604Z" fill="#00395D" stroke="#CDF5E8"/>
<path d="M9.4993 29.3608C9.82188 29.3608 10.0863 29.6253 10.0863 29.9478C10.0863 30.3307 9.80826 30.5813 9.4993 30.5813H6.90096C6.57839 30.5813 6.31396 30.3169 6.31396 29.9943V29.9478C6.31396 29.6253 6.57838 29.3608 6.90096 29.3608H9.4993Z" fill="#00395D" stroke="#CDF5E8"/>
<path d="M48.0393 20.2219L48.0392 20.2218L48.029 20.2281C47.9489 20.2778 47.8507 20.3041 47.7463 20.3041C47.5466 20.3041 47.3533 20.202 47.2423 20.0172L47.2213 19.9805L47.2214 19.9805L47.218 19.9749C47.0493 19.6883 47.1467 19.3279 47.4231 19.1664L47.4231 19.1664L47.424 19.1659L49.6619 17.8522L49.6619 17.8522L49.6646 17.8506C49.9427 17.685 50.3027 17.7788 50.4652 18.0569L50.4651 18.0569L50.4669 18.0599C50.6636 18.3911 50.5503 18.7462 50.2842 18.9017L50.2842 18.9017L50.283 18.9024L48.0393 20.2219Z" fill="#00395D" stroke="#CDF5E8"/>
<path d="M9.82079 41.255L9.82079 41.255L9.82202 41.2543L11.9484 40.0038H11.9535L12.0704 39.9355C12.35 39.7721 12.712 39.8673 12.8745 40.1455L12.8745 40.1455L12.8775 40.1505C12.9879 40.3345 13.0002 40.4918 12.9631 40.6287L12.963 40.6286L12.9606 40.6381C12.924 40.7847 12.829 40.9116 12.6945 40.9898L12.6945 40.9898L12.6932 40.9906L10.4494 42.3043L10.4494 42.3042L10.4448 42.307C10.3543 42.3613 10.2527 42.3869 10.1498 42.3869C9.9418 42.3869 9.7482 42.2824 9.63819 42.097L9.6383 42.0969L9.63216 42.0871L9.60691 42.0467C9.45036 41.7761 9.54244 41.4177 9.82079 41.255Z" fill="#00395D" stroke="#CDF5E8"/>
<path d="M39.9614 47.2448L39.9614 47.2448L39.9671 47.2415C40.2356 47.0834 40.569 47.1589 40.7428 47.3965L40.776 47.4532L42.0897 49.6912L42.0897 49.6912L42.0913 49.6939C42.2569 49.9719 42.1632 50.3319 41.8851 50.4944L41.885 50.4943L41.8781 50.4985C41.7677 50.5654 41.6487 50.5947 41.5386 50.5947C41.3312 50.5947 41.1443 50.491 41.0399 50.3129L41.0395 50.3123L39.7207 48.0697C39.7206 48.0696 39.7205 48.0694 39.7204 48.0692C39.5554 47.7861 39.6506 47.4272 39.9231 47.2666L39.9614 47.2448Z" fill="#00395D" stroke="#CDF5E8"/>
<path d="M20.0545 13.3233C20.5718 13.0211 20.7462 12.3526 20.4439 11.8353L20.0545 13.3233ZM20.0545 13.3233C19.8568 13.4396 19.6534 13.4977 19.4558 13.4977M20.0545 13.3233L19.4558 13.4977M19.4558 13.4977C19.3686 13.4977 19.2756 13.4861 19.1884 13.4628C18.9093 13.3931 18.671 13.2129 18.5257 12.9629L19.4558 13.4977ZM19.3172 12.9797L19.3172 12.9797L19.3096 12.9778C19.163 12.9411 19.0362 12.8461 18.958 12.7116L18.958 12.7116L18.9572 12.7103L17.6435 10.4666L17.6435 10.4666L17.6416 10.4634C17.476 10.1853 17.5698 9.82532 17.8479 9.66282L17.8543 9.65906L17.8606 9.65511L17.901 9.62986C18.1717 9.47331 18.5301 9.56539 18.6927 9.84374L18.6927 9.84374L18.6934 9.84497L20.0122 12.0875C20.0123 12.0877 20.0124 12.0879 20.0125 12.088C20.1755 12.3676 20.0802 12.7292 19.8022 12.8916L19.8022 12.8916L19.801 12.8924C19.6702 12.9693 19.5533 12.9977 19.4558 12.9977C19.4107 12.9977 19.3611 12.9914 19.3172 12.9797Z" fill="#00395D" stroke="#CDF5E8"/>
<path d="M50.2548 41.1328L50.2552 41.133C50.5334 41.2955 50.6286 41.6575 50.4652 41.9371L50.4651 41.9371L50.4624 41.942C50.3361 42.1639 50.124 42.2707 49.9261 42.2707C49.8241 42.2707 49.7262 42.2454 49.6384 42.194L49.6382 42.1939L47.3944 40.8802L47.394 40.8799C47.1159 40.7174 47.0207 40.3554 47.1841 40.0758L47.1923 40.0617L47.1996 40.0472L47.2144 40.0175C47.3802 39.7485 47.7356 39.6583 48.0113 39.8192C48.0113 39.8192 48.0114 39.8193 48.0114 39.8193L50.2548 41.1328Z" fill="#00395D" stroke="#CDF5E8"/>
<path d="M11.9945 20.181L11.9943 20.1808L9.99793 19.012V19.0051L9.74924 18.8606C9.61701 18.7837 9.51915 18.6572 9.47642 18.5052C9.43886 18.3457 9.46267 18.1903 9.54072 18.056L9.54073 18.056L9.54259 18.0528L9.56477 18.014C9.64172 17.8824 9.76787 17.7851 9.91929 17.7425C10.0786 17.705 10.2338 17.7287 10.3679 17.8065C10.3681 17.8066 10.3683 17.8067 10.3685 17.8068L12.6109 19.1198L12.6109 19.1198L12.6122 19.1205C12.7411 19.1955 12.8374 19.3213 12.8808 19.4816C12.9209 19.6295 12.9 19.7884 12.8211 19.9245C12.6867 20.154 12.4762 20.2576 12.2823 20.2576C12.1803 20.2576 12.0823 20.2324 11.9945 20.181Z" fill="#00395D" stroke="#CDF5E8"/>
<path d="M40.527 13.0824L40.4185 13.019C40.1447 12.859 40.0487 12.4992 40.2139 12.2156L41.5329 9.97862L41.5329 9.97863L41.5344 9.97598C41.6126 9.84148 41.7395 9.7465 41.8861 9.70984L41.8861 9.70993L41.8955 9.70738C42.0357 9.66941 42.1941 9.69004 42.3361 9.77163C42.5246 9.88563 42.6121 10.0191 42.6458 10.154L42.6457 10.154L42.6476 10.161C42.687 10.3095 42.6652 10.4638 42.583 10.6057L41.2644 12.8422L41.2644 12.8422L41.2628 12.8448C41.1846 12.9793 41.0578 13.0743 40.9111 13.1109C40.8539 13.1253 40.8075 13.1309 40.7592 13.1309C40.6814 13.1309 40.6018 13.1145 40.527 13.0824Z" fill="#00395D" stroke="#CDF5E8"/>
<path d="M20.1927 47.3415L20.253 47.3765C20.5323 47.574 20.5918 47.9119 20.4429 48.1676L19.1246 50.4034C19.1245 50.4036 19.1244 50.4038 19.1243 50.4039C19.015 50.5878 18.8165 50.6933 18.613 50.6933C18.5153 50.6933 18.4137 50.6674 18.3079 50.6075C18.3077 50.6074 18.3075 50.6073 18.3073 50.6072L18.27 50.5859C18.1362 50.5076 18.0418 50.3811 18.0053 50.235L18.0053 50.235L18.0035 50.228C17.9641 50.0796 17.9858 49.9253 18.068 49.7833L19.3867 47.5468L19.3867 47.5469L19.3882 47.5442C19.4662 47.41 19.5926 47.3152 19.7387 47.2783C19.8999 47.2392 20.0571 47.2627 20.1927 47.3415Z" fill="#00395D" stroke="#CDF5E8"/>
<path d="M31.7678 28.7738C31.5992 28.5936 31.4074 28.4483 31.1865 28.332V29.1284L31.7678 28.7738Z" fill="#00395D"/>
<path d="M28.6736 30.3021C28.6736 29.994 28.7666 29.715 28.9235 29.4767V28.3955C28.2783 28.7966 27.8481 29.4999 27.8481 30.3137C27.8481 31.1275 28.2492 31.796 28.8596 32.1971L29.2665 31.4763C28.9061 31.2089 28.6678 30.7788 28.6678 30.2963L28.6736 30.3021Z" fill="#00395D"/>
<path d="M31.6289 30.3021C31.6289 31.1159 30.9662 31.7785 30.1525 31.7785C29.9781 31.7785 29.8153 31.7436 29.6584 31.6855L29.2515 32.4063C29.5189 32.5167 29.8153 32.5807 30.1234 32.5807C31.3731 32.5807 32.3904 31.5634 32.3904 30.3137C32.3904 30.087 32.3497 29.8719 32.2858 29.6685L31.6115 30.087C31.6231 30.1567 31.6347 30.2265 31.6347 30.3021H31.6289Z" fill="#00395D"/>
<path d="M30.1339 31.3077H30.1223C30.0467 31.3077 29.9711 31.296 29.8897 31.2786L29.756 31.5227L29.6572 31.6913C29.8142 31.7494 29.9769 31.7843 30.1513 31.7843C30.9651 31.7843 31.6278 31.1216 31.6278 30.3078C31.6278 30.2323 31.6161 30.1625 31.6045 30.0928L31.0814 30.4183C31.0639 30.645 30.9767 30.8543 30.814 31.017C30.6338 31.203 30.3896 31.3077 30.1339 31.3135V31.3077Z" fill="#00395D"/>
<path d="M28.9301 29.4771C28.7732 29.7096 28.6802 29.9944 28.6802 30.3025C28.6802 30.7849 28.9185 31.2151 29.2789 31.4825L29.5056 31.0814C29.2847 30.9012 29.1626 30.6396 29.1568 30.3548C29.1568 30.2967 29.1568 30.2327 29.1743 30.1746C29.0289 29.9828 28.9359 29.7503 28.9359 29.4887V29.4771H28.9301Z" fill="#00395D"/>
<path d="M28.9306 29.494C28.9306 29.7498 29.0236 29.9881 29.1689 30.18C29.2038 29.9881 29.291 29.8138 29.4247 29.6684C29.6049 29.4824 29.849 29.3778 30.1048 29.372C30.2791 29.372 30.4477 29.4185 30.593 29.4999L31.1859 29.1336V18.2985C31.1859 17.6766 30.6744 17.165 30.0524 17.165C29.4305 17.165 28.9189 17.6766 28.9189 18.2985V29.4882L28.9306 29.494Z" fill="#00395D"/>
<path d="M43.5791 21.4899L31.7675 28.7734L31.1862 29.1279L30.5933 29.4942C30.663 29.5348 30.7328 29.5813 30.7909 29.6395C30.9769 29.8197 31.0815 30.0638 31.0874 30.3196C31.0874 30.3486 31.0874 30.3777 31.0815 30.4068L31.6047 30.0812L32.279 29.6627L44.1197 22.3618C44.3638 22.2107 44.4394 21.891 44.2883 21.6468C44.1372 21.4027 43.8174 21.3271 43.5733 21.4783L43.5791 21.4899Z" fill="#00395D"/>
<path d="M29.8789 31.1219C29.9661 31.1509 30.0475 31.1626 30.123 31.1626H30.1347C30.5881 31.1567 30.9543 30.7789 30.9485 30.3255C30.9485 30.1046 30.8555 29.9012 30.6985 29.7442C30.5416 29.5931 30.3381 29.5117 30.123 29.5117H30.1114C29.658 29.5175 29.2918 29.8954 29.2976 30.3488C29.2976 30.6103 29.4255 30.8429 29.6406 30.9998L29.6929 31.0405L29.4953 31.3834L21.6945 45.2296C21.6945 45.2296 21.6828 45.2645 21.6886 45.2819C21.6886 45.2994 21.7061 45.3168 21.7235 45.3284C21.7526 45.3459 21.8049 45.3342 21.8223 45.2994L29.8208 31.1044L29.8789 31.1219V31.1219Z" fill="#00AEEF"/>
<path d="M29.7567 31.517L29.8904 31.2728C29.9718 31.2961 30.0474 31.3019 30.1229 31.3019H30.1346C30.3961 31.3019 30.6345 31.1914 30.8147 31.0054C30.9716 30.8427 31.0646 30.6334 31.0821 30.4067C31.0821 30.3776 31.0879 30.3486 31.0879 30.3195C31.0879 30.0579 30.9774 29.8196 30.7914 29.6394C30.7333 29.5813 30.6635 29.5348 30.5938 29.4941C30.4485 29.4127 30.2799 29.3662 30.1055 29.3662C29.8439 29.3662 29.6056 29.4767 29.4254 29.6627C29.2859 29.808 29.1987 29.9824 29.1696 30.1742C29.158 30.2323 29.1522 30.2905 29.1522 30.3544C29.1522 30.6392 29.2859 30.9008 29.501 31.081L29.2743 31.4821L28.8674 32.2029L21.5665 45.1538C21.5374 45.2062 21.5316 45.2643 21.5432 45.3224C21.5607 45.3805 21.5955 45.427 21.6478 45.4561C21.6827 45.4736 21.7176 45.4852 21.7583 45.4852C21.8339 45.4852 21.9036 45.4445 21.9443 45.3747L29.2452 32.4121L29.6521 31.6913L29.7509 31.5228L29.7567 31.517ZM21.8222 45.2992C21.799 45.334 21.7525 45.3457 21.7234 45.3282C21.706 45.3166 21.6943 45.305 21.6885 45.2817C21.6885 45.2643 21.6885 45.241 21.6943 45.2294L29.4952 31.3833L29.6928 31.0403L29.6405 30.9996C29.4254 30.8427 29.3033 30.6102 29.2975 30.3486C29.2917 29.8952 29.6521 29.5173 30.1113 29.5115H30.1229C30.338 29.5115 30.5415 29.5929 30.6984 29.744C30.8554 29.8952 30.9426 30.1044 30.9484 30.3253C30.9542 30.7787 30.5938 31.1566 30.1346 31.1624H30.1229C30.0474 31.1624 29.966 31.1507 29.8788 31.1217L29.8207 31.1042L21.8222 45.2992V45.2992Z" fill="#00AEEF"/>
</svg>
