<?xml version="1.0" encoding="UTF-8" standalone="no"?>
<svg width="32px" height="32px" viewBox="0 0 32 32" version="1.1" xmlns="http://www.w3.org/2000/svg" xmlns:xlink="http://www.w3.org/1999/xlink" xmlns:sketch="http://www.bohemiancoding.com/sketch/ns">
    <!-- Generator: Sketch 3.3.3 (12081) - http://www.bohemiancoding.com/sketch -->
    <title>Func01_Help_x1</title>
    <desc>Created with Sketch.</desc>
    <defs></defs>
    <g id="Page-1" stroke="none" stroke-width="1" fill="none" fill-rule="evenodd" sketch:type="MSPage">
        <g id="Func01_Help" sketch:type="MSArtboardGroup" fill="#0074A6">
            <g id="Imported-Layers" sketch:type="MSLayerGroup" transform="translate(4.000000, 4.000000)">
                <path d="M12,0 C5.373,0 0,5.373 0,12 C0,18.627 5.373,24 12,24 C18.627,24 24,18.627 24,12 C24,5.373 18.627,0 12,0 L12,0 Z M12,22 C6.486,22 2,17.514 2,12 C2,6.486 6.486,2 12,2 C17.514,2 22,6.486 22,12 C22,17.514 17.514,22 12,22 L12,22 Z" id="Fill-1" sketch:type="MSShapeGroup"></path>
                <path d="M12,16.49 C10,16.49 10,19.027 12,19.027 C14,19.027 14,16.49 12,16.49" id="Fill-2" sketch:type="MSShapeGroup"></path>
                <path d="M15.066,5.936 C12.514,3.825 8.279,5.312 7.768,8.579 L9.824,8.771 C9.972,7.597 10.796,6.693 12.003,6.627 C13.088,6.568 14.12,7.249 14.281,8.368 C14.437,9.46 13.629,10.262 12.895,10.939 C12.449,11.35 11.842,11.73 11.474,12.216 C11.066,12.754 11,13.338 11,13.979 L11,15 L13,15 L13,14.306 C13,13.344 13.164,12.902 13.916,12.231 L14.148,12.057 L15.373,10.866 C16.566,9.446 16.536,7.157 15.066,5.936 C14.703,5.636 15.429,6.238 15.066,5.936" id="Fill-3" sketch:type="MSShapeGroup"></path>
            </g>
        </g>
    </g>
</svg>
