<svg width="96" height="96" viewBox="0 0 96 96" fill="none" xmlns="http://www.w3.org/2000/svg">
<path d="M32.3801 23.522C32.3801 14.9317 39.3842 7.94664 47.9889 7.94664C56.5936 7.94664 63.5976 14.9357 63.5976 23.522V31.3376C65.3496 32.2316 67.0061 33.2686 68.555 34.4288C69.6102 35.2195 70.6136 36.0698 71.5613 36.9717V23.522C71.5613 10.5531 60.9855 0 47.9889 0C34.9922 0 24.4165 10.5531 24.4165 23.522V36.9717C26.7777 34.7387 29.4575 32.8355 32.3801 31.3415V23.522Z" fill="#333333"/>
<path d="M47.9899 92.3082C31.119 92.3082 17.4414 78.6599 17.4414 61.8249C17.4414 47.3263 27.5911 35.1997 41.181 32.1124L37.7885 29.1444C39.9586 28.4649 42.2083 28 44.5138 27.7656C40.1816 28.2027 36.0843 29.4463 32.3812 31.3416C29.4586 32.8356 26.7788 34.7388 24.4176 36.9718C17.8277 43.2059 13.7104 52.0148 13.7104 61.7931C13.7104 80.6862 29.0564 95.9994 47.9899 95.9994C64.9406 95.9994 79.0083 83.7179 81.7677 67.5862L78.4031 64.642C76.9776 80.1538 63.9093 92.3042 47.9899 92.3042V92.3082Z" fill="#E5B800"/>
<path d="M80.8843 52.1489C80.8843 52.1489 80.8763 52.1211 80.8723 52.1052C80.8086 51.8867 80.7409 51.6721 80.6732 51.4576C80.6494 51.3781 80.6215 51.2986 80.5976 51.2192C80.5498 51.0721 80.498 50.9251 80.4463 50.7781C80.3985 50.6351 80.3507 50.492 80.299 50.353C80.2711 50.2695 80.2392 50.1901 80.2074 50.1066C80.1317 49.904 80.06 49.7053 79.9804 49.5027C79.9724 49.4828 79.9645 49.459 79.9565 49.4391C79.0327 47.071 77.8501 44.8221 76.4406 42.7242C76.4127 42.6805 76.3808 42.6408 76.353 42.5971C76.2295 42.4143 76.1061 42.2355 75.9787 42.0567C75.8712 41.9057 75.7637 41.7587 75.6562 41.6117C75.6044 41.5402 75.5566 41.4726 75.5048 41.4011C75.4849 41.3773 75.469 41.3534 75.4531 41.3256C75.3973 41.2541 75.3416 41.1826 75.2858 41.111C75.1505 40.9362 75.0151 40.7574 74.8757 40.5866C74.7642 40.4435 74.6488 40.3045 74.5333 40.1614C74.4497 40.0581 74.3621 39.9548 74.2745 39.8515C73.9838 39.5058 73.6852 39.1641 73.3825 38.8264C73.3706 38.8145 73.3586 38.7986 73.3467 38.7867C73.1595 38.58 72.9684 38.3774 72.7773 38.1748C72.7773 38.1748 72.7733 38.1708 72.7693 38.1668C72.3791 37.7576 71.9769 37.3602 71.5668 36.9708C70.6152 36.0689 69.6117 35.2186 68.5605 34.4279C67.0116 33.2677 65.3552 32.2307 63.6032 31.3367C62.4524 30.7486 61.2579 30.2242 60.0275 29.7632C60.0076 29.7553 59.9877 29.7474 59.9678 29.7394C59.7448 29.656 59.5218 29.5765 59.2988 29.501C59.1873 29.4613 59.0719 29.4215 58.9604 29.3818C58.817 29.3341 58.6697 29.2864 58.5264 29.2388C58.3313 29.1752 58.1322 29.1116 57.9331 29.052C57.8574 29.0282 57.7818 29.0083 57.7061 28.9845C57.4353 28.905 57.1646 28.8255 56.8938 28.754C56.8779 28.7501 56.858 28.7461 56.842 28.7421C55.8546 28.4799 54.8472 28.2574 53.8198 28.0825C53.139 27.9673 52.4581 27.868 51.7772 27.7965C51.7493 27.7965 51.7174 27.7885 51.6896 27.7885C51.3949 27.7567 51.1003 27.7289 50.8056 27.7051C50.722 27.6971 50.6384 27.6931 50.5548 27.6852C50.3119 27.6653 50.069 27.6534 49.8301 27.6375C49.6947 27.6296 49.5633 27.6256 49.4279 27.6177C49.2328 27.6097 49.0337 27.6018 48.8386 27.5978C48.6674 27.5938 48.5001 27.5898 48.3289 27.5898C48.1617 27.5898 47.9905 27.5898 47.8232 27.5898C47.644 27.5898 47.4649 27.5938 47.2857 27.5978C47.1145 27.5978 46.9472 27.6057 46.776 27.6097C46.6207 27.6137 46.4614 27.6216 46.3061 27.6296C46.1071 27.6375 45.912 27.6494 45.7129 27.6614C45.6014 27.6693 45.4939 27.6773 45.3864 27.6852C45.1395 27.7051 44.8926 27.7249 44.6457 27.7488C44.6059 27.7527 44.5621 27.7567 44.5223 27.7607C42.2168 27.9951 39.9671 28.464 37.797 29.1394L41.1895 32.1075C43.3795 31.6108 45.6571 31.3367 47.9984 31.3367C64.8694 31.3367 78.547 44.985 78.547 61.82C78.547 62.7696 78.4992 63.7113 78.4116 64.6371L81.7762 67.5813L81.7882 67.5892C82.708 62.257 82.3337 57.0043 80.8923 52.141L80.8843 52.1489Z" fill="#FEE05A"/>
<path d="M17.4414 61.8249C17.4414 78.6599 31.119 92.3082 47.9899 92.3082C63.9093 92.3082 76.9779 80.1567 78.4034 64.6449C78.487 63.7151 78.5387 62.7774 78.5387 61.8278C78.5387 44.9929 64.8612 31.3445 47.9902 31.3445C45.6489 31.3445 43.3713 31.6147 41.1813 32.1153C27.5874 35.2026 17.4417 47.3292 17.4417 61.8278L17.4414 61.8249ZM47.9902 51.5528C53.6762 51.5528 58.2832 56.1499 58.2832 61.8238C58.2832 67.4977 53.6762 72.0948 47.9902 72.0948C42.3042 72.0948 37.6972 67.4977 37.6972 61.8238C37.6972 56.1499 42.3042 51.5528 47.9902 51.5528Z" fill="#FFCB05"/>
<path d="M47.9902 72.0948C53.6762 72.0948 58.2832 67.4977 58.2832 61.8238C58.2832 56.1499 53.6762 51.5528 47.9902 51.5528C42.3042 51.5528 37.6972 56.1499 37.6972 61.8238C37.6972 67.4977 42.3042 72.0948 47.9902 72.0948ZM40.5074 60.5052C41.2201 56.3809 45.1462 53.6155 49.2754 54.3227C53.4085 55.034 56.1798 58.9517 55.4711 63.072C54.7583 67.1963 50.8322 69.9617 46.7031 69.2545C42.57 68.5432 39.7986 64.6256 40.5074 60.5052Z" fill="#515151"/>
<path d="M46.7035 69.2578C50.8367 69.969 54.7627 67.1996 55.4715 63.0753C56.1842 58.951 53.4089 55.0333 49.2758 54.326C45.1427 53.6148 41.2166 56.3842 40.5078 60.5085C39.7951 64.6328 42.5704 68.5505 46.7035 69.2578Z" fill="#333333"/>
</svg>
