<svg width="96" height="96" viewBox="0 0 96 96" fill="none" xmlns="http://www.w3.org/2000/svg">
<path d="M81.4183 5.93262H14.5817C13.7081 5.93262 13 6.66555 13 7.56966V93.2786C13 94.1827 13.7081 94.9157 14.5817 94.9157H81.4183C82.2919 94.9157 83 94.1827 83 93.2786V7.56966C83 6.66555 82.2919 5.93262 81.4183 5.93262Z" fill="#001276"/>
<path d="M17.6133 10.6758L17.6133 88.9758L76.2664 89.258L76.2687 10.9575L17.6133 10.6758Z" fill="#E2E2E2"/>
<path d="M79.3454 9.60412L20.2422 10.0937L20.2422 85.9832H79.3454L79.3454 9.49512V9.60412Z" fill="white"/>
<path d="M27.2383 42.3418C27.2383 41.2372 28.1337 40.3418 29.2383 40.3418H53.7129C54.8174 40.3418 55.7129 41.2372 55.7129 42.3418V43.0876C55.7129 44.1921 54.8174 45.0876 53.7129 45.0876H29.2383C28.1337 45.0876 27.2383 44.1921 27.2383 43.0876V42.3418Z" fill="#E2E2E2"/>
<path d="M27.2383 53.0195C27.2383 51.915 28.1337 51.0195 29.2383 51.0195H39.4756C40.5801 51.0195 41.4756 51.915 41.4756 53.0195V53.7653C41.4756 54.8699 40.5801 55.7653 39.4756 55.7653H29.2383C28.1337 55.7653 27.2383 54.8699 27.2383 53.7653V53.0195Z" fill="#E2E2E2"/>
<path d="M27.2383 31.6641C27.2383 30.5595 28.1337 29.6641 29.2383 29.6641H48.9671C50.0717 29.6641 50.9671 30.5595 50.9671 31.6641V32.4098C50.9671 33.5144 50.0717 34.4098 48.9671 34.4098H29.2383C28.1337 34.4098 27.2383 33.5144 27.2383 32.4098V31.6641Z" fill="#E2E2E2"/>
<path d="M68.7637 27.2914L64.0179 31.4395L62.2383 30.8507L64.0179 33.8168L68.7637 27.2891V27.2914Z" fill="#006666"/>
<path d="M68.7637 37.972L64.0179 42.1201L62.2383 41.5314L64.0179 44.4975L68.7637 37.9697V37.972Z" fill="#006666"/>
<path d="M56.9831 5.93219C56.9831 5.93219 55.6108 0 48.7102 0C41.6471 0 40.5299 5.78689 40.4896 5.93219C40.4896 5.93219 24.8633 8.42096 24.8633 11.3123V13.0375C24.8633 13.0375 24.8691 13.0508 24.8769 13.0508H72.3073C72.3073 13.0508 72.3209 13.0451 72.3209 13.0375V11.3123C72.3209 8.42096 56.9831 5.93219 56.9831 5.93219Z" fill="#00AEEF"/>
<path d="M24.8638 13.0508V11.2705C24.8638 11.2705 24.6674 8.96124 32.2829 7.44672C39.8983 5.9322 40.4773 5.9322 40.4773 5.9322C40.4773 5.9322 35.2671 7.11882 32.6914 8.58302C30.1158 10.0472 29.4236 11.6128 29.4236 11.6128H72.3209V13.0508H24.8638Z" fill="#3F95D7"/>
</svg>
