<svg width="60" height="51" viewBox="0 0 60 51" fill="none" xmlns="http://www.w3.org/2000/svg">
<path d="M20.458 2.29916V6.35347C20.458 6.71216 20.7504 7.00293 21.1111 7.00293H21.5837C21.9444 7.00293 22.2368 6.71216 22.2368 6.35347V2.29916C22.2368 1.94047 21.9444 1.6497 21.5837 1.6497H21.1111C20.7504 1.6497 20.458 1.94047 20.458 2.29916Z" fill="#515151"/>
<path d="M38.8633 2.29916V6.35347C38.8633 6.71216 39.1557 7.00293 39.5164 7.00293H39.989C40.3496 7.00293 40.642 6.71216 40.642 6.35347V2.29916C40.642 1.94048 40.3496 1.64971 39.989 1.64971H39.5164C39.1557 1.64971 38.8633 1.94048 38.8633 2.29916Z" fill="#515151"/>
<path d="M39.3471 3.34286C39.3471 3.34286 35.4176 2.85646 30.4313 2.85783C25.3458 2.8592 21.5747 3.34286 21.5747 3.34286C20.7838 3.34286 20.1445 2.70574 20.1445 1.92064C20.1445 1.13416 20.7852 0.498406 21.5747 0.498406C21.5747 0.498406 24.8718 -0.0263662 30.1626 0.00103705C35.2591 0.0284403 39.3471 0.498406 39.3471 0.498406C40.138 0.498406 40.7773 1.13553 40.7773 1.92064C40.7773 2.70711 40.1366 3.34286 39.3471 3.34286V3.34286Z" fill="#007481"/>
<path d="M1.86733 26.5943H58.1313V46.0864C58.1313 48.7884 55.9525 50.9834 53.2675 50.9834H6.73115C4.04747 50.9834 1.86733 48.7898 1.86733 46.0864V26.5943Z" fill="#004750"/>
<path d="M0 4.9834H60V22.8989C60 25.6009 57.8212 27.7959 55.1362 27.7959H4.86383C2.18015 27.7959 0 25.6023 0 22.8989V4.9834Z" fill="#004750"/>
<path d="M0 4.9834H60V21.8887C60 24.6316 57.8212 26.8599 55.1362 26.8599L34.5 32.9834H25.875L4.86383 26.8599C2.18015 26.8599 0 24.633 0 21.8887V4.9834Z" fill="#007481"/>
<path d="M31.1554 27.9834H29.8446C27.9895 27.9834 27.6222 30.3015 27.6222 31.2456L26 36.2628C26 37.2069 26.7263 37.9723 27.6222 37.9723H33.3778C34.2737 37.9723 35 37.2069 35 36.2628L33.3778 31.2456C33.3778 30.3015 33.1752 27.9834 31.1554 27.9834Z" fill="#004750"/>
<path d="M33.3778 31.2456H27.6222C26.7263 31.2456 26 32.011 26 32.9551V37.2739C26 38.218 26.7263 38.9834 27.6222 38.9834H33.3778C34.2737 38.9834 35 38.218 35 37.2739V32.9551C35 32.011 34.2737 31.2456 33.3778 31.2456Z" fill="#CDF5E8"/>
</svg>
