<svg width="68" height="60" viewBox="0 0 68 60" fill="none" xmlns="http://www.w3.org/2000/svg">
<path d="M57.5119 47.7527C54.1997 45.2741 50.6603 39.491 48.0976 33.4017C46.4686 31.347 44.5132 30.0504 42.4435 29.9534C40.1675 29.7894 37.7953 31.0929 35.5633 33.8591C35.426 33.2802 35.2501 32.7382 35.0378 32.2331C36.7302 30.0994 38.5072 28.8225 40.26 28.4021L35.9039 28.5799C35.3051 29.1582 34.713 29.84 34.1323 30.6273C33.8068 30.1904 33.4386 29.8071 33.0255 29.4822C33.2128 29.2012 33.4006 28.9343 33.5888 28.6744L6.00391 29.8003L7.22894 59.8147L25.2488 59.0792C25.3793 58.9725 25.5097 58.8635 25.64 58.7521C25.6301 58.8562 25.6178 58.9604 25.6078 59.0645L26.3402 59.0347C26.3807 58.6936 26.4258 58.35 26.4707 58.0017C26.7282 57.7579 26.9831 57.5094 27.2351 57.2493C27.1433 57.8423 27.0538 58.4304 26.9732 59.0065L27.7315 58.9755C27.8785 58.055 28.0414 57.1198 28.2228 56.172C28.571 55.7736 28.9137 55.3589 29.2487 54.9281C28.9325 56.2844 28.6539 57.6321 28.4095 58.9478L29.2221 58.9147C29.6467 56.9105 30.1566 54.851 30.7598 52.8183C31.3502 51.9198 31.9127 50.9753 32.4375 49.9781C33.8781 47.2419 34.8678 44.4746 35.4194 41.8713C38.1832 37.5232 41.283 35.4947 44.2051 35.7784C46.6755 35.9533 48.9738 37.7663 50.728 40.4522L51.3646 42.1939C49.6204 39.4627 47.3075 37.5821 44.8089 37.3541C41.3494 36.9461 37.6228 39.7356 34.4893 45.751C32.4801 49.6888 30.978 54.3956 29.9308 58.8857L30.7741 58.8513C31.8238 54.8277 33.2571 50.6942 35.1113 47.1939C38.2461 41.3835 41.9559 38.7055 45.3975 39.1354C47.9538 39.387 50.3145 41.3364 52.0657 44.1238L52.7088 45.9077C50.9662 43.101 48.5917 41.1003 46.0098 40.805C42.5732 40.3207 38.8538 42.8813 35.696 48.5323C33.9932 51.6281 32.6382 55.2423 31.6034 58.8198L32.4302 58.7861C33.4343 55.6741 34.6944 52.5752 36.2388 49.889C39.3944 44.4737 43.0932 42.046 46.5003 42.5598C49.0999 42.885 51.4825 44.9089 53.2103 47.702L53.7391 49.1794C52.029 46.4139 49.6623 44.3728 47.07 43.9954C43.6552 43.4089 39.9355 45.729 36.7463 51.0184C35.349 53.364 34.1803 56.0372 33.2192 58.7539L34.3248 58.7088C35.2397 56.3687 36.3178 54.0857 37.5794 52.0662C40.7883 46.9693 44.5133 44.7786 47.9306 45.4263C50.3008 45.8127 52.4851 47.5596 54.1539 49.9497L54.651 51.3459C53.0052 48.9972 50.8446 47.2518 48.4939 46.8221C45.0713 46.1016 41.3205 48.1826 38.0829 53.1534C36.9876 54.8432 36.0258 56.7279 35.1894 58.6735L36.2478 58.6303C36.97 57.1372 37.7726 55.6974 38.6631 54.3836C41.9043 49.6153 45.6383 47.6457 49.0429 48.3883C51.3849 48.8371 53.533 50.5642 55.1744 52.8636C55.0967 52.5839 55.0189 52.3019 54.9437 52.0245C54.8025 51.6367 54.6634 51.244 54.5291 50.8512C54.3922 50.4537 54.2624 50.0584 54.1352 49.6653C55.2064 52.6053 56.4456 55.3712 57.7496 57.7527L58.482 57.7228C56.5898 54.9034 54.7644 51.1668 53.2606 47.1367C53.0934 46.6933 52.9309 46.2474 52.773 45.799C52.623 45.3715 52.478 44.9484 52.3401 44.5275C54.3597 49.8894 56.9829 54.7931 59.5852 57.6778L62.0136 57.5786C61.6453 57.424 61.2726 57.22 60.8953 56.962C57.596 54.8011 53.9983 48.688 51.4157 41.9396C51.2465 41.5034 51.0819 41.0647 50.922 40.6258C50.8765 40.498 50.8336 40.3725 50.7881 40.2447C50.4634 39.5344 50.1545 38.8093 49.8526 38.0792L49.9563 38.3578C48.2907 35.8709 46.1631 34.183 43.8764 33.9275C41.2442 33.5589 38.4512 35.1035 35.8886 38.5832C35.9474 37.7063 35.9486 36.8649 35.8923 36.0659C38.2087 33.1053 40.6933 31.7147 43.0671 31.8983C45.1893 32.0073 47.1921 33.3633 48.8404 35.4832C48.7631 35.2718 48.6858 35.0582 48.611 34.8491C48.7058 35.0856 48.8007 35.3222 48.8978 35.5562C48.9104 35.5746 48.9252 35.5905 48.9402 35.6087L49.0997 36.0382C51.6437 42.133 55.1052 47.8062 58.3375 50.1843C61.4815 52.5991 64.4967 51.9174 66.8756 47.8796L66.752 44.8513C64.2476 49.5825 60.9531 50.4358 57.5143 47.755L57.5119 47.7527ZM14.3507 55.7389C13.1695 55.7871 12.1742 54.8802 12.1264 53.7108C12.0787 52.5414 12.9968 51.5564 14.178 51.5082C15.3592 51.46 16.3546 52.3692 16.4022 53.5363C16.4499 54.7033 15.5318 55.6906 14.3507 55.7389ZM19.6721 44.31L12.3418 44.6092L12.1498 39.9056L10.8553 39.9584L10.7867 38.2784L12.0812 38.2256L12.0375 37.155C12.0113 36.5126 12.1208 35.8906 12.3614 35.2916C12.602 34.6926 13.0048 34.1859 13.5679 33.7764C14.1309 33.3669 14.8813 33.143 15.8121 33.105C16.6153 33.0722 17.2918 33.1837 17.8396 33.4441C18.3874 33.7046 18.8474 34.0181 19.2174 34.3872L17.7268 36.1309C17.5051 35.916 17.2685 35.7442 17.024 35.608C16.7795 35.4719 16.4765 35.4112 16.1197 35.4257C15.5764 35.4479 15.2038 35.6517 15.002 36.0417C14.7978 36.4319 14.7064 36.8575 14.7254 37.3234L14.7576 38.1116L17.9089 37.983L17.9775 39.663L14.8261 39.7916L14.9233 42.1728L19.5842 41.9826L19.6793 44.312L19.6721 44.31Z" fill="#DDDDC0"/>
<path d="M47.1788 58.1845L52.6405 57.9616C50.8932 57.4154 49.0338 57.4866 47.1788 58.1845Z" fill="#DDDDC0"/>
<path d="M50.715 52.6452C47.3178 51.7351 43.5557 53.364 40.2522 57.6493C40.0409 57.9219 39.8348 58.2061 39.6335 58.4924L41.0485 58.4347C44.2936 54.5736 47.9387 53.1498 51.2343 54.0617C53.2782 54.5722 55.1626 55.9825 56.6777 57.7968L56.7225 57.7949C56.5781 57.386 56.4358 56.9723 56.2981 56.556C54.7573 54.6344 52.8203 53.1509 50.7127 52.6453L50.715 52.6452Z" fill="#DDDDC0"/>
<path d="M59.1322 52.3794C56.3763 50.4272 53.4447 45.9674 51.0505 40.8187C53.5817 47.006 56.9628 52.5645 60.0957 54.7087C62.6259 56.5216 65.0519 56.1303 67.0968 53.4166L66.9769 50.4777C64.7443 53.9274 61.9991 54.499 59.1298 52.3771L59.1322 52.3794Z" fill="#DDDDC0"/>
<path d="M54.2129 38.745C51.522 36.5309 48.7363 32.5154 46.4285 28.1504L46.1781 28.1606C48.6551 33.4237 51.9135 38.4688 55.024 40.9934C58.6018 44.0079 62.0703 43.7084 64.7475 39.6726C65.3625 38.7967 65.9155 37.7936 66.4181 36.7172L66.3076 34.009C65.6528 35.4734 64.9033 36.8215 64.0427 37.9408C61.3184 41.6933 57.8168 41.8198 54.2129 38.745Z" fill="#DDDDC0"/>
<path d="M42.6073 58.3707L44.6531 58.2872C47.1656 56.5938 49.7679 56.1175 52.1729 56.8348C52.9889 57.0561 53.7775 57.4198 54.5276 57.8842L55.7466 57.8344C54.5988 56.7877 53.3091 55.973 51.9389 55.5646C48.9626 54.5901 45.6629 55.4908 42.6097 58.3706L42.6073 58.3707Z" fill="#DDDDC0"/>
<path d="M59.5962 27.6129L53.2132 27.8734C55.497 28.8691 57.6817 28.8271 59.5962 27.6129Z" fill="#DDDDC0"/>
<path d="M55.814 43.0399C52.5208 40.4474 49.0381 34.8929 46.4974 29.1681C46.1917 28.8105 45.8731 28.4841 45.5463 28.1864L42.4918 28.311C44.2206 28.5775 45.8579 29.6773 47.2681 31.3545C47.2678 31.3474 47.2628 31.3405 47.2601 31.3336C47.1118 30.946 46.9707 30.5629 46.8347 30.1866C47.016 30.627 47.2043 31.0672 47.3949 31.5048C47.4024 31.514 47.4098 31.5231 47.4173 31.5322L47.4757 31.6877C50.0088 37.4577 53.4368 42.946 56.6689 45.4349C60.1597 48.2315 63.516 47.5595 66.079 43.0452C66.2694 42.7239 66.4544 42.3864 66.6319 42.0398L66.513 39.1268C66.1527 39.8651 65.767 40.5596 65.3528 41.1964C62.7384 45.4347 59.3366 45.92 55.8116 43.04L55.814 43.0399Z" fill="#DDDDC0"/>
<path d="M62.7886 34.5486C59.9519 37.8061 56.3536 37.5923 52.6816 34.3577C50.9117 32.8508 49.1105 30.6358 47.4338 28.1093L46.9211 28.1303C48.861 31.4238 51.0451 34.3821 53.1902 36.2672C56.9407 39.6872 60.6316 39.85 63.4924 36.1979C64.5505 34.9315 65.4483 33.3323 66.2108 31.6065L66.1082 29.0912C65.2201 31.1615 64.1281 33.1033 62.791 34.5485L62.7886 34.5486Z" fill="#DDDDC0"/>
<path d="M60.8774 30.2451C61.829 29.5016 62.6627 28.5342 63.402 27.4576L61.6727 27.5282C61.2116 27.9995 60.7252 28.4295 60.1978 28.7857C57.6058 30.6756 54.4902 30.289 51.2856 27.9521L49.8304 28.0115C49.9881 28.1653 50.1456 28.3145 50.3052 28.4564C54.0983 31.9925 57.8613 32.7605 60.8749 30.2429L60.8774 30.2451Z" fill="#DDDDC0"/>
<path d="M50.1783 51.3751C52.3512 51.8544 54.3518 53.3895 55.9271 55.404C55.7884 54.9619 55.6521 54.522 55.523 54.0842C53.9189 51.9436 51.8557 50.3238 49.6123 49.8568C46.2102 49.0576 42.4667 50.912 39.2047 55.5185C38.5246 56.4796 37.8995 57.5139 37.3162 58.5865L38.5257 58.5371C38.9232 57.8987 39.3381 57.2784 39.7754 56.6878C43.0475 52.2718 46.7862 50.533 50.1782 51.3727L50.1783 51.3751Z" fill="#DDDDC0"/>
<path d="M65.5187 57.4356L67.2621 57.3644L67.2069 56.0114C66.6648 56.644 66.0995 57.1149 65.5187 57.4356Z" fill="#DDDDC0"/>
<path d="M51.9041 32.4709C55.6287 35.8354 59.2986 36.2371 62.2007 33.1914C63.7203 31.6941 64.9329 29.5752 65.8953 27.3558L64.7047 27.4044C63.8227 29.0431 62.7746 30.5542 61.5181 31.6567C58.5691 34.4238 54.8637 33.8468 51.1153 30.4197C50.3493 29.7415 49.5784 28.941 48.818 28.0528L47.9983 28.0863C49.2731 29.8113 50.5962 31.327 51.9065 32.4708L51.9041 32.4709Z" fill="#DDDDC0"/>
<path d="M14.8215 39.7895L17.9729 39.6609L17.9043 37.9809L14.753 38.1095L14.7208 37.3213C14.7017 36.853 14.7932 36.4274 14.9974 36.0396C15.2015 35.6495 15.5742 35.4457 16.1152 35.4236C16.4719 35.4091 16.7749 35.4698 17.0194 35.6059C17.264 35.7421 17.5005 35.9139 17.7222 36.1287L19.2128 34.3851C18.8452 34.0159 18.3828 33.7025 17.835 33.442C17.2872 33.1815 16.613 33.07 15.8075 33.1029C14.8767 33.1409 14.1263 33.3648 13.5633 33.7743C13.0002 34.1838 12.5974 34.6904 12.3568 35.2895C12.1162 35.8885 12.0068 36.5129 12.0329 37.1529L12.0766 38.2235L10.7821 38.2763L10.8507 39.9563L12.1452 39.9035L12.3372 44.607L19.6698 44.3078L19.5748 41.9783L14.9139 42.1686L14.8167 39.7874L14.8215 39.7895Z" fill="#001276"/>
<path d="M14.1771 51.5084C12.996 51.5566 12.0779 52.5439 12.1256 53.711C12.1732 54.878 13.1686 55.7872 14.3498 55.739C15.531 55.6908 16.4491 54.7059 16.4014 53.5364C16.3536 52.367 15.3583 51.4602 14.1771 51.5084Z" fill="#001276"/>
<path d="M54.5277 50.851C54.6621 51.2462 54.8034 51.6364 54.9423 52.0243C55.0152 52.3018 55.0928 52.5814 55.173 52.8633C53.5316 50.564 51.3811 48.837 49.0415 48.3881C45.6369 47.6455 41.9029 49.6151 38.6617 54.3834C37.7712 55.6972 36.971 57.1369 36.2463 58.6301L37.3162 58.5865C37.8995 57.5139 38.5246 56.4796 39.2047 55.5185C42.4667 50.912 46.2102 49.0576 49.6123 49.8568C51.8557 50.3238 53.9189 51.9436 55.523 54.0842C55.6521 54.522 55.786 54.962 55.9271 55.404C54.3518 53.3895 52.3512 51.8544 50.1783 51.3751C46.7887 50.5353 43.0502 52.274 39.7757 56.6901C39.3383 57.2783 38.9235 57.8986 38.5261 58.5394L39.634 58.4942C39.8353 58.2078 40.0414 57.9237 40.2527 57.6511C43.5562 53.3658 47.3207 51.7367 50.7156 52.647C52.821 53.155 54.7602 54.6361 56.301 56.5577C56.4387 56.9739 56.581 57.3877 56.7254 57.7966L57.7483 57.7548C56.4443 55.3734 55.2074 52.605 54.1339 49.6674C54.2611 50.0605 54.3909 50.4583 54.5278 50.8533L54.5277 50.851Z" fill="#99B0BE"/>
<path d="M34.1346 30.6272C34.7154 29.8422 35.3074 29.1581 35.9061 28.5798L33.5911 28.6743C33.4029 28.9342 33.2126 29.1989 33.0277 29.4822C33.4409 29.807 33.8091 30.1903 34.1346 30.6272Z" fill="#99B0BE"/>
<path d="M25.2494 59.0797L25.6085 59.065C25.6185 58.9609 25.6308 58.8567 25.6407 58.7526C25.5104 58.864 25.38 58.973 25.2494 59.0797Z" fill="#99B0BE"/>
<path d="M26.4691 58.0039C26.4241 58.3522 26.3814 58.6957 26.3385 59.0368L26.974 59.0109C27.0545 58.4325 27.1417 57.8444 27.2359 57.2537C26.9839 57.5138 26.7266 57.7624 26.4715 58.0061L26.4691 58.0039Z" fill="#99B0BE"/>
<path d="M52.6837 34.3576C56.3556 37.5899 59.9566 37.8059 62.791 34.5485C64.1281 33.1033 65.2201 31.1615 66.1082 29.0912L66.0368 27.35L65.8953 27.3558C64.9329 29.5752 63.7203 31.6941 62.2007 33.1914C59.2986 36.2371 55.6311 35.8353 51.9041 32.4709C50.5939 31.3271 49.273 29.8114 47.9958 28.0864L47.4312 28.1094C49.1078 30.6359 50.9091 32.8509 52.679 34.3578L52.6837 34.3576Z" fill="#99B0BE"/>
<path d="M58.3352 50.1845C55.1028 47.8063 51.6437 42.1331 49.0973 36.0384L48.9378 35.6089C48.9252 35.5906 48.9103 35.5747 48.8954 35.5564C48.7982 35.32 48.7035 35.0858 48.6086 34.8493C48.6834 35.0584 48.7607 35.272 48.838 35.4834C47.1896 33.3611 45.187 32.0075 43.0647 31.8985C40.691 31.7149 38.2063 33.1055 35.8899 36.066C35.9463 36.8674 35.9451 37.7089 35.8862 38.5833C38.4512 35.1036 41.2418 33.5591 43.874 33.9277C46.1584 34.1833 48.2859 35.8712 49.9539 38.358L49.8502 38.0794C50.1521 38.8095 50.461 39.5346 50.7857 40.2449C50.8312 40.3727 50.8742 40.4982 50.9196 40.626C51.0795 41.0649 51.2442 41.506 51.4133 41.9398C53.9983 48.6881 57.5936 54.8012 60.8929 56.9622C61.2678 57.2203 61.6405 57.4243 62.0112 57.5788L65.5169 57.4357C66.1002 57.1173 66.6655 56.6464 67.2051 56.0116L67.0993 53.4187C65.052 56.1325 62.6284 56.5237 60.0982 54.7108C56.9629 52.5667 53.5818 47.0082 51.053 40.8208C53.4472 45.9695 56.3788 50.4293 59.1347 52.3815C62.004 54.5034 64.7492 53.9317 66.9818 50.4821L66.8756 47.8796C64.4968 51.9198 61.4815 52.5991 58.3375 50.1843L58.3352 50.1845Z" fill="#99B0BE"/>
<path d="M28.2236 56.1746C28.0446 57.1223 27.8794 58.06 27.7323 58.9781L28.4103 58.9504C28.6546 57.6324 28.9333 56.2847 29.2495 54.9307C28.9122 55.3616 28.5718 55.7762 28.2236 56.1746Z" fill="#99B0BE"/>
<path d="M44.6531 58.2872L47.1788 58.1845C49.0338 57.4866 50.8908 57.4155 52.6405 57.9616L54.5276 57.8842C53.7775 57.4198 52.9889 57.0561 52.1729 56.8348C49.7679 56.1175 47.1656 56.5938 44.6531 58.2872Z" fill="#99B0BE"/>
<path d="M51.2366 54.0612C47.941 53.1492 44.2959 54.5731 41.0508 58.4341L42.6073 58.3707C45.6582 55.491 48.9582 54.5902 51.9368 55.5645C53.3094 55.9752 54.5967 56.7876 55.7445 57.8344L56.68 57.7962C55.1649 55.9819 53.2806 54.5717 51.2366 54.0612Z" fill="#99B0BE"/>
<path d="M60.1978 28.7857C60.7227 28.4272 61.2115 27.9972 61.6727 27.5282L59.5962 27.6129C57.6817 28.8271 55.497 28.8691 53.2132 27.8734L51.2873 27.952C54.492 30.2889 57.6076 30.6755 60.1996 28.7856L60.1978 28.7857Z" fill="#99B0BE"/>
<path d="M55.024 40.9934C51.9135 38.4688 48.6551 33.4237 46.1781 28.1606L45.5478 28.1863C45.8746 28.4841 46.1908 28.8106 46.4989 29.168C49.0396 34.8929 52.5224 40.4497 55.8155 43.0398C59.3404 45.9198 62.7423 45.4369 65.3567 41.1962C65.7709 40.5618 66.1566 39.8649 66.5169 39.1266L66.4184 36.7149C65.9158 37.7913 65.3628 38.7943 64.7478 39.6702C62.0707 43.7061 58.6021 44.0055 55.0243 40.991L55.024 40.9934Z" fill="#99B0BE"/>
<path d="M44.8023 37.3567C47.301 37.5847 49.6163 39.4676 51.358 42.1965L50.7214 40.4548C48.9696 37.7688 46.6689 35.9559 44.1985 35.781C41.2764 35.4973 38.1766 37.5258 35.4128 41.8739C34.8613 44.4772 33.8715 47.2445 32.4309 49.9807C31.906 50.9755 31.3436 51.9224 30.7532 52.8209C30.1499 54.8512 29.64 56.9107 29.2155 58.9173L29.9195 58.8885C30.9667 54.3984 32.4688 49.6916 34.478 45.7538C37.609 39.7361 41.3357 36.949 44.7976 37.3569L44.8023 37.3567Z" fill="#99B0BE"/>
<path d="M61.5181 31.6567C62.7745 30.5519 63.8226 29.0407 64.7047 27.4044L63.402 27.4576C62.6626 28.5319 61.829 29.5016 60.8774 30.2451C57.8637 32.7627 54.1 31.9924 50.307 28.4587C50.1497 28.3167 49.9921 28.1652 49.8321 28.0138L48.8163 28.0553C49.579 28.9433 50.3476 29.7439 51.1135 30.4221C54.862 33.8492 58.5674 34.4262 61.5164 31.6591L61.5181 31.6567Z" fill="#99B0BE"/>
<path d="M56.6714 45.4348C53.4392 42.9459 50.0113 37.4576 47.4782 31.6876L47.4198 31.5321C47.4198 31.5321 47.4048 31.5139 47.3973 31.5047C47.2044 31.0672 47.0184 30.6269 46.8372 30.1865C46.9732 30.5628 47.1143 30.9459 47.2626 31.3335C47.2652 31.3404 47.2679 31.3474 47.2705 31.3543C45.858 29.6773 44.223 28.5774 42.4942 28.3109L40.2618 28.4021C38.5091 28.8248 36.732 30.0993 35.0397 32.233C35.252 32.7381 35.4279 33.2801 35.5651 33.859C37.7972 31.0929 40.1695 29.7917 42.4453 29.9533C44.5126 30.0481 46.4703 31.3446 48.0995 33.4016C50.6621 39.4886 54.2015 45.274 57.5137 47.7526C60.9525 50.4335 64.247 49.5801 66.7514 44.849L66.6367 42.0396C66.4568 42.3863 66.2742 42.7237 66.0838 43.045C63.5209 47.5593 60.1645 48.2313 56.6737 45.4347L56.6714 45.4348Z" fill="#99B0BE"/>
<path d="M53.1876 36.2673C51.0425 34.3822 48.8584 31.4239 46.9185 28.1304L46.4272 28.1504C48.7326 32.5155 51.5207 36.531 54.2116 38.7451C57.8131 41.8199 61.3171 41.6934 64.0413 37.9408C64.9019 36.8215 65.6513 35.4711 66.3063 34.009L66.2082 31.6067C65.4482 33.3346 64.5479 34.9316 63.4898 36.198C60.629 39.8501 56.9381 39.6873 53.1876 36.2673Z" fill="#99B0BE"/>
<path d="M52.7696 45.7993C52.9276 46.2478 53.0901 46.6936 53.2573 47.137C54.7611 51.1672 56.5866 54.9061 58.4786 57.7231L59.5819 57.6781C56.9795 54.7911 54.354 49.8898 52.3368 44.5278C52.477 44.9486 52.6197 45.3718 52.7696 45.7993Z" fill="#99B0BE"/>
<path d="M47.07 43.9954C49.6622 44.3704 52.029 46.4139 53.7391 49.1794L53.2103 47.702C51.4825 44.9089 49.0975 42.8851 46.5003 42.5598C43.0931 42.0436 39.3943 44.4713 36.2388 49.889C34.6921 52.5753 33.4344 55.6764 32.4302 58.7861L33.2235 58.7537C34.1846 56.0394 35.3532 53.3638 36.7506 51.0182C39.9373 45.7266 43.6594 43.4063 47.0742 43.9952L47.07 43.9954Z" fill="#99B0BE"/>
<path d="M46.0049 40.8078C48.5867 41.1031 50.9613 43.1061 52.7038 45.9104L52.0607 44.1266C50.3095 41.3392 47.9488 39.3897 45.3925 39.1382C41.9534 38.7105 38.2411 41.3863 35.1063 47.1967C33.2496 50.6946 31.8165 54.8305 30.7692 58.8541L31.6007 58.8201C32.6354 55.2426 33.9881 51.6285 35.6933 48.5326C38.8487 42.8817 42.5705 40.321 46.0071 40.8053L46.0049 40.8078Z" fill="#99B0BE"/>
<path d="M48.4941 46.8248C50.8425 47.2569 53.003 49 54.6512 51.3486L54.154 49.9524C52.4853 47.5623 50.3009 45.8154 47.9307 45.429C44.5158 44.7812 40.7883 46.9697 37.5796 52.0689C36.3203 54.0883 35.2399 56.3715 34.325 58.7115L35.1872 58.6763C36.0259 56.7306 36.9879 54.8483 38.0807 53.1562C41.3183 48.1854 45.0691 46.1044 48.4917 46.8249L48.4941 46.8248Z" fill="#99B0BE"/>
<path d="M54.318 44.7447C51.1474 42.0874 47.9318 36.118 45.7082 29.8966C44.1948 27.7552 42.3138 26.3529 40.2526 26.1421C37.9891 25.853 35.5488 27.024 33.1678 29.6632C33.0627 29.0776 32.9169 28.5267 32.7327 28.0106C34.5399 25.9733 36.3845 24.7961 38.1578 24.4729L33.7985 24.4106C33.1689 24.9551 32.5401 25.6032 31.9169 26.3574C31.616 25.9032 31.2695 25.5002 30.8748 25.1531C31.0773 24.8828 31.2796 24.6266 31.4818 24.3775L3.87695 23.9829L3.44763 54.0203L21.4805 54.2781C21.6167 54.1787 21.7529 54.0771 21.8892 53.973C21.8735 54.0764 21.8555 54.1798 21.8398 54.2832L22.5727 54.2937C22.6319 53.9554 22.6959 53.6148 22.7599 53.2695C23.0304 53.0402 23.2986 52.8061 23.5645 52.5603C23.4403 53.1473 23.3185 53.7297 23.2063 54.3004L23.9651 54.3112C24.1626 53.4002 24.3768 52.4753 24.6101 51.5389C24.9796 51.1603 25.3447 50.7651 25.7029 50.3533C25.3125 51.6903 24.9601 53.0207 24.6436 54.3209L25.4568 54.3326C25.9911 52.3547 26.6136 50.3263 27.3278 48.3299C27.9668 47.4652 28.5804 46.5531 29.1594 45.5863C30.7484 42.9334 31.889 40.2247 32.583 37.6556C35.582 33.4661 38.7888 31.6112 41.6908 32.0555C44.1478 32.3661 46.3428 34.3029 47.9464 37.0815L48.4862 38.8556C46.895 36.0325 44.6892 34.0273 42.207 33.6621C38.7751 33.0642 34.9006 35.6444 31.4407 41.4783C29.2178 45.2998 27.4589 49.9168 26.166 54.3427L27.01 54.3548C28.2796 50.3949 29.9382 46.3464 31.9824 42.9534C35.4323 37.3242 39.2839 34.8544 42.6965 35.4732C45.2351 35.8651 47.4849 37.9416 49.08 40.8213L49.6238 42.6379C48.0385 39.7395 45.7777 37.611 43.2161 37.174C39.8113 36.5012 35.9566 38.8532 32.4925 44.322C30.6219 47.3194 29.0699 50.8537 27.8397 54.369L28.6672 54.3808C29.841 51.3287 31.2699 48.3038 32.9598 45.7065C36.4088 40.473 40.2355 38.2525 43.6092 38.9531C46.1869 39.421 48.4544 41.5731 50.0258 44.4572L50.4725 45.9615C48.9173 43.106 46.6665 40.9376 44.099 40.418C40.7217 39.6444 36.8799 41.7563 33.4043 46.8622C31.88 49.1274 30.5659 51.7324 29.4567 54.3921L30.5631 54.4079C31.6054 52.1217 32.8076 49.9014 34.1785 47.9544C37.6631 43.0417 41.503 41.0593 44.8794 41.8942C47.2247 42.4105 49.3096 44.2751 50.8442 46.7535L51.2637 48.175C49.7498 45.7392 47.6885 43.8774 45.3651 43.319C41.9873 42.411 38.1277 44.2825 34.6213 49.0677C33.4347 50.6947 32.3705 52.5236 31.4284 54.4203L32.4874 54.4354C33.2908 52.9843 34.1714 51.5908 35.1329 50.328C38.6317 45.7452 42.4685 43.9841 45.827 44.913C48.1407 45.4901 50.1904 47.333 51.7027 49.7193C51.6406 49.4358 51.5784 49.1499 51.5186 48.8687C51.3989 48.4737 51.2817 48.074 51.1692 47.6744C51.0544 47.27 50.9466 46.868 50.8412 46.4685C51.7489 49.4632 52.834 52.2932 54.0049 54.7429L54.7377 54.7534C53.0037 51.834 51.3868 48.0025 50.1071 43.8955C49.9646 43.4436 49.8269 42.9894 49.6939 42.533C49.5677 42.0978 49.4462 41.6674 49.3317 41.2395C51.053 46.7047 53.4022 51.7455 55.8417 54.7692L58.272 54.8039C57.9127 54.6292 57.5518 54.405 57.1892 54.1266C54.014 51.7872 50.7583 45.4852 48.5512 38.6045C48.4063 38.1597 48.2661 37.7125 48.1306 37.2655C48.0923 37.1354 48.0562 37.0077 48.0179 36.8776C47.7327 36.1505 47.4643 35.4094 47.203 34.6638L47.2912 34.9477C45.7651 32.3728 43.7337 30.5702 41.4645 30.1892C38.8566 29.6762 35.9828 31.0648 33.2325 34.3982C33.3396 33.5259 33.3871 32.6858 33.3749 31.8848C35.8508 29.0562 38.4081 27.8044 40.7682 28.1184C42.8812 28.3441 44.8063 29.8083 46.3353 32.0159C46.2698 31.8006 46.2043 31.583 46.1412 31.3701C46.2228 31.6115 46.3045 31.8529 46.3886 32.092C46.4001 32.111 46.4141 32.1277 46.428 32.1467L46.5636 32.5844C48.7682 38.8102 51.9121 44.6655 55.0086 47.2181C58.0148 49.8024 61.0629 49.2878 63.6605 45.3869L63.7038 42.3564C60.9427 46.9426 57.6063 47.6133 54.3204 44.7471L54.318 44.7447ZM10.7829 50.3426C9.6009 50.3258 8.65699 49.3655 8.67372 48.1951C8.69045 47.0248 9.66141 46.0919 10.8434 46.1088C12.0254 46.1257 12.9693 47.0883 12.9526 48.2563C12.9359 49.4243 11.9649 50.3595 10.7829 50.3426ZM16.7254 39.2237L9.38984 39.1188L9.45712 34.4116L8.16163 34.3931L8.18566 32.7118L9.48115 32.7303L9.49647 31.6589C9.50566 31.0161 9.64922 30.401 9.92241 29.8161C10.1956 29.2312 10.6258 28.7475 11.2105 28.3696C11.7952 27.9917 12.5568 27.8094 13.4882 27.8227C14.292 27.8342 14.9614 27.9828 15.494 28.273C16.0266 28.5632 16.4686 28.9016 16.8178 29.2905L15.2335 30.9495C15.0239 30.7228 14.7972 30.5382 14.5605 30.3888C14.3238 30.2394 14.0246 30.1621 13.6677 30.157C13.1239 30.1492 12.7406 30.3322 12.5177 30.7105C12.2924 31.0889 12.1776 31.5088 12.1709 31.9751L12.1597 32.7639L15.3133 32.809L15.2893 34.4903L12.1356 34.4452L12.1016 36.8282L16.7658 36.8949L16.7325 39.2261L16.7254 39.2237Z" fill="#C3E9DC"/>
<path d="M12.1311 34.4423L15.2846 34.4874L15.3086 32.8062L12.1551 32.7611L12.1664 31.9723C12.1731 31.5037 12.2878 31.0837 12.5131 30.7078C12.7384 30.3295 13.1217 30.1465 13.663 30.1543C14.02 30.1594 14.3192 30.2367 14.5558 30.3861C14.7925 30.5355 15.0192 30.7201 15.2288 30.9468L16.813 29.2878C16.4663 28.899 16.0219 28.5606 15.4893 28.2703C14.9567 27.9801 14.2897 27.8316 13.4836 27.8201C12.5522 27.8068 11.7906 27.989 11.2059 28.3669C10.6212 28.7448 10.1911 29.2285 9.91791 29.8134C9.64474 30.3983 9.50114 31.0157 9.49199 31.6561L9.47667 32.7275L8.18123 32.709L8.1572 34.3902L9.45264 34.4088L9.38537 39.1158L16.7231 39.2206L16.7564 36.8895L12.0923 36.8228L12.1264 34.4399L12.1311 34.4423Z" fill="#00395D"/>
<path d="M10.8434 46.1088C9.66145 46.0919 8.69041 47.0272 8.67372 48.1951C8.65703 49.3631 9.6002 50.3255 10.7822 50.3424C11.9642 50.3593 12.9351 49.4264 12.9518 48.2561C12.9685 47.0859 12.0254 46.1257 10.8434 46.1088Z" fill="#00395D"/>
<path d="M47.2617 49.2556C43.9199 48.1598 40.0739 49.5792 36.5397 53.6761C36.3137 53.9367 36.0923 54.209 35.8755 54.4839L37.2915 54.5041C40.7441 50.8276 44.4619 49.6066 47.7021 50.6986C49.7148 51.3208 51.5186 52.8327 52.9314 54.7276L52.9763 54.7283C52.8546 54.312 52.7353 53.8911 52.6208 53.4679C51.1882 51.4644 49.3359 49.8764 47.2593 49.2556L47.2617 49.2556Z" fill="#C3E9DC"/>
<path d="M55.6814 49.4532C53.0373 47.3523 50.3557 42.7379 48.2487 37.4652C50.4354 43.7824 53.5052 49.5187 56.5151 51.8321C58.9416 53.7815 61.3853 53.5244 63.5764 50.9274L63.6185 47.9864C61.1995 51.3079 58.4271 51.7275 55.6791 49.4508L55.6814 49.4532Z" fill="#C3E9DC"/>
<path d="M51.5199 35.5683C48.9551 33.2094 46.3948 29.0466 44.3309 24.5611L44.0803 24.5575C46.2637 29.9491 49.2392 35.1659 52.2059 37.8579C55.6122 41.0648 59.0918 40.9568 61.987 37.0744C62.6492 36.2337 63.2566 35.2626 63.8177 34.2155L63.8564 31.5053C63.122 32.9315 62.2995 34.2362 61.3786 35.3064C58.452 38.9033 54.9489 38.8368 51.5199 35.5683Z" fill="#C3E9DC"/>
<path d="M43.4251 54.5919L48.8906 54.67C47.1761 54.0285 45.3157 53.9972 43.4251 54.5919Z" fill="#C3E9DC"/>
<path d="M38.8502 54.5263L40.8974 54.5556C43.4992 53.003 46.1237 52.6708 48.4855 53.5194C49.2879 53.7852 50.0553 54.1919 50.7787 54.6968L51.9985 54.7142C50.9101 53.6059 49.6673 52.7214 48.3217 52.2382C45.4037 51.1013 42.0596 51.819 38.8526 54.5263L38.8502 54.5263Z" fill="#C3E9DC"/>
<path d="M57.5083 24.7495L51.121 24.6582C53.3464 25.7781 55.5301 25.8564 57.5083 24.7495Z" fill="#C3E9DC"/>
<path d="M52.8823 39.9454C49.7369 37.1754 46.5653 31.4374 44.3436 25.5811C44.0581 25.2073 43.758 24.8638 43.448 24.5485L40.3914 24.5048C42.1028 24.8661 43.6772 26.0544 44.9928 27.8067C44.9929 27.7996 44.9883 27.7925 44.986 27.7854C44.8592 27.3903 44.7395 26.9999 44.6244 26.6167C44.7811 27.0665 44.9449 27.5163 45.1111 27.9638C45.1181 27.9733 45.1251 27.9829 45.132 27.9924L45.1818 28.1509C47.3934 34.0518 50.5139 39.7207 53.6041 42.3839C56.9356 45.3685 60.3238 44.8823 63.1314 40.5158C63.3392 40.2055 63.5425 39.8787 63.7388 39.5423L63.7805 36.6271C63.3801 37.3445 62.9567 38.0167 62.5082 38.6297C59.6643 42.7179 56.241 43.0151 52.8799 39.9453L52.8823 39.9454Z" fill="#C3E9DC"/>
<path d="M60.3148 31.8503C57.3032 34.9467 53.7222 34.5352 50.2341 31.1033C48.5499 29.5013 46.8734 27.1905 45.3385 24.5755L44.8255 24.5682C46.581 27.9635 48.5989 31.0376 50.6368 33.038C54.1931 36.6592 57.8693 37.025 60.9268 33.536C62.0529 32.3297 63.0374 30.7823 63.8937 29.1012L63.9296 26.5841C62.929 28.6023 61.7318 30.4811 60.3172 31.8504L60.3148 31.8503Z" fill="#C3E9DC"/>
<path d="M58.6409 27.4482C59.632 26.7581 60.5176 25.8382 61.315 24.8039L59.5846 24.7791C59.0983 25.2244 58.5889 25.6269 58.0428 25.9535C55.3507 27.6979 52.2613 27.1403 49.1903 24.6306L47.7341 24.6098C47.8831 24.772 48.0322 24.9296 48.1837 25.0801C51.7762 28.8197 55.491 29.7936 58.6385 27.4458L58.6409 27.4482Z" fill="#C3E9DC"/>
<path d="M46.7941 47.9582C48.9372 48.5564 50.8502 50.1994 52.3121 52.2976C52.198 51.8485 52.0861 51.4017 51.9814 50.9575C50.4976 48.7318 48.5267 47.0009 46.3126 46.4111C42.9597 45.4258 39.12 47.0713 35.6095 51.4912C34.8775 52.4134 34.1965 53.4117 33.5551 54.4506L34.7654 54.4679C35.1974 53.8523 35.6458 53.2558 36.1149 52.6902C39.6251 48.461 43.4537 46.9307 46.7941 47.9559L46.7941 47.9582Z" fill="#C3E9DC"/>
<path d="M61.7777 54.8541L63.5223 54.879L63.5416 53.5251C62.9656 54.1268 62.3753 54.5659 61.7777 54.8541Z" fill="#C3E9DC"/>
<path d="M49.5604 29.1766C53.094 32.741 56.736 33.3442 59.8013 30.4629C61.4009 29.0515 62.7283 27.0026 63.8114 24.8395L62.6199 24.8225C61.6491 26.4102 60.5195 27.8613 59.2043 28.8929C56.1075 31.4935 52.4396 30.7133 48.8857 27.085C48.1583 26.3657 47.4326 25.524 46.7224 24.5953L45.9021 24.5836C47.08 26.3762 48.3175 27.9624 49.5628 29.1766L49.5604 29.1766Z" fill="#C3E9DC"/>
<path d="M51.1661 47.6744C51.2785 48.0764 51.3982 48.4738 51.5155 48.8688C51.5729 49.1499 51.6351 49.4334 51.6996 49.7193C50.1873 47.333 48.1352 45.4902 45.8239 44.9131C42.4653 43.9842 38.6286 45.7453 35.1298 50.328C34.1683 51.5908 33.2901 52.9844 32.4843 54.4354L33.5551 54.4506C34.1965 53.4117 34.8775 52.4134 35.6095 51.4912C39.12 47.0713 42.9597 45.4258 46.3126 46.4111C48.5268 47.0009 50.4983 48.7318 51.9822 50.9575C52.087 51.4018 52.1964 51.8485 52.313 52.2977C50.8509 50.1994 48.9373 48.5565 46.7941 47.9582C43.4559 46.9331 39.6278 48.4634 36.1151 52.6926C35.646 53.2559 35.1976 53.8524 34.7656 54.4704L35.8743 54.4863C36.091 54.2114 36.3125 53.939 36.5385 53.6785C40.0729 49.5814 43.9213 48.162 47.2609 49.2578C49.3351 49.881 51.1899 51.4667 52.6225 53.4703C52.7371 53.8935 52.8564 54.3145 52.9781 54.7307L54.0017 54.7453C52.8308 52.2956 51.7482 49.4633 50.838 46.4709C50.9435 46.8704 51.0512 47.2747 51.166 47.6768L51.1661 47.6744Z" fill="#99B0BE"/>
<path d="M31.9188 26.3573C32.542 25.6055 33.1707 24.9551 33.8004 24.4106L31.4837 24.3775C31.2815 24.6266 31.0769 24.8804 30.8768 25.1531C31.2714 25.5002 31.6179 25.9032 31.9188 26.3573Z" fill="#99B0BE"/>
<path d="M21.4805 54.2781L21.8398 54.2832C21.8555 54.1798 21.8735 54.0764 21.8892 53.973C21.7529 54.0771 21.6167 54.1787 21.4805 54.2781Z" fill="#99B0BE"/>
<path d="M22.7575 53.2717C22.6934 53.617 22.6318 53.9576 22.5702 54.2959L23.2061 54.305C23.3183 53.7319 23.4378 53.1496 23.5644 52.5649C23.2984 52.8108 23.0279 53.0448 22.7598 53.2741L22.7575 53.2717Z" fill="#99B0BE"/>
<path d="M50.2341 31.1033C53.7223 34.5329 57.3056 34.9468 60.3148 31.8503C61.7294 30.481 62.9259 28.6022 63.9265 26.584L63.9514 24.8415L63.8096 24.8395C62.7265 27.0026 61.3992 29.0514 59.7995 30.4629C56.7343 33.3442 53.0946 32.741 49.5587 29.1766C48.3134 27.9624 47.0782 26.3762 45.898 24.5835L45.333 24.5754C46.868 27.1904 48.5444 29.5012 50.2286 31.1033L50.2341 31.1033Z" fill="#99B0BE"/>
<path d="M55.0059 47.2183C51.9094 44.6657 48.7679 38.8104 46.561 32.5846L46.4253 32.1469C46.4138 32.1279 46.3998 32.1112 46.3859 32.0922C46.3019 31.8507 46.2202 31.6117 46.1385 31.3703C46.2017 31.5832 46.2671 31.8008 46.3326 32.016C44.8036 29.8062 42.8785 28.3443 40.7655 28.1186C38.4055 27.8046 35.8481 29.0564 33.3722 31.885C33.3844 32.6883 33.3369 33.5284 33.2299 34.3983C35.9825 31.065 38.854 29.6764 41.4618 30.1894C43.7287 30.5704 45.76 32.3729 47.2886 34.9479L47.2004 34.664C47.4617 35.4096 47.7301 36.1506 48.0153 36.8778C48.0536 37.0079 48.0896 37.1356 48.1279 37.2656C48.2634 37.7127 48.4036 38.1622 48.5486 38.6047C50.758 45.4854 54.0114 51.7874 57.1866 54.1268C57.5468 54.4052 57.9077 54.6294 58.2693 54.8041L61.7777 54.8541C62.3776 54.5683 62.9679 54.1293 63.5416 53.5251L63.5787 50.9302C61.3851 53.5274 58.9436 53.7845 56.5171 51.835C53.5047 49.5215 50.4347 43.785 48.2504 37.4676C50.3575 42.7405 53.0391 47.3551 55.6833 49.4561C58.4314 51.7328 61.2039 51.3132 63.623 47.9915L63.6605 45.3869C61.0629 49.2901 58.0148 49.8024 55.0086 47.2181L55.0059 47.2183Z" fill="#99B0BE"/>
<path d="M24.6101 51.5415C24.3792 52.4779 24.1626 53.4051 23.9652 54.3137L24.6436 54.3234C24.9602 53.0208 25.3126 51.6905 25.7028 50.356C25.3423 50.7677 24.9796 51.1629 24.6101 51.5415Z" fill="#99B0BE"/>
<path d="M40.8974 54.5556L43.4251 54.5919C45.3157 53.9972 47.1737 54.0284 48.8906 54.67L50.7787 54.6968C50.0553 54.1919 49.2879 53.7852 48.4855 53.5194C46.1237 52.6708 43.4992 53.003 40.8974 54.5556Z" fill="#99B0BE"/>
<path d="M47.7045 50.6986C44.4643 49.6066 40.7465 50.8276 37.2939 54.5041L38.8518 54.5264C42.0564 51.819 45.4005 51.1014 48.3209 52.2383C49.6688 52.7239 50.9093 53.6059 51.9977 54.7143L52.9338 54.7277C51.521 52.8328 49.7172 51.3209 47.7045 50.6986Z" fill="#99B0BE"/>
<path d="M58.0437 25.9535C58.5875 25.6245 59.0992 25.222 59.5855 24.7791L57.5076 24.7494C55.5293 25.8564 53.3457 25.778 51.1202 24.6582L49.1936 24.6306C52.2646 27.1404 55.354 27.6979 58.046 25.9536L58.0437 25.9535Z" fill="#99B0BE"/>
<path d="M52.2049 37.8579C49.2382 35.1659 46.2627 29.9491 44.0793 24.5575L43.448 24.5485C43.758 24.8638 44.0558 25.2072 44.3436 25.5811C46.5653 31.4372 49.737 37.1778 52.8823 39.9454C56.2432 43.0151 59.6662 42.7196 62.5099 38.6293C62.9584 38.0186 63.3819 37.344 63.7822 36.6267L63.8167 34.2132C63.2556 35.2603 62.6482 36.2313 61.986 37.0721C59.0908 40.9544 55.6112 41.0625 52.205 37.8555L52.2049 37.8579Z" fill="#99B0BE"/>
<path d="M42.1997 33.6641C44.6819 34.0293 46.8901 36.0369 48.4789 38.8577L47.9392 37.0835C46.3379 34.305 44.1406 32.3682 41.6835 32.0575C38.7815 31.6133 35.5747 33.4681 32.5758 37.6577C31.8817 40.2267 30.7411 42.9355 29.1521 45.5883C28.5732 46.5528 27.9595 47.4672 27.3206 48.3319C26.6064 50.326 25.9839 52.3544 25.4496 54.3346L26.154 54.3447C27.4469 49.9188 29.2058 45.3017 31.4287 41.4803C34.8863 35.644 38.7608 33.0662 42.195 33.664L42.1997 33.6641Z" fill="#99B0BE"/>
<path d="M59.2043 28.8929C60.5195 27.8589 61.6491 26.4078 62.6199 24.8225L61.315 24.8039C60.5176 25.8358 59.632 26.7581 58.6409 27.4482C55.4934 29.796 51.7792 28.8197 48.1867 25.0825C48.0375 24.932 47.8884 24.7721 47.737 24.6122L46.7205 24.5976C47.4331 25.5263 48.1565 26.368 48.8839 27.0873C52.4378 30.7156 56.1057 31.4958 59.2024 28.8952L59.2043 28.8929Z" fill="#99B0BE"/>
<path d="M53.6062 42.384C50.516 39.7208 47.3955 34.0518 45.1839 28.1509L45.1341 27.9924C45.1341 27.9924 45.1202 27.9734 45.1133 27.9639C44.9447 27.5163 44.7832 27.0665 44.6265 26.6168C44.7416 27 44.8614 27.3903 44.9881 27.7854C44.9904 27.7925 44.9927 27.7996 44.9949 27.8067C43.6769 26.0544 42.105 24.8661 40.3935 24.5048L38.1595 24.4729C36.3862 24.7985 34.5416 25.9733 32.7344 28.0107C32.9185 28.5267 33.0643 29.0776 33.1695 29.6632C35.5504 27.024 37.9907 25.8554 40.2542 26.1421C42.3131 26.3505 44.1965 27.7529 45.7099 29.8966C47.9335 36.1156 51.149 42.0874 54.3197 44.7447C57.6056 47.6109 60.9421 46.9402 63.7032 42.354L63.7433 39.5424C63.5446 39.8787 63.3437 40.2056 63.1359 40.5159C60.3283 44.8824 56.9401 45.3686 53.6086 42.384L53.6062 42.384Z" fill="#99B0BE"/>
<path d="M50.6327 33.0379C48.5948 31.0375 46.5769 27.9635 44.8214 24.5681L44.3297 24.5611C46.3912 29.0465 48.9539 33.2094 51.5187 35.5683C54.9453 38.8367 58.4508 38.9033 61.3774 35.3064C62.2982 34.2362 63.1208 32.9291 63.8552 31.5053L63.8896 29.1012C63.0356 30.7847 62.0488 32.3297 60.9227 33.5359C57.8653 37.025 54.1891 36.6592 50.6327 33.0379Z" fill="#99B0BE"/>
<path d="M49.691 42.5328C49.824 42.9892 49.9618 43.4434 50.1043 43.8953C51.3838 48.0021 53.0007 51.8359 54.7347 54.7528L55.8386 54.7686C53.3992 51.7427 51.0477 46.7043 49.3288 41.2393C49.4457 41.6673 49.5648 42.0976 49.691 42.5328Z" fill="#99B0BE"/>
<path d="M44.098 40.4181C46.6656 40.9353 48.9163 43.106 50.4716 45.9616L50.0249 44.4573C48.4535 41.5732 46.1836 39.421 43.6082 38.9532C40.2347 38.2502 36.4079 40.4707 32.9589 45.7066C31.2666 48.3038 29.8401 51.3311 28.6662 54.3809L29.4606 54.3922C30.5697 51.7349 31.8838 49.1275 33.4082 46.8624C36.8813 41.754 40.7255 39.6421 44.1028 40.4182L44.098 40.4181Z" fill="#99B0BE"/>
<path d="M43.2104 37.1765C45.772 37.6135 48.0328 39.7443 49.6182 42.6404L49.0743 40.8238C47.4792 37.9441 45.2295 35.8675 42.6909 35.4756C39.2806 34.8593 35.4266 37.3267 31.9767 42.9559C29.9303 46.3464 28.2716 50.3973 27.0044 54.3572L27.8365 54.3691C29.0666 50.8538 30.6163 47.3195 32.4892 44.3222C35.951 38.8533 39.8081 36.5013 43.2128 37.1742L43.2104 37.1765Z" fill="#99B0BE"/>
<path d="M45.3662 43.3215C47.6872 43.8823 49.7485 45.7417 51.2648 48.1776L50.8453 46.7561C49.3107 44.2776 47.2259 42.4131 44.8806 41.8967C41.5065 41.0618 37.6642 43.0418 34.1796 47.9569C32.8111 49.904 31.6066 52.1243 30.5642 54.4104L31.4271 54.4228C32.3717 52.5262 33.4358 50.6996 34.6201 49.0702C38.1265 44.285 41.9861 42.4135 45.3638 43.3215L45.3662 43.3215Z" fill="#99B0BE"/>
<path d="M51.498 42.8371C48.5815 39.9032 45.9206 33.6667 44.2705 27.2693C42.9575 24.9995 41.2114 23.4324 39.1778 23.0355C36.9499 22.5423 34.4134 23.4871 31.8029 25.8995C31.7513 25.3067 31.656 24.7449 31.5195 24.2143C33.504 22.3492 35.4478 21.3442 37.2431 21.1832L32.9074 20.7257C32.231 21.2108 31.546 21.7993 30.857 22.4938C30.5985 22.0143 30.29 21.5815 29.9284 21.2C30.1546 20.9492 30.3793 20.7124 30.6032 20.4826L3.14795 17.5859L-0.00398502 47.4606L17.9312 49.3529C18.0758 49.2663 18.2207 49.1774 18.3658 49.0861C18.3409 49.1877 18.3135 49.289 18.2886 49.3906L19.0174 49.4675C19.1071 49.1359 19.2017 48.8025 19.2968 48.4645C19.587 48.2606 19.8753 48.0519 20.1624 47.8312C19.9854 48.4045 19.8113 48.9734 19.6478 49.5316L20.4026 49.6113C20.6818 48.7219 20.979 47.8202 21.2963 46.9088C21.6987 46.5653 22.098 46.2049 22.4921 45.8273C21.9821 47.1233 21.5105 48.4162 21.0774 49.6824L21.8862 49.7678C22.5976 47.8466 23.4015 45.883 24.2939 43.9595C25.0087 43.1564 25.7025 42.3037 26.3667 41.3934C28.1898 38.8956 29.5714 36.3015 30.4956 33.8059C33.8622 29.9057 37.224 28.3493 40.0738 29.0549C42.4925 29.5872 44.5027 31.715 45.8477 34.6276L46.2244 36.4434C44.8958 33.4876 42.881 31.2906 40.4421 30.7017C37.0786 29.7951 32.9861 32.0132 29.0113 37.5093C26.451 41.1133 24.2805 45.5518 22.5915 49.8422L23.4309 49.9308C25.0545 46.1024 27.0735 42.221 29.4169 39.0274C33.3632 33.7343 37.4229 31.624 40.7654 32.5498C43.258 33.1703 45.3101 35.4423 46.6374 38.4549L47.0143 40.3133C45.6983 37.283 43.6399 34.9583 41.1285 34.2907C37.7988 33.3119 33.7467 35.3045 29.8008 40.4366C27.666 43.252 25.7999 46.6309 24.256 50.0202L25.0789 50.107C26.5248 47.1739 28.2221 44.2911 30.1406 41.8578C34.05 36.9587 38.0624 35.0944 41.3586 36.0982C43.8833 36.7979 45.9463 39.1468 47.2496 42.1615L47.558 43.7002C46.2682 40.7153 44.2233 38.3517 41.7135 37.6015C38.4203 36.5246 34.4028 38.2794 30.4785 43.0491C28.7549 45.1667 27.21 47.6417 25.8642 50.1899L26.9646 50.3059C28.21 48.1237 29.6086 46.0216 31.1504 44.2069C35.0662 39.6305 39.0701 38.0046 42.3569 39.1423C44.6457 39.8692 46.5529 41.9152 47.8563 44.5226L48.1452 45.9763C46.8584 43.4132 44.9745 41.3721 42.7113 40.6053C39.4298 39.3947 35.4164 40.9083 31.4904 45.3558C30.1611 46.8685 28.9355 48.5934 27.8251 50.3967L28.8785 50.5079C29.8102 49.1356 30.8135 47.8277 31.8856 46.6573C35.7856 42.4108 39.7663 41.005 43.0267 42.2346C45.2786 43.0192 47.1527 45.0404 48.4423 47.554C48.4061 47.266 48.3702 46.9757 48.3361 46.6903C48.2528 46.286 48.1723 45.8773 48.0965 45.4691C48.0188 45.056 47.9479 44.6459 47.8792 44.2385C48.5116 47.3032 49.3355 50.22 50.2793 52.7658L51.0082 52.8427C49.5461 49.778 48.2834 45.8156 47.3815 41.6095C47.2806 41.1465 47.1846 40.6817 47.0936 40.2151C47.0074 39.7703 46.9254 39.3306 46.8502 38.8941C48.0687 44.4929 49.951 49.726 52.1063 52.9585L54.5233 53.2135C54.1814 53.007 53.8423 52.7509 53.5065 52.4408C50.5565 49.8231 47.8858 43.2517 46.3119 36.1993C46.2079 35.7431 46.1088 35.2851 46.0145 34.8275C45.9881 34.6945 45.9638 34.5641 45.9374 34.431C45.7194 33.681 45.5193 32.9187 45.3267 32.1525L45.3888 32.4432C44.1025 29.7405 42.2429 27.7611 40.0176 27.1758C37.4671 26.4284 34.4792 27.5506 31.4379 30.6208C31.6236 29.7618 31.7471 28.9295 31.8076 28.1307C34.5298 25.5383 37.1902 24.5237 39.512 25.0504C41.5959 25.4668 43.3802 27.0996 44.7027 29.4367C44.657 29.2164 44.6115 28.9938 44.5679 28.776C44.6274 29.0238 44.6868 29.2717 44.7489 29.5174C44.7586 29.5374 44.771 29.5552 44.7832 29.5755L44.8785 30.0236C46.5093 36.4237 49.1092 42.5401 51.9614 45.363C54.7208 48.2093 57.8031 47.9733 60.7438 44.3241L61.0618 41.3099C57.8961 45.6268 54.5126 45.9921 51.5001 42.8397L51.498 42.8371ZM7.63463 44.4634C6.45901 44.3394 5.6061 43.2974 5.7289 42.1334C5.85171 40.9695 6.90329 40.1284 8.0789 40.2525C9.25452 40.3765 10.1072 41.4208 9.98462 42.5824C9.86206 43.7441 8.81024 44.5874 7.63463 44.4634ZM14.5612 33.9292L7.2653 33.1595L7.75924 28.4778L6.47077 28.3419L6.64719 26.6697L7.93566 26.8056L8.04809 25.74C8.11555 25.1006 8.31431 24.5012 8.63942 23.9434C8.96453 23.3857 9.4368 22.943 10.0534 22.6197C10.6699 22.2964 11.4449 22.1839 12.3713 22.2817C13.1707 22.366 13.8239 22.5746 14.328 22.912C14.8321 23.2494 15.2416 23.6265 15.554 24.0454L13.8258 25.5539C13.6377 25.3091 13.4286 25.1047 13.2065 24.9344C12.9843 24.7642 12.6934 24.66 12.3383 24.6226C11.7975 24.5655 11.3992 24.713 11.1429 25.0695C10.8842 25.4259 10.7318 25.8337 10.6829 26.2974L10.6001 27.082L13.7366 27.4129L13.5602 29.0851L10.4237 28.7542L10.1736 31.1243L14.8126 31.6137L14.568 33.9323L14.5612 33.9292Z" fill="#CDF5E8"/>
<path d="M10.4194 28.7509L13.5558 29.0818L13.7322 27.4097L10.5958 27.0788L10.6786 26.2942C10.7277 25.8282 10.8801 25.4204 11.1386 25.0664C11.3972 24.7101 11.7955 24.5627 12.334 24.6195C12.689 24.6569 12.9799 24.761 13.2021 24.9313C13.4242 25.1015 13.6332 25.3059 13.8214 25.5507L15.5495 24.0423C15.2395 23.6236 14.8276 23.2463 14.3236 22.9089C13.8195 22.5716 13.1687 22.3632 12.367 22.2786C11.4406 22.1809 10.6656 22.2933 10.0491 22.6166C9.43253 22.9399 8.96029 23.3826 8.63519 23.9403C8.31009 24.498 8.11109 25.0998 8.04388 25.7368L7.93146 26.8024L6.64303 26.6665L6.46661 28.3386L7.75504 28.4745L7.26112 33.156L14.5591 33.926L14.8037 31.6075L10.1649 31.1181L10.4149 28.748L10.4194 28.7509Z" fill="#00395D"/>
<path d="M8.0789 40.2525C6.90333 40.1284 5.85146 40.9718 5.7289 42.1334C5.60635 43.295 6.45835 44.3391 7.63392 44.4631C8.80949 44.5871 9.86103 43.7461 9.98383 42.5822C10.1066 41.4183 9.25447 40.3765 8.0789 40.2525Z" fill="#00395D"/>
<path d="M44.0617 46.6895C40.833 45.2951 36.8742 46.3598 32.9829 50.1192C32.7342 50.3582 32.489 50.6094 32.2482 50.8634L33.6566 51.012C37.4284 47.6638 41.2416 46.785 44.3694 48.1664C46.3174 48.9687 47.9765 50.6379 49.2117 52.6532L49.2564 52.6579C49.1729 52.2323 49.0923 51.8023 49.0166 51.3704C47.7716 49.2452 46.071 47.4958 44.0593 46.6892L44.0617 46.6895Z" fill="#CDF5E8"/>
<path d="M52.4287 47.6499C49.986 45.3178 47.7341 40.4792 46.114 35.0372C47.7187 41.5266 50.2555 47.5177 53.0433 50.0946C55.2829 52.2561 57.7399 52.2217 60.1575 49.834L60.4661 46.909C57.7558 49.9974 54.9568 50.1639 52.4266 47.6473L52.4287 47.6499Z" fill="#CDF5E8"/>
<path d="M49.5437 33.4447C47.2034 30.863 45.0313 26.4851 43.3827 21.8309L43.1335 21.8046C44.8188 27.372 47.309 32.8372 50.0193 35.7871C53.1206 39.2898 56.5957 39.4978 59.8311 35.8941C60.5668 35.1169 61.2598 34.2049 61.9136 33.213L62.198 30.5174C61.3372 31.8711 60.3997 33.0959 59.3855 34.0782C56.1448 37.3948 52.6621 37.0108 49.5437 33.4447Z" fill="#CDF5E8"/>
<path d="M39.7569 51.6558L45.1927 52.2293C43.5435 51.4349 41.6936 51.235 39.7569 51.6558Z" fill="#CDF5E8"/>
<path d="M35.2068 51.1755L37.2429 51.3903C39.9747 50.0801 42.6186 49.9873 44.8937 51.0467C45.6687 51.3842 46.396 51.8587 47.0706 52.4272L48.2838 52.5552C47.3005 51.3527 46.143 50.3591 44.8468 49.7559C42.0439 48.3591 38.6485 48.7704 35.2091 51.1757L35.2068 51.1755Z" fill="#CDF5E8"/>
<path d="M56.4888 23.2137L50.136 22.5434C52.2507 23.8605 54.4182 24.1366 56.4888 23.2137Z" fill="#CDF5E8"/>
<path d="M50.5035 37.9274C47.6223 34.8835 44.9843 28.8815 43.3029 22.8479C43.0525 22.4497 42.7847 22.0804 42.5046 21.7383L39.4645 21.4175C41.1362 21.9325 42.5962 23.2588 43.7475 25.1231C43.7483 25.1161 43.7443 25.1086 43.7427 25.1013C43.6523 24.6963 43.5684 24.2967 43.4886 23.9047C43.6038 24.3668 43.7262 24.8296 43.8511 25.2904C43.8572 25.3005 43.8633 25.3106 43.8693 25.3207L43.9045 25.4831C45.5718 31.5602 48.1653 37.4888 51.0012 40.4214C54.0482 43.6958 57.4666 43.5189 60.6587 39.425C60.8938 39.1349 61.1258 38.8278 61.3519 38.5107L61.6578 35.6113C61.194 36.2893 60.7113 36.9204 60.209 37.4902C57.0061 41.3036 53.5699 41.2891 50.5012 37.9271L50.5035 37.9274Z" fill="#CDF5E8"/>
<path d="M58.6396 30.5398C55.3596 33.3503 51.8307 32.6157 48.6682 28.8816C47.1362 27.1334 45.6763 24.6801 44.3848 21.9366L43.8746 21.8828C45.315 25.4234 47.0457 28.6678 48.8937 30.8448C52.107 34.7737 55.7349 35.4714 59.0962 32.274C60.3271 31.1749 61.4478 29.7232 62.4531 28.1266L62.7172 25.6231C61.5376 27.5422 60.1749 29.3047 58.642 30.5401L58.6396 30.5398Z" fill="#CDF5E8"/>
<path d="M57.3719 26.004C58.4215 25.4067 59.3869 24.5708 60.2748 23.6131L58.5538 23.4315C58.0291 23.8308 57.4853 24.1855 56.9118 24.4612C54.0726 25.9543 51.0465 25.1188 48.2158 22.3408L46.7675 22.188C46.9012 22.3632 47.0353 22.5336 47.1726 22.6973C50.4111 26.7472 54.0223 28.0541 57.3698 26.0014L57.3719 26.004Z" fill="#CDF5E8"/>
<path d="M43.7137 45.355C45.7937 46.1451 47.5497 47.9548 48.8154 50.1769C48.7424 49.7193 48.6716 49.2643 48.6075 48.8124C47.3317 46.4613 45.526 44.5587 43.3745 43.7705C40.1248 42.4852 36.1516 43.7757 32.2547 47.859C31.4421 48.711 30.6733 49.6434 29.9403 50.6198L31.1441 50.7468C31.6302 50.173 32.1308 49.6196 32.6493 49.0989C36.5286 45.2055 40.4802 44.0288 43.7139 45.3526L43.7137 45.355Z" fill="#CDF5E8"/>
<path d="M58.01 53.5815L59.7452 53.7645L59.8872 52.4179C59.259 52.9649 58.6313 53.3486 58.01 53.5815Z" fill="#CDF5E8"/>
<path d="M48.1721 26.9017C51.3677 30.7719 54.9401 31.7029 58.2541 29.1115C59.9751 27.851 61.4828 25.931 62.7576 23.8751L61.5727 23.75C60.4618 25.2431 59.2052 26.5858 57.8019 27.4938C54.482 29.8028 50.9 28.6932 47.6899 24.7575C47.0307 23.9752 46.3843 23.0711 45.7613 22.0819L44.9454 21.9958C45.9558 23.8879 47.0444 25.5798 48.1744 26.902L48.1721 26.9017Z" fill="#CDF5E8"/>
<path d="M48.0933 45.4689C48.1689 45.8794 48.252 46.286 48.333 46.69C48.3647 46.9752 48.4009 47.2632 48.4392 47.5538C47.1496 45.0401 45.2731 43.0187 43.0236 42.2344C39.7632 41.0047 35.7825 42.4105 31.8825 46.6571C30.8104 47.8275 29.8094 49.1356 28.8754 50.5076L29.9403 50.6198C30.6733 49.6434 31.4421 48.711 32.2547 47.859C36.1516 43.7757 40.1248 42.4852 43.3745 43.7705C45.5261 44.5588 47.3325 46.4613 48.6083 48.8125C48.6724 49.2644 48.7409 49.7192 48.8162 50.1771C47.5505 47.9549 45.7937 46.1452 43.7137 45.355C40.4822 44.0313 36.531 45.2081 32.6493 49.1013C32.131 49.6197 31.6304 50.1731 31.144 50.7494L32.2468 50.8657C32.4875 50.6117 32.7328 50.3605 32.9815 50.1215C36.8729 46.3619 40.8342 45.2974 44.0606 46.6916C46.0698 47.5003 47.7731 49.2477 49.0181 51.373C49.0938 51.8049 49.1744 52.2349 49.2579 52.6605L50.276 52.7679C49.3321 50.2221 48.5108 47.3032 47.8758 44.2406C47.9446 44.648 48.0152 45.0604 48.0931 45.4712L48.0933 45.4689Z" fill="#99B0BE"/>
<path d="M30.8589 22.494C31.5476 21.8018 32.2328 21.211 32.9092 20.7259L30.6051 20.4828C30.3812 20.7126 30.1544 20.9467 29.9304 21.2002C30.2919 21.5817 30.6004 22.0144 30.8589 22.494Z" fill="#99B0BE"/>
<path d="M17.9312 49.3529L18.2886 49.3906C18.3135 49.289 18.3409 49.1877 18.3658 49.0861C18.2207 49.1774 18.0758 49.2663 17.9312 49.3529Z" fill="#99B0BE"/>
<path d="M19.2941 48.4665C19.199 48.8045 19.1068 49.1382 19.0148 49.4695L19.6472 49.5362C19.811 48.9757 19.9828 48.4065 20.1618 47.8358C19.8747 48.0565 19.584 48.265 19.2962 48.4691L19.2941 48.4665Z" fill="#99B0BE"/>
<path d="M48.6682 28.8816C51.8309 32.6134 55.3619 33.3506 58.6396 30.5398C60.1726 29.3045 61.5346 27.5419 62.7141 25.6228L62.897 23.8898L62.7559 23.8749C61.4811 25.9308 59.9734 27.8508 58.2523 29.1113C54.9383 31.7027 51.3683 30.772 48.1703 26.9015C47.0403 25.5794 45.9541 23.8877 44.9413 21.9954L44.3794 21.9361C45.6708 24.6795 47.1308 27.1328 48.6628 28.881L48.6682 28.8816Z" fill="#99B0BE"/>
<path d="M51.9588 45.363C49.1065 42.54 46.509 36.4239 44.8759 30.0236L44.7805 29.5754C44.7707 29.5554 44.7583 29.5376 44.7462 29.5173C44.6844 29.2693 44.6247 29.0238 44.5653 28.776C44.6089 28.9937 44.6543 29.2164 44.7 29.4367C43.3778 27.0972 41.5932 25.4668 39.5094 25.0504C37.1875 24.5236 34.5272 25.5383 31.8049 28.1306C31.7442 28.9317 31.6207 29.7641 31.4352 30.6207C34.4789 27.5508 37.4644 26.4283 40.015 27.1758C42.2379 27.7608 44.0974 29.7402 45.3861 32.4431L45.3241 32.1524C45.5166 32.9187 45.7167 33.681 45.9348 34.431C45.9612 34.564 45.9854 34.6944 46.0118 34.8275C46.1062 35.285 46.205 35.7454 46.3093 36.1992C47.8855 43.2519 50.5539 49.823 53.5038 52.4408C53.8373 52.7506 54.1764 53.0066 54.5207 53.2135L58.01 53.5815C58.6334 53.3512 59.261 52.9676 59.8872 52.4179L60.1595 49.8371C57.7394 52.2246 55.2846 52.2592 53.0449 50.0977C50.2548 47.5205 47.7178 41.5292 46.1154 35.0397C47.7356 40.482 49.9876 45.3208 52.4304 47.6529C54.9607 50.1696 57.7598 50.0031 60.4702 46.9145L60.7438 44.3241C57.8028 47.9756 54.7208 48.2093 51.9614 45.363L51.9588 45.363Z" fill="#99B0BE"/>
<path d="M21.2961 46.9114C20.9812 47.823 20.6814 48.7267 20.4024 49.6137L21.0771 49.6849C21.5105 48.4164 21.9821 47.1235 22.4919 45.8299C22.0954 46.2072 21.6984 46.5679 21.2961 46.9114Z" fill="#99B0BE"/>
<path d="M37.2429 51.3903L39.7569 51.6558C41.6936 51.235 43.5411 51.4346 45.1927 52.2293L47.0706 52.4272C46.396 51.8587 45.6687 51.3842 44.8937 51.0467C42.6186 49.9873 39.9747 50.0801 37.2429 51.3903Z" fill="#99B0BE"/>
<path d="M44.3718 48.1667C41.244 46.7853 37.4308 47.664 33.6589 51.0123L35.2083 51.1757C38.6454 48.7702 42.0408 48.3588 44.846 49.7559C46.1443 50.3617 47.2997 51.3527 48.283 52.5552L49.2141 52.6534C47.9789 50.6382 46.3197 48.9689 44.3718 48.1667Z" fill="#99B0BE"/>
<path d="M56.9127 24.4613C57.4841 24.183 58.0302 23.8286 58.5547 23.4316L56.488 23.2136C54.4175 24.1365 52.25 23.8605 50.1352 22.5433L48.2191 22.3412C51.0498 25.1191 54.0759 25.9546 56.915 24.4616L56.9127 24.4613Z" fill="#99B0BE"/>
<path d="M50.0183 35.787C47.308 32.8371 44.8178 27.3719 43.1325 21.8045L42.5046 21.7383C42.7847 22.0804 43.0501 22.4494 43.3029 22.8479C44.9842 28.8813 47.6222 34.886 50.5035 37.9274C53.5722 41.2893 57.0078 41.3054 60.2108 37.4899C60.7129 36.9225 61.1957 36.2891 61.6595 35.611L61.9128 33.2105C61.259 34.2024 60.5661 35.1144 59.8303 35.8916C56.5949 39.4954 53.1199 39.2874 50.0185 35.7847L50.0183 35.787Z" fill="#99B0BE"/>
<path d="M40.4346 30.7031C42.8735 31.2919 44.8905 33.4916 46.2169 36.4448L45.8403 34.629C44.4977 31.7167 42.4851 29.5886 40.0663 29.0563C37.2166 28.3507 33.8548 29.9071 30.4882 33.8073C29.564 36.3028 28.1824 38.8969 26.3593 41.3947C25.6953 42.3027 25.0012 43.1578 24.2865 43.9609C23.3944 45.882 22.5905 47.8456 21.8788 49.7692L22.5794 49.8431C24.2683 45.5527 26.4388 41.1142 28.9991 37.5102C32.9718 32.0115 37.0641 29.7957 40.4299 30.7026L40.4346 30.7031Z" fill="#99B0BE"/>
<path d="M57.8019 27.4938C59.2055 26.5834 60.4621 25.2407 61.5727 23.75L60.2748 23.6131C59.3871 24.5685 58.4215 25.4067 57.3719 26.004C54.0244 28.0567 50.4141 26.7475 47.1753 22.6999C47.0404 22.5365 46.9065 22.3637 46.7702 22.1907L45.7592 22.084C46.3846 23.0735 47.0286 23.9774 47.6878 24.7597C50.898 28.6953 54.48 29.805 57.7998 27.496L57.8019 27.4938Z" fill="#99B0BE"/>
<path d="M51.0033 40.4216C48.1674 37.4891 45.5739 31.5605 43.9066 25.4833L43.8714 25.3209C43.8714 25.3209 43.8593 25.3007 43.8532 25.2906C43.726 24.8296 43.606 24.367 43.4907 23.9049C43.5706 24.297 43.6544 24.6965 43.7448 25.1015C43.7464 25.1088 43.748 25.1161 43.7496 25.1234C42.596 23.2587 41.1383 21.9328 39.4666 21.4177L37.2447 21.1833C35.4492 21.3467 33.5057 22.3494 31.5211 24.2145C31.6577 24.7451 31.7529 25.3069 31.8045 25.8996C34.415 23.4873 36.9513 22.5448 39.1794 23.0356C41.2109 23.4299 42.9594 24.9974 44.2721 27.2695C45.9225 33.6646 48.5831 39.9034 51.4997 42.8373C54.5121 45.9897 57.8956 45.6244 61.0613 41.3075L61.3563 38.5111C61.128 38.8281 60.8982 39.1353 60.6631 39.4255C57.4711 43.5194 54.0527 43.6963 51.0056 40.4218L51.0033 40.4216Z" fill="#99B0BE"/>
<path d="M48.8897 30.8444C47.0416 28.6674 45.3109 25.4229 43.8706 21.8824L43.3815 21.8308C45.0277 26.4847 47.2022 30.8629 49.5425 33.4446C52.6586 37.0104 56.1436 37.3947 59.3843 34.078C60.3985 33.0958 61.3362 31.8686 62.1967 30.5173L62.449 28.1262C61.4459 29.7253 60.323 31.1745 59.0921 32.2736C55.7308 35.4709 52.103 34.7732 48.8897 30.8444Z" fill="#99B0BE"/>
<path d="M47.0907 40.2147C47.1818 40.6813 47.2777 41.1461 47.3787 41.609C48.2805 45.815 49.543 49.7796 51.0052 52.8418L52.1032 52.9576C49.9483 49.7229 48.0635 44.4921 46.8474 38.8937C46.9249 39.3305 47.0045 39.7699 47.0907 40.2147Z" fill="#99B0BE"/>
<path d="M41.7126 37.6014C44.2227 38.3494 46.2672 40.7153 47.5571 43.7002L47.2487 42.1615C45.9454 39.1468 43.88 36.7976 41.3577 36.0982C38.0618 35.0921 34.0493 36.9563 30.1397 41.8578C28.2188 44.2908 26.5236 47.1763 25.078 50.107L25.868 50.1903C27.2135 47.6445 28.7587 45.1671 30.4823 43.0496C34.4045 38.2773 38.4243 36.5228 41.7173 37.6019L41.7126 37.6014Z" fill="#99B0BE"/>
<path d="M41.1226 34.2927C43.6341 34.9602 45.6922 37.2873 47.0084 40.3152L46.6316 38.4568C45.3042 35.4443 43.2521 33.1723 40.7595 32.5517C37.4192 31.6286 33.3573 33.7362 29.4111 39.0293C27.0655 42.2203 25.0463 46.104 23.4251 49.9327L24.2527 50.02C25.7966 46.6308 27.6604 43.2516 29.7975 40.4365C33.7411 35.3041 37.7956 33.3117 41.1252 34.2906L41.1226 34.2927Z" fill="#99B0BE"/>
<path d="M42.7122 40.6079C44.9728 41.3768 46.8569 43.4156 48.1461 45.9789L47.8572 44.5252C46.5537 41.9178 44.6466 39.8718 42.3578 39.1449C39.0733 38.0074 35.0673 39.6308 31.1513 44.2096C29.6118 46.0245 28.2109 48.1264 26.9655 50.3086L27.8237 50.3991C28.9363 48.596 30.1618 46.8734 31.4889 45.3582C35.4149 40.9107 39.4284 39.3971 42.7098 40.6076L42.7122 40.6079Z" fill="#99B0BE"/>
<g clip-path="url(#clip0_5053_10322)">
<path d="M25.1895 40.1762L34.5086 6.30608C34.6175 5.9117 34.8786 5.57669 35.2346 5.3746C35.5906 5.17251 36.0124 5.11985 36.4075 5.22819L56.5746 10.777C56.7707 10.8305 56.9543 10.922 57.115 11.0464C57.2757 11.1708 57.4103 11.3256 57.5111 11.502C57.6119 11.6783 57.6769 11.8728 57.7024 12.0742C57.7279 12.2757 57.7133 12.4801 57.6596 12.6759L48.3405 46.546C48.2319 46.9409 47.9706 47.2764 47.6142 47.4787C47.2578 47.681 46.8355 47.7336 46.4401 47.6248L35.9475 44.7378C35.9475 44.7378 35.1129 43.5711 33.104 43.0184C30.9126 42.4155 29.6501 43.0052 29.6501 43.0052L26.2694 42.075C25.8743 41.9659 25.5386 41.7047 25.3362 41.3486C25.1337 40.9926 25.0809 40.5709 25.1895 40.1762V40.1762Z" fill="#001276"/>
</g>
<path d="M45.8811 26.1103C45.8099 26.4955 45.7033 26.8735 45.5627 27.2391C45.3643 27.7784 45.1841 28.0843 44.9579 28.4027C44.7351 28.7193 44.4843 29.0143 44.2089 29.284L44.1935 29.2989C44.1114 29.3778 44.0513 29.4354 44.0192 29.4614C44.0166 29.4559 44.0136 29.4497 44.0099 29.4426C43.995 29.4139 43.9727 29.3713 43.9379 29.3077C43.8868 29.2145 43.7608 28.8897 43.7273 28.7913C43.6785 28.65 43.6399 28.505 43.6119 28.3576L43.6 28.2828L43.5315 28.3128C43.4925 28.3324 43.4583 28.3608 43.4314 28.3958C43.4044 28.4307 43.3854 28.4714 43.3759 28.5147C43.3543 28.5977 43.3465 28.6986 43.3469 28.8869C43.3511 29.1215 43.3788 29.3547 43.4296 29.5828C43.4358 29.6118 43.4424 29.6404 43.4485 29.667C43.4852 29.8258 43.4966 29.8972 43.454 29.9139C43.4482 29.916 43.4419 29.9161 43.4361 29.9142C43.3919 29.902 43.322 29.8359 43.2492 29.7372C43.1845 29.6498 43.0166 29.3961 42.855 28.9371C42.7343 28.5934 42.6448 28.2386 42.5877 27.8771L42.5785 27.8203C42.5534 27.8226 42.5286 27.8273 42.5043 27.8345C42.4786 27.8412 42.455 27.8549 42.436 27.874C42.3855 27.9325 42.354 28.0056 42.3462 28.0828C42.3142 28.2946 42.3449 28.64 42.3767 28.8918C42.4307 29.3172 42.605 29.827 42.7419 30.1797C42.7473 30.1933 42.7539 30.208 42.7606 30.2232C42.7702 30.2439 42.7788 30.2652 42.7864 30.2868C42.762 30.3016 42.7073 30.3266 42.6412 30.3574L42.5428 30.4025C42.1867 30.5686 41.8168 30.7006 41.4379 30.7966C41.1231 30.8785 40.4909 31.0155 40.0967 31.0158C39.758 30.8139 39.2849 30.3727 39.0564 30.1413C38.7796 29.8652 38.5292 29.5626 38.3084 29.2374L38.2453 29.1458C38.2041 29.086 38.1703 29.0362 38.1575 29.012C38.1693 29.0032 38.2394 28.953 38.2511 28.9441C38.5487 28.7116 38.9592 28.3632 39.2237 28.0243C39.3796 27.8244 39.5827 27.5442 39.6644 27.3446C39.6968 27.2743 39.7071 27.1957 39.6937 27.1199C39.6861 27.0869 39.6682 27.0575 39.6428 27.036L39.5989 27.0007L39.5618 27.0445C39.3276 27.3259 39.0692 27.585 38.7897 27.8186C38.417 28.1301 38.1425 28.2621 38.0418 28.3044C37.9306 28.3513 37.8345 28.3729 37.7907 28.3609C37.7858 28.3599 37.7812 28.3575 37.7776 28.354L37.7713 28.3451C37.7526 28.3087 37.8004 28.2528 37.9075 28.1413C37.9264 28.1215 37.9459 28.1009 37.9661 28.0795C38.126 27.9094 38.2689 27.7233 38.3926 27.5241C38.4898 27.3619 38.5347 27.2712 38.5585 27.1892C38.5725 27.1471 38.577 27.1024 38.5717 27.0586C38.5664 27.0147 38.5514 26.9728 38.5279 26.9361L38.4845 26.8753L38.436 26.9335C38.3365 27.0459 38.2292 27.1507 38.1149 27.2471C38.0353 27.3147 37.7605 27.5298 37.6698 27.583C37.6071 27.6199 37.5662 27.6455 37.5387 27.6625C37.532 27.6666 37.5263 27.6701 37.5213 27.6731C37.5067 27.6335 37.4833 27.549 37.4517 27.4337C37.3515 27.0581 37.2861 26.673 37.2564 26.2837C37.2247 25.8942 37.2263 25.539 37.3319 24.9746C37.398 24.5882 37.4999 24.2085 37.6362 23.8409C37.7993 23.4094 38.0218 23.0212 38.2629 22.7471C38.6034 22.3596 38.9473 22.1691 39.3138 22.1644C39.443 22.1625 39.5716 22.1784 39.6961 22.2116C39.9659 22.2859 40.1561 22.4366 40.2617 22.6598C40.2904 22.7243 40.3036 22.7952 40.3001 22.8665C40.2967 22.9378 40.2767 23.0076 40.2419 23.0699C40.1784 23.183 40.0742 23.239 39.9497 23.2619C39.9276 23.2657 39.9052 23.2675 39.8828 23.2672C39.8847 23.2922 39.8897 23.3168 39.8978 23.3403C39.9566 23.5503 40.1418 23.7031 40.4317 23.7829C40.5019 23.802 40.5734 23.8161 40.6457 23.8251C41.0748 23.8795 41.3345 23.662 41.5448 23.1633C41.6269 22.9687 41.6989 22.8057 41.6305 22.561C41.5825 22.3893 41.3539 22.2328 41.1691 22.1828C41.0037 22.1381 40.9041 22.1582 40.8357 22.2007C40.8357 22.1917 40.8279 22.1744 40.827 22.1657C40.8172 22.0985 40.829 22.0294 40.8607 21.969C40.9106 21.8777 40.987 21.8044 41.0791 21.7594C41.2147 21.6929 41.364 21.6625 41.513 21.6711C41.6073 21.6743 41.701 21.6877 41.7923 21.7111C41.8132 21.7169 41.8833 21.7358 41.9139 21.747C41.9272 21.7517 41.931 21.7462 41.9445 21.7364C42.0256 21.6778 42.1319 21.6627 42.3039 21.7144C42.4362 21.754 42.6118 21.8099 42.7387 21.8946C42.8229 21.9492 42.8984 22.0167 42.9626 22.0948C43.0389 22.1923 43.0842 22.3117 43.0928 22.4373C43.0985 22.6527 43.0738 22.8684 43.0196 23.0776C42.8976 23.5579 42.8836 23.8663 42.9658 24.0749C43.0984 24.4114 43.2613 24.5188 43.4737 24.5924L43.497 24.5991C43.9054 24.7114 44.0908 24.6191 44.1854 24.5357C44.2109 24.5143 44.2355 24.4915 44.2588 24.4675C44.2314 24.4545 44.2051 24.4392 44.1802 24.4218C44.1345 24.388 44.0978 24.3432 44.0732 24.2911C44.0486 24.2391 44.0369 24.1814 44.039 24.1232C44.0399 24.0506 44.0578 23.9791 44.0913 23.9146C44.1248 23.8502 44.1728 23.7948 44.2313 23.7531C44.4886 23.5746 44.7873 23.6159 44.9423 23.6563L44.9597 23.661C45.0787 23.6933 45.1919 23.7444 45.2951 23.8124C45.4248 23.8952 45.5382 24.002 45.6297 24.1275C45.7935 24.3605 45.8614 24.6358 45.9023 24.8493C45.9694 25.1996 45.9616 25.6711 45.8811 26.1103Z" fill="#00AEEF"/>
<defs>
<clipPath id="clip0_5053_10322">
<rect width="24.0075" height="38.216" fill="white" transform="translate(34.918 4.81836) rotate(15.3838)"/>
</clipPath>
</defs>
</svg>
