<svg width="96" height="96" viewBox="0 0 96 96" fill="none" xmlns="http://www.w3.org/2000/svg">
<path d="M19.457 36.2998L20.1895 37.9867L19.5094 36.2998H19.457Z" fill="#F6F6F6"/>
<path d="M92.6558 36.2998H87.6766L69.6344 13.4795L51.6445 36.0316V74.4144H57.2778V52.0958H71.5877V74.4144H90.5542V40.1234L92.6645 36.2998H92.6558ZM76.2618 29.4312L75.7037 31.6804H65.6928L65.1696 29.4312H76.2618ZM65.3527 45.4349L65.6928 44.1978H65.7103V31.689H75.7211V44.1978H75.7037L76.0699 45.4349H65.3527ZM76.2356 64.2932L76.5408 63.1427H76.5583V54.2152H85.636V63.1513H85.6186L85.9412 64.3019H76.2356V64.2932ZM85.6186 54.1893H76.5408L76.0699 52.0958H86.1156L85.6186 54.1893Z" fill="#F6F6F6"/>
<path d="M26.3871 57.373H21.3206V50.911H49.9753V59.1117L50.1672 38.6963H20.4922L21.3206 40.5994V74.4233H26.3871V57.373ZM31.8372 50.8937L32.1424 49.7431H32.1599V40.8157H41.2376V49.7604H41.2289L41.5516 50.9023H31.8372V50.8937ZM41.7173 38.7049L41.2202 40.7984H32.1424L31.6628 38.7049H41.7173Z" fill="#F6F6F6"/>
<path d="M49.8354 74.3619L47.8298 74.4051V58.462L39.1095 57.3721H26.3867V74.4224H49.8354V74.3619Z" fill="#00395D"/>
<path d="M59.4195 54.172H59.5852H69.4565H69.6222V74.4231H71.5843V52.1045H57.2656V74.4231H59.4195V54.172Z" fill="#E2E2E2"/>
<path d="M69.625 13.4706L69.6337 13.4793L71.1074 11.6367L69.625 13.4706Z" fill="#CBCBCB"/>
<path d="M69.6328 13.4793L87.675 36.2996H90.23L71.1065 11.6367L69.6328 13.4793Z" fill="#CBCBCB"/>
<path d="M20.4665 38.687H20.4927L20.1875 37.9863L20.4665 38.687Z" fill="#CBCBCB"/>
<path d="M51.2773 36.2994H51.4256L51.6436 36.0313V35.8496L51.2773 36.2994Z" fill="#CBCBCB"/>
<path d="M49.9763 59.1028V74.3625V74.4231H51.6419V36.2998H51.2757H19.5078L20.188 37.9867L20.4932 38.6874H50.1682L49.9763 59.1028Z" fill="#CBCBCB"/>
<path d="M49.9755 74.3623H49.8359V74.4229H49.9755V74.3623Z" fill="#CBCBCB"/>
<path d="M51.642 36.2996L69.6231 13.4707L71.1056 11.6367L90.2291 36.2996H92.6533V34.9328L71.8206 8.03809H70.5824L65.3502 14.2838H33.5126L18.5312 34.5868V36.2996H19.4556H51.642Z" fill="#8E8E8E"/>
<path d="M71.5833 74.5786V76.3173H57.2647V74.5786H21.3199V74.4229H20.2734V76.3779H91.2388V74.4229H90.5411V74.5786H71.5833Z" fill="#8E8E8E"/>
<path d="M90.5525 74.4229H71.5859V74.5786H90.5525V74.4229Z" fill="#8E8E8E"/>
<path d="M57.2651 74.5786V74.4229H51.6406H49.975V74.5267H26.3868V74.4229H21.3203V74.5786H57.2651Z" fill="#8E8E8E"/>
<path d="M49.8354 74.4229H26.3867V74.5267H49.975V74.4229H49.8354Z" fill="#8E8E8E"/>
<path d="M71.5755 74.5781H57.2656V76.3169H71.5755V74.5781Z" fill="#8E8E8E"/>
<path d="M71.5843 74.5786V74.4229H69.6222H69.4565H67.6427H59.4195H57.2656V74.5786H71.5843Z" fill="#8E8E8E"/>
<path d="M41.2214 49.7514H41.2301V40.8066H32.1523V49.7341H41.2127V49.7514H41.2214ZM32.6668 49.3967L32.6407 45.0541L32.6232 41.1873L40.7156 41.17L40.7331 45.0281L40.7592 49.3707L32.6668 49.3967Z" fill="#8E8E8E"/>
<path d="M40.7252 41.1611L32.6328 41.1784L32.6503 45.0453L32.6764 49.3879L40.7688 49.3619L40.7426 45.0193L40.7252 41.1611ZM35.2227 49.0072H33.1299V46.7754H35.2227V49.0072ZM35.2227 46.4207H33.1299V44.1888H35.2227V46.4207ZM35.2227 43.7996H33.1299V41.5677H35.2227V43.7996ZM37.7778 49.0072H35.6849V46.7754H37.7778V49.0072ZM37.7778 46.4207H35.6849V44.1888H37.7778V46.4207ZM37.7778 43.7996H35.6849V41.5677H37.7778V43.7996ZM38.2312 41.5677H40.3153L40.3328 43.7909H38.2399V42.6144V41.5677H38.2312ZM40.3328 49.0072H38.2399V46.7754H40.3328V49.0072ZM40.3328 46.4207H38.2399V44.1888H40.3328V46.4207Z" fill="#F6F6F6"/>
<path d="M35.2218 41.5684H33.1289V43.8002H35.2218V41.5684Z" fill="#8E8E8E"/>
<path d="M37.7764 41.5684H35.6836V43.8002H37.7764V41.5684Z" fill="#8E8E8E"/>
<path d="M35.2218 44.1895H33.1289V46.4213H35.2218V44.1895Z" fill="#8E8E8E"/>
<path d="M40.3242 43.7914L40.3068 41.5596L38.2227 41.5682L38.2314 42.6149V43.8001L40.3242 43.7914Z" fill="#8E8E8E"/>
<path d="M37.7764 44.1895H35.6836V46.4213H37.7764V44.1895Z" fill="#8E8E8E"/>
<path d="M40.3311 44.1895H38.2383V46.4213H40.3311V44.1895Z" fill="#8E8E8E"/>
<path d="M35.2218 46.7754H33.1289V49.0073H35.2218V46.7754Z" fill="#8E8E8E"/>
<path d="M37.7764 46.7754H35.6836V49.0073H37.7764V46.7754Z" fill="#8E8E8E"/>
<path d="M40.3311 46.7754H38.2383V49.0072H40.3311V46.7754Z" fill="#8E8E8E"/>
<path d="M41.2127 40.7897L41.7185 38.6963H31.6641L32.1437 40.7897H41.2127Z" fill="#8E8E8E"/>
<path d="M32.1538 49.7517V49.7344H32.1451L31.8398 50.8936H41.5455L41.2228 49.7517H32.1538Z" fill="#8E8E8E"/>
<path d="M41.0383 48.5204L32.3164 50.9541L32.3211 50.9708L41.043 48.5371L41.0383 48.5204Z" fill="#8E8E8E"/>
<path d="M47.8296 74.4051L49.8353 74.3619L49.9748 59.1022V57.3721H39.1094L47.8296 58.462V74.4051Z" fill="#00264C"/>
<path d="M49.9755 74.3622V59.1025L49.8359 74.3622H49.9755Z" fill="#0051CA"/>
<path d="M67.6451 55.4868L59.5876 54.1719H59.4219V74.423H67.6451V55.4868Z" fill="#FFC9C9"/>
<path d="M69.6227 54.1719H69.457V74.423H69.6227V54.1719Z" fill="#F6BEBD"/>
<path d="M67.6434 74.423H69.4572V54.1719H59.5859L67.6434 55.4868V74.423Z" fill="#F6BEBD"/>
<path d="M75.7179 44.1973V31.6885H65.707V44.1973H75.7179ZM66.2738 43.7907L66.2215 32.0951L75.1598 32.0691L75.2034 43.7647L66.2738 43.782V43.7907Z" fill="#8E8E8E"/>
<path d="M66.2227 32.1042L66.275 43.7998L75.2045 43.7825L75.1609 32.0869L66.2227 32.1129V32.1042ZM74.6987 32.5108L74.7162 34.907H72.414L72.3966 32.5194H74.6987V32.5108ZM69.0393 43.35H66.7372V40.9538H69.0393V43.35ZM69.0742 40.4953H66.772V38.0991H69.0742V40.4953ZM69.0742 37.7185H66.772V35.3222H69.0742V37.7185ZM69.0742 34.907H66.772V32.5108H69.0742V34.907ZM71.8559 43.35H69.5538V40.9538H71.8559V43.35ZM71.8908 40.4953H69.5887V38.0991H71.8908V40.4953ZM71.8908 37.7185H69.5887V35.3222H71.8908V37.7185ZM71.8908 34.907H69.5887V32.5108H71.8908V34.907ZM74.6813 43.35H72.3791V40.9538H74.6813V43.35ZM74.7162 40.4953H72.414V38.0991H74.7162V40.4953ZM74.7162 37.7185H72.414V35.3222H74.7162V37.7185Z" fill="#F6F6F6"/>
<path d="M69.0756 32.5107H66.7734V34.907H69.0756V32.5107Z" fill="#8E8E8E"/>
<path d="M71.8998 32.5107H69.5977V34.907H71.8998V32.5107Z" fill="#8E8E8E"/>
<path d="M69.0756 35.3311H66.7734V37.7273H69.0756V35.3311Z" fill="#8E8E8E"/>
<path d="M74.7141 34.8982L74.6967 32.502L72.3945 32.5106L72.412 34.9068L74.7141 34.8982Z" fill="#8E8E8E"/>
<path d="M71.8998 35.3311H69.5977V37.7273H71.8998V35.3311Z" fill="#8E8E8E"/>
<path d="M74.724 35.3311H72.4219V37.7273H74.724V35.3311Z" fill="#8E8E8E"/>
<path d="M69.0756 38.1074H66.7734V40.5036H69.0756V38.1074Z" fill="#8E8E8E"/>
<path d="M71.8998 38.1074H69.5977V40.5036H71.8998V38.1074Z" fill="#8E8E8E"/>
<path d="M74.724 38.1074H72.4219V40.5036H74.724V38.1074Z" fill="#8E8E8E"/>
<path d="M69.0365 40.9619H66.7344V43.3581H69.0365V40.9619Z" fill="#8E8E8E"/>
<path d="M71.8568 40.9619H69.5547V43.3581H71.8568V40.9619Z" fill="#8E8E8E"/>
<path d="M74.681 40.9619H72.3789V43.3581H74.681V40.9619Z" fill="#8E8E8E"/>
<path d="M75.7029 31.6798L76.261 29.4307H65.1602L65.6834 31.6798H75.7029Z" fill="#8E8E8E"/>
<path d="M75.7025 44.1973H65.7004H65.6829L65.3516 45.4343H76.0687L75.7025 44.1973Z" fill="#8E8E8E"/>
<path d="M85.615 63.1509H85.6325V54.2148H76.5547V63.1423H85.615V63.1509ZM77.0605 62.7963L77.0343 58.4623L77.0169 54.5955L85.1092 54.5782L85.1267 58.4363L85.1528 62.779L77.0605 62.7963Z" fill="#8E8E8E"/>
<path d="M85.1197 54.5693L77.0273 54.5866L77.0448 58.4535L77.0709 62.7874L85.1633 62.7701L85.1372 58.4275L85.1197 54.5693ZM79.6173 62.4154H77.5331V60.1836H79.6173V62.4154ZM79.6173 59.8289H77.5331V57.5971H79.6173V59.8289ZM79.6173 57.2078H77.5331V54.9759H79.6173V57.2078ZM82.1723 62.4154H80.0794V60.1836H82.1723V62.4154ZM82.1723 59.8289H80.0794V57.5971H82.1723V59.8289ZM82.1723 57.2078H80.0794V54.9759H82.1723V57.2078ZM82.6257 54.9759H84.7186V56.0226V57.1991H82.6432L82.6257 54.9673V54.9759ZM84.736 62.4154H82.6519V60.1836H84.736V62.4154ZM84.736 59.8289H82.6519V57.5971H84.736V59.8289Z" fill="#F6F6F6"/>
<path d="M79.6154 54.9766H77.5312V57.2084H79.6154V54.9766Z" fill="#8E8E8E"/>
<path d="M82.171 54.9766H80.0781V57.2084H82.171V54.9766Z" fill="#8E8E8E"/>
<path d="M79.6154 57.5977H77.5312V59.8295H79.6154V57.5977Z" fill="#8E8E8E"/>
<path d="M84.7091 56.0232V54.9678L82.625 54.9764L82.6424 57.2083L84.7179 57.1996L84.7091 56.0232Z" fill="#8E8E8E"/>
<path d="M82.171 57.5977H80.0781V59.8295H82.171V57.5977Z" fill="#8E8E8E"/>
<path d="M84.7248 57.5977H82.6406V59.8295H84.7248V57.5977Z" fill="#8E8E8E"/>
<path d="M79.6154 60.1836H77.5312V62.4155H79.6154V60.1836Z" fill="#8E8E8E"/>
<path d="M82.171 60.1836H80.0781V62.4155H82.171V60.1836Z" fill="#8E8E8E"/>
<path d="M84.7248 60.1836H82.6406V62.4155H84.7248V60.1836Z" fill="#8E8E8E"/>
<path d="M76.5373 54.1979H85.6151L86.1121 52.1045H76.0664L76.5373 54.1979Z" fill="#8E8E8E"/>
<path d="M76.557 63.1512V63.1426H76.5396L76.2344 64.2931H85.94L85.6174 63.1512H76.557Z" fill="#8E8E8E"/>
<path d="M49.975 50.9014H21.3203V57.3634H49.975V50.9014Z" fill="#F6F6F6"/>
<path d="M65.3506 14.2832L47.9014 36.299H39.9922L47.1515 27.2591L65.3506 14.2832Z" fill="#8E8E8E"/>
<path d="M91.7519 74.2069H76.4492V87.8093H91.7519V74.2069Z" fill="#001276"/>
<path d="M84.9502 74.207H84.1V87.8094H84.9502V74.207Z" fill="#0000FF"/>
<path d="M96.0012 67.4062H85.7995V74.2074H96.0012V67.4062Z" fill="#FFC9C9"/>
<path d="M91.7495 67.4062V69.9567H92.5996V67.4062H91.7495Z" fill="#8E8E8E"/>
<path d="M5.67917 79.79C5.66712 79.81 5.65658 79.8285 5.64453 79.8485C5.65507 79.8285 5.66712 79.81 5.67917 79.79Z" fill="#8E8E8E"/>
<path d="M5.79514 79.5967C5.7861 79.6105 5.77706 79.6228 5.76953 79.6367C5.77857 79.6228 5.7861 79.6105 5.79514 79.5967Z" fill="#8E8E8E"/>
<path d="M5.55958 79.9961C5.54754 80.0192 5.53549 80.0422 5.52344 80.0653C5.53549 80.0422 5.54754 80.0192 5.55958 79.9961Z" fill="#8E8E8E"/>
<path d="M5.45171 80.21C5.43816 80.2361 5.42611 80.2638 5.41406 80.2899C5.42611 80.2638 5.43816 80.2361 5.45171 80.21Z" fill="#8E8E8E"/>
<path d="M4.89844 81.9788C4.91199 81.8912 4.92856 81.8035 4.94513 81.7158C4.92705 81.8035 4.91199 81.8896 4.89844 81.9788Z" fill="#8E8E8E"/>
<path d="M4.99981 81.4648C4.98325 81.5341 4.96668 81.6033 4.95312 81.674C4.96819 81.6033 4.98325 81.5341 4.99981 81.4648Z" fill="#8E8E8E"/>
<path d="M5.06622 81.2188C5.04965 81.2772 5.03459 81.3341 5.01953 81.3926C5.03459 81.3341 5.04965 81.2757 5.06622 81.2188Z" fill="#8E8E8E"/>
<path d="M26.2144 55.8008H18.9429C17.1506 55.8008 16.1702 56.4043 14.5767 58.6723L8.60584 66.0426L2.48821 70.7935C2.48821 70.7935 0.93096 71.7427 0.93096 73.0654L0.902344 79.4373C0.91138 79.4373 0.920417 79.4373 0.93096 79.4373H5.90155C6.98896 77.8439 8.79477 76.801 10.8401 76.801C13.7694 76.801 16.2078 78.9374 16.747 81.769H27.8685V58.5078C27.8685 57.0189 26.6757 55.8008 25.2178 55.8008H26.2144ZM25.7655 65.6024V67.102H13.2137C12.1142 67.102 11.5073 65.7347 12.2001 64.8211L16.4367 59.5579C17.0422 58.7504 17.863 57.723 18.8269 57.7291H24.4929C25.2354 57.7291 25.8408 58.4043 25.8408 59.2287L25.7655 65.6024Z" fill="#E8E8C9"/>
<path d="M5.22459 80.7393C5.20652 80.7869 5.18844 80.8362 5.17188 80.8838C5.18844 80.8346 5.20652 80.7869 5.22459 80.7393Z" fill="#8E8E8E"/>
<path d="M5.331 80.4775C5.3069 80.5329 5.2828 80.5883 5.26172 80.6436C5.28431 80.5867 5.30841 80.5314 5.331 80.4775Z" fill="#8E8E8E"/>
<path d="M5.13954 80.9766C5.12298 81.0289 5.1049 81.0796 5.08984 81.1334C5.10641 81.0812 5.12298 81.0289 5.13954 80.9766Z" fill="#8E8E8E"/>
<path d="M16.7422 81.7686V84.0295H28.3673V81.7686H16.7482H16.7422Z" fill="#8E8E8E"/>
<path d="M24.4943 57.7295H18.8283C17.8644 57.7234 17.0451 58.7508 16.4381 59.5583L12.2014 64.8215C11.5071 65.7351 12.1156 67.1025 13.2151 67.1025H25.7669V65.6028L25.8422 59.2291C25.8422 58.4047 25.2353 57.7295 24.4943 57.7295Z" fill="#606060"/>
<path d="M0.902155 79.4375C0.403635 79.4529 0 79.8728 0 80.3849V82.9197C0 83.4426 0.418696 83.8686 0.929265 83.8686H4.89077C4.84709 83.5672 4.82299 83.2596 4.82299 82.9458C4.82299 82.6151 4.8486 82.2921 4.8983 81.9768C4.91185 81.8892 4.92842 81.8015 4.94499 81.7138C4.948 81.7 4.95101 81.6861 4.95402 81.6723C4.96908 81.6015 4.98415 81.5323 5.00071 81.4631C5.00674 81.4385 5.01276 81.4154 5.01879 81.3908C5.03385 81.3324 5.04891 81.2739 5.06547 81.217C5.07301 81.1878 5.08204 81.1601 5.09108 81.1309C5.10765 81.0786 5.12421 81.0263 5.14078 80.974C5.15132 80.9433 5.16036 80.9125 5.17241 80.8817C5.18897 80.8325 5.20705 80.7848 5.22512 80.7372C5.23717 80.7049 5.24922 80.6726 5.26127 80.6418C5.28386 80.5864 5.30645 80.5295 5.33055 80.4757C5.35766 80.4126 5.38627 80.3496 5.41489 80.288C5.42694 80.2619 5.43899 80.2342 5.45254 80.2081C5.47664 80.1604 5.50074 80.1127 5.52634 80.065C5.53839 80.042 5.55044 80.0189 5.56249 79.9958C5.5896 79.9466 5.61671 79.8974 5.64382 79.8497C5.65436 79.8297 5.66641 79.8112 5.67846 79.7913C5.70858 79.7405 5.7387 79.6897 5.77033 79.639C5.77937 79.6251 5.7869 79.6128 5.79593 79.599C5.83057 79.5452 5.86522 79.4898 5.90136 79.4375H0.929265C0.920228 79.4375 0.911192 79.4375 0.900649 79.4375H0.902155Z" fill="#272727"/>
<path d="M10.842 77.9346C8.131 77.9346 5.93359 80.1786 5.93359 82.9471C5.93359 85.7156 8.131 87.9596 10.842 87.9596C13.553 87.9596 15.7504 85.7156 15.7504 82.9471C15.7504 80.1786 13.553 77.9346 10.842 77.9346ZM10.842 85.7971C9.30124 85.7971 8.05117 84.5205 8.05117 82.9471C8.05117 81.3737 9.30124 80.0971 10.842 80.0971C12.3827 80.0971 13.6328 81.3737 13.6328 82.9471C13.6328 84.5205 12.3827 85.7971 10.842 85.7971Z" fill="#272727"/>
<path d="M10.9708 85.7924C12.5106 85.721 13.7021 84.3885 13.6322 82.8161C13.5622 81.2437 12.2574 80.0269 10.7176 80.0983C9.17789 80.1697 7.98637 81.5022 8.05629 83.0746C8.12621 84.647 9.43109 85.8638 10.9708 85.7924Z" fill="#8E8E8E"/>
<path d="M70.9582 77.0508H50.668L70.9582 77.0631V77.0508Z" fill="#8E8E8E"/>
<path d="M70.1701 48.5791H69.8689H43.0076H32.5236H32.2179H31.0295H29.3984V77.0506H29.424V77.0398L50.6676 77.0506H70.9578H74.1327V48.5791H70.1701Z" fill="#FFCB05"/>
<path d="M68.1992 80.9078C68.1992 80.9078 68.3077 80.917 68.2293 80.9063C68.2218 80.9063 68.2113 80.9062 68.1992 80.9078Z" fill="#272727"/>
<path d="M70.9557 77.0504V77.0612L50.6654 77.0504L29.4219 77.0381V80.8971L31.8557 84.027H34.755C34.6797 83.6779 34.639 83.3164 34.639 82.9458C34.639 80.1773 36.8364 77.9332 39.5474 77.9332C42.2584 77.9332 44.4558 80.1773 44.4558 82.9458C44.4558 83.3164 44.4151 83.6794 44.3398 84.027H52.2634C52.2634 84.027 54.6325 83.4964 57.455 82.8735C57.4926 80.1388 59.6749 77.9317 62.3618 77.9317C64.3604 77.9317 66.0774 79.1514 66.844 80.9002L71.9376 80.7617V78.4362H74.129V77.0473H70.9541L70.9557 77.0504Z" fill="#272727"/>
<path d="M39.549 77.9346C36.838 77.9346 34.6406 80.1786 34.6406 82.9471C34.6406 83.3178 34.6813 83.6808 34.7566 84.0284C35.2416 86.277 37.2025 87.9596 39.549 87.9596C41.8955 87.9596 43.858 86.277 44.3414 84.0284C44.4167 83.6792 44.4574 83.3178 44.4574 82.9471C44.4574 80.1786 42.26 77.9346 39.549 77.9346ZM39.549 85.7971C38.0083 85.7971 36.7582 84.5205 36.7582 82.9471C36.7582 81.3737 38.0083 80.0971 39.549 80.0971C41.0898 80.0971 42.3398 81.3737 42.3398 82.9471C42.3398 84.5205 41.0898 85.7971 39.549 85.7971Z" fill="#272727"/>
<path d="M39.5486 85.7977C41.0899 85.7977 42.3394 84.5217 42.3394 82.9477C42.3394 81.3737 41.0899 80.0977 39.5486 80.0977C38.0073 80.0977 36.7578 81.3737 36.7578 82.9477C36.7578 84.5217 38.0073 85.7977 39.5486 85.7977Z" fill="#8E8E8E"/>
<path d="M62.3615 77.9346C59.6746 77.9346 57.4923 80.1401 57.4546 82.8764C57.4546 82.901 57.4531 82.924 57.4531 82.9486C57.4531 85.7172 59.6505 87.9612 62.3615 87.9612C65.0725 87.9612 67.2699 85.7172 67.2699 82.9486C67.2699 82.2211 67.1163 81.529 66.8437 80.9046C66.0771 79.1558 64.3601 77.9361 62.3615 77.9361V77.9346ZM62.3615 85.7971C60.8208 85.7971 59.5707 84.5205 59.5707 82.9471C59.5707 81.3737 60.8208 80.0971 62.3615 80.0971C63.9023 80.0971 65.1523 81.3737 65.1523 82.9471C65.1523 84.5205 63.9023 85.7971 62.3615 85.7971Z" fill="#272727"/>
<path d="M65.1379 83.225C65.2896 81.6586 64.1692 80.2632 62.6354 80.1082C61.1015 79.9533 59.7351 81.0974 59.5834 82.6638C59.4316 84.2302 60.552 85.6256 62.0858 85.7806C63.6197 85.9356 64.9861 84.7914 65.1379 83.225Z" fill="#8E8E8E"/>
<rect x="8.60547" y="74.1025" width="17.2091" height="0.671677" rx="0.335838" fill="#D9D9D9"/>
<path d="M0.746094 73.3184C0.746094 73.3184 1.57774 73.3184 1.98991 73.3184C2.40207 73.3184 2.73619 73.6574 2.73619 74.0757V75.5903C2.73619 76.0086 2.40207 76.3477 1.98991 76.3477C1.57774 76.3477 0.746094 76.3477 0.746094 76.3477V73.3184Z" fill="#FFCB05"/>
<rect x="0.996094" y="73.3184" width="0.497525" height="3.0293" fill="#FFBA00"/>
</svg>
