<svg width="58" height="60" viewBox="0 0 58 60" fill="none" xmlns="http://www.w3.org/2000/svg">
<path d="M9.95023 56.6764C9.74283 56.6764 9.53521 56.6639 9.32771 56.6639V59.8405H8.32275V51.5246C8.79793 51.4213 9.28064 51.3679 9.76463 51.3652C10.8132 51.3652 11.8072 51.549 12.3207 52.7143C12.4897 53.0863 12.5759 53.4988 12.5719 53.9164C12.5719 55.7315 11.4905 56.6764 9.95023 56.6764ZM9.97202 52.2977C9.75683 52.2973 9.54177 52.3095 9.32771 52.3342V55.7194C9.53521 55.7315 9.75362 55.7439 9.96114 55.7439C10.9661 55.7439 11.5451 55.1551 11.5451 54.0143C11.5451 52.8491 10.9989 52.2977 9.97202 52.2977Z" fill="#6C1C73"/>
<path d="M16.1402 54.8354C15.9786 54.7978 15.8136 54.7812 15.6487 54.786C15.414 54.798 15.1855 54.8748 14.9836 55.0096C14.7816 55.1443 14.6124 55.3329 14.4908 55.5586V59.8395H13.5732V54.0133H14.3052L14.4034 54.6142C14.5558 54.3807 14.7547 54.1904 14.9842 54.0585C15.2136 53.9265 15.4674 53.8565 15.7252 53.854C15.892 53.8534 16.0579 53.8824 16.2167 53.9399L16.1402 54.8354Z" fill="#6C1C73"/>
<path d="M18.9695 59.9989C17.3201 59.9989 16.457 58.6498 16.457 56.8957C16.457 55.1911 17.4075 53.8296 19.0023 53.8296C20.6079 53.8296 21.5036 55.2031 21.5036 56.8957C21.5036 58.6129 20.5861 59.9989 18.9695 59.9989ZM19.0023 54.6387C17.9099 54.6387 17.4511 55.8164 17.4511 56.8957C17.4511 57.9751 17.8771 59.1893 18.9695 59.1893C20.0617 59.1893 20.4985 57.9751 20.4985 56.8957C20.4985 55.8289 20.0946 54.6387 19.0023 54.6387Z" fill="#6C1C73"/>
<path d="M24.1721 59.9994C23.5058 59.9994 23.0799 59.7052 22.8504 59.1284C22.7412 58.8466 22.6974 58.3927 22.6974 57.6569V54.7252H21.9438V54.0264H22.6974V52.9226L23.6261 52.5176V54.0264H25.0789V54.7132H23.6261V57.7184C23.6125 58.0451 23.6456 58.3723 23.7242 58.6873C23.7701 58.8345 23.8585 58.9602 23.9752 59.0446C24.092 59.129 24.2305 59.1673 24.3688 59.1533C24.7143 59.1247 25.043 58.9744 25.308 58.7238L25.4501 59.472C25.0898 59.8056 24.6391 59.9916 24.1721 59.9994V59.9994Z" fill="#6C1C73"/>
<path d="M30.1688 57.141C29.7101 57.1535 29.2733 57.141 28.8473 57.141H26.7391C26.7718 58.2083 27.3069 59.1648 28.3338 59.1648C28.9413 59.1587 29.5281 58.9159 29.9939 58.478L30.1034 59.3241C29.5541 59.7797 28.8854 60.0171 28.2028 59.9989C26.5532 59.9989 25.7231 58.6129 25.7231 56.8838C25.7231 55.2276 26.5752 53.8296 28.159 53.8296C28.5576 53.8291 28.948 53.9568 29.284 54.1977C29.9503 54.6882 30.2124 55.5098 30.2124 56.4053C30.2135 56.6514 30.199 56.8972 30.1688 57.141V57.141ZM28.0936 54.6637C27.2415 54.6637 26.8263 55.4608 26.7498 56.3319H29.2293C29.2293 56.2949 29.2404 56.258 29.2404 56.2215C29.2404 55.4239 28.8582 54.6637 28.0936 54.6637V54.6637Z" fill="#6C1C73"/>
<path d="M33.4572 59.9991C31.9283 59.9991 30.8901 58.687 30.8901 57.0063C30.8901 55.1788 31.9501 53.8298 33.5884 53.8298C34.1557 53.8159 34.7117 54.0096 35.1723 54.3817L34.9868 55.1788C34.589 54.8549 34.1126 54.6752 33.6213 54.6639C32.5288 54.6639 31.8847 55.7063 31.8847 56.8715C31.8847 58.0492 32.4416 59.1775 33.5884 59.1775C34.1145 59.1731 34.6277 58.9939 35.0634 58.6625L35.2377 59.4347C34.7004 59.7996 34.0851 59.9946 33.4572 59.9991V59.9991Z" fill="#6C1C73"/>
<path d="M37.8384 59.9994C37.1721 59.9994 36.7459 59.7052 36.5164 59.1284C36.4074 58.8466 36.3638 58.3927 36.3638 57.6569V54.7252H35.6099V54.0264H36.3638V52.9226L37.2922 52.5176V54.0264H38.7449V54.7132H37.2922V57.7184C37.2784 58.0452 37.3116 58.3723 37.3905 58.6873C37.4363 58.8345 37.5246 58.9603 37.6414 59.0447C37.7582 59.1291 37.8967 59.1673 38.035 59.1533C38.3806 59.1246 38.7093 58.9743 38.9744 58.7238L39.1163 59.472C38.756 59.8056 38.3053 59.9916 37.8384 59.9994V59.9994Z" fill="#6C1C73"/>
<path d="M43.8244 57.141C43.3658 57.1535 42.929 57.141 42.5029 57.141H40.3949C40.4274 58.2083 40.9625 59.1648 41.9895 59.1648C42.597 59.1586 43.1838 58.9159 43.6496 58.478L43.759 59.3241C43.2097 59.7797 42.541 60.0171 41.8583 59.9989C40.2089 59.9989 39.3789 58.6129 39.3789 56.8838C39.3789 55.2276 40.2312 53.8296 41.8147 53.8296C42.2133 53.8291 42.6037 53.9568 42.9397 54.1977C43.606 54.6882 43.8684 55.5098 43.8684 56.4053C43.8695 56.6514 43.8547 56.8972 43.8244 57.141ZM41.7493 54.6637C40.8971 54.6637 40.4821 55.4608 40.4056 56.3319H42.8854C42.8854 56.2949 42.8961 56.258 42.8961 56.2215C42.8961 55.4239 42.514 54.6637 41.7493 54.6637V54.6637Z" fill="#6C1C73"/>
<path d="M48.3902 59.8395L48.2808 59.3241C47.8733 59.7486 47.3403 59.9889 46.7845 59.9988C45.3864 59.9988 44.5234 58.7112 44.5234 56.9691C44.5234 55.1296 45.6813 53.854 46.9264 53.854C47.373 53.8593 47.809 54.0084 48.1825 54.2835V51.168H49.1002V59.8395H48.3902ZM48.1825 55.1416C47.8437 54.8727 47.4396 54.7271 47.0247 54.7246C46.3258 54.7246 45.5172 55.3993 45.5172 56.9202C45.5172 58.3431 46.0856 59.1402 46.9264 59.1402C47.1615 59.1368 47.3937 59.0808 47.6094 58.9755C47.8251 58.8702 48.0199 58.7177 48.1825 58.5269V55.1416Z" fill="#6C1C73"/>
<path d="M0 36.6644C0.67984 36.9852 1.41354 37.1368 2.15057 37.1086C6.46405 37.1086 9.87542 34.0185 12.2905 27.9254L15.0511 20.406H19.4196L20.3862 18.288H15.727L15.9036 17.8138C17.4838 13.5517 19.521 11.3911 21.9585 11.3911C22.6427 11.4344 23.3135 11.6222 23.9357 11.9447L25.3782 9.48345C24.5859 9.1071 23.7359 8.90741 22.8757 8.89551C18.5611 8.89551 15.1483 11.987 12.7323 18.0846L12.6514 18.288L4.68027 18.2868L3.71019 20.41L11.8754 20.406L10.812 23.2194H1.36579L0.396296 25.3234H10.1343L9.07756 28.191C7.49646 32.4547 5.47432 34.6161 3.06832 34.6161C2.39548 34.5751 1.73562 34.3916 1.12352 34.0753L0 36.6644Z" fill="#6C1C73"/>
<path d="M48.7745 21.2399C48.4767 20.8888 48.1195 20.6079 47.7238 20.4137C47.3282 20.2195 46.902 20.1159 46.4703 20.1089C45.9467 20.0963 45.4324 20.2652 44.9974 20.5926C44.8013 20.7275 44.6374 20.914 44.52 21.136C44.4026 21.358 44.3352 21.6088 44.3236 21.8666C44.3102 22.0456 44.3295 22.2257 44.3805 22.3959C44.4314 22.5662 44.5128 22.7229 44.6198 22.8565C44.9574 23.2323 45.3456 23.5461 45.7702 23.7862L47.2929 24.7395C47.7192 24.9843 48.0713 25.3655 48.3047 25.835C48.538 26.3045 48.6421 26.8411 48.6038 27.3771C48.5892 28.0419 48.4407 28.6944 48.1696 29.2857C47.8985 29.877 47.5118 30.3918 47.0383 30.7914C46.0688 31.6301 44.8637 32.049 43.4311 32.049C42.2491 32.0737 41.0869 31.7059 40.0903 30.9919L41.3136 28.7284C41.6622 29.1107 42.0721 29.4155 42.5216 29.6267C42.9515 29.8712 43.4224 30.0113 43.9036 30.0377C44.5082 30.0594 45.1008 29.8456 45.581 29.4327C45.8031 29.2386 45.984 28.9916 46.1109 28.7096C46.2378 28.4275 46.3074 28.1174 46.3148 27.8015C46.3248 27.6305 46.3038 27.459 46.2531 27.2974C46.2024 27.1358 46.1231 26.9874 46.0199 26.8612C45.6866 26.4823 45.305 26.1612 44.8875 25.9084L43.3566 24.9284C42.9191 24.6561 42.5604 24.2484 42.3234 23.7538C42.1056 23.2888 42.0061 22.7654 42.0359 22.241C42.0552 21.6486 42.196 21.0692 42.4474 20.5479C42.6987 20.0266 43.0538 19.5775 43.4849 19.2354C44.4241 18.4626 45.565 18.0616 46.729 18.0952C47.6006 18.0952 48.6368 18.4059 49.8377 19.0272L48.7745 21.2399Z" fill="#6C1C73"/>
<path d="M39.3907 20.8085C38.8741 20.3423 38.1658 20.1101 37.2585 20.1101C36.6005 20.099 35.9492 20.2581 35.3548 20.5749C34.7604 20.8917 34.2388 21.3579 33.8306 21.9372C32.902 23.2072 32.3746 24.787 32.3309 26.4294C32.2745 27.5185 32.5051 28.3876 33.0227 29.037C33.2456 29.34 33.5251 29.5842 33.8416 29.7522C34.158 29.9201 34.5035 30.0077 34.8535 30.0087C35.9872 29.9919 37.0914 29.6003 38.028 28.8827L37.6653 31.3236C36.6388 31.8133 35.5335 32.0604 34.4183 32.0496C32.9405 32.0496 31.8295 31.5745 31.0854 30.6243C30.3422 29.6739 30.0102 28.4117 30.0896 26.8377C30.2188 24.2751 30.9508 22.1775 32.2857 20.545C32.8985 19.7622 33.6553 19.1379 34.5038 18.7151C35.3522 18.2924 36.2723 18.0813 37.2005 18.0965C38.3485 18.0965 39.2406 18.3232 39.8744 18.7681L39.3907 20.8085Z" fill="#6C1C73"/>
<path d="M27.9776 21.2399C27.6801 20.8883 27.3229 20.6071 26.9272 20.4129C26.5314 20.2186 26.105 20.1152 25.6732 20.1088C25.1495 20.0963 24.635 20.2653 24.1998 20.5926C24.0041 20.728 23.8405 20.9146 23.7231 21.1365C23.6056 21.3583 23.5377 21.6088 23.5253 21.8666C23.5121 22.0457 23.5317 22.226 23.583 22.3962C23.6343 22.5665 23.7161 22.7231 23.8235 22.8564C24.1608 23.2332 24.5496 23.5471 24.9752 23.7862L26.4954 24.7395C26.9218 24.9842 27.274 25.3654 27.5075 25.8349C27.741 26.3043 27.8452 26.841 27.8071 27.377C27.7927 28.042 27.6444 28.6946 27.3732 29.286C27.1021 29.8773 26.7151 30.392 26.2414 30.7914C25.2697 31.6301 24.0672 32.0493 22.634 32.049C21.4522 32.0738 20.2902 31.7061 19.2939 30.9918L20.5165 28.7284C20.8651 29.1108 21.2752 29.4157 21.7249 29.6266C22.1554 29.8711 22.6268 30.0111 23.1086 30.0377C23.7132 30.0585 24.3057 29.8448 24.7864 29.4327C25.0085 29.2388 25.1895 28.9918 25.3162 28.7097C25.4428 28.4275 25.512 28.1173 25.5187 27.8015C25.5278 27.6306 25.5065 27.4594 25.4559 27.2979C25.4054 27.1365 25.3266 26.988 25.2242 26.8611C24.8911 26.4818 24.5092 26.1606 24.0912 25.9084L22.5611 24.9283C22.1232 24.6563 21.7642 24.2486 21.5271 23.7538C21.3091 23.2888 21.2092 22.7655 21.2382 22.241C21.2576 21.6485 21.3985 21.0691 21.6499 20.5478C21.9014 20.0265 22.2565 19.5774 22.6878 19.2353C23.6274 18.4629 24.7686 18.0619 25.9327 18.0952C26.8051 18.0952 27.8411 18.4058 29.0406 19.0272L27.9776 21.2399Z" fill="#6C1C73"/>
<path d="M31.7002 0C30.8965 0.000922202 30.0916 0.0186094 29.2841 0.0621184C26.9407 0.169375 24.607 0.464745 22.3011 0.945967C19.9592 1.41743 17.669 2.16873 15.4694 3.18706C14.3416 3.71135 13.2617 4.3571 12.2447 5.11524C11.723 5.50778 11.228 5.94326 10.7637 6.41808C10.2814 6.90706 9.84978 7.45558 9.47707 8.05324C9.08704 8.67719 8.78978 9.36807 8.59685 10.0989C8.4034 10.8445 8.34363 11.6258 8.421 12.3975C8.49866 13.1385 8.6829 13.8604 8.96652 14.5352C8.99634 14.6061 9.02945 14.6736 9.0606 14.7431C9.0867 14.7806 9.12006 14.811 9.15815 14.8318C9.19624 14.8527 9.23807 14.8636 9.28046 14.8636C9.35287 14.8651 9.42286 14.8343 9.47502 14.7779C9.52718 14.7214 9.55725 14.6441 9.55861 14.5628C9.55866 14.5224 9.5512 14.4826 9.53671 14.4457L9.53867 14.4479C9.51264 14.3784 9.48446 14.3097 9.4602 14.2393C9.24056 13.622 9.10937 12.9695 9.07151 12.3061C9.04002 11.654 9.11967 11.0011 9.30617 10.3825C9.4967 9.77092 9.77492 9.19836 10.1298 8.68745C10.8543 7.67542 11.7357 6.81873 12.7315 6.15866C13.7181 5.48957 14.7559 4.92063 15.8325 4.45861C16.9061 3.99737 18.0021 3.60502 19.1154 3.28347C20.2256 2.95521 21.3493 2.68987 22.4788 2.47328C24.7376 2.04758 27.0184 1.78502 29.3072 1.68723C31.5908 1.60132 33.8896 1.61553 36.172 1.72972C37.3147 1.78467 38.454 1.88628 39.5901 2.01421C40.7262 2.14157 41.8565 2.3173 42.981 2.5414C45.2405 2.95739 47.4427 3.69879 49.5333 4.74726C50.5818 5.29318 51.5754 5.96326 52.4972 6.7461C52.96 7.1477 53.3979 7.58431 53.8077 8.05288C54.2203 8.52982 54.5994 9.04191 54.9417 9.58457C55.6396 10.6982 56.164 11.9368 56.4928 13.2476C56.8215 14.5898 56.9799 15.9775 56.9633 17.3695C56.9032 20.1654 56.3377 22.9184 55.3012 25.4615C54.8028 26.7129 54.2207 27.9202 53.5601 29.0731C52.9068 30.2032 52.1851 31.2817 51.4002 32.3009C50.6321 33.3011 49.8034 34.2405 48.92 35.1126C48.4848 35.5458 48.0398 35.9614 47.5832 36.3531C47.1295 36.7498 46.6657 37.1248 46.1917 37.4781C44.352 38.8844 42.326 39.9556 40.1886 40.6519L39.8015 40.7696C39.6896 40.8034 39.5095 40.8518 39.4029 40.8795C39.1446 40.9461 38.8847 41.0047 38.6243 41.0527C38.1039 41.1557 37.5784 41.2221 37.0506 41.2518C36.5217 41.281 35.9917 41.2794 35.4629 41.2472C34.9328 41.2102 34.4026 41.141 33.8724 41.0481C31.6984 40.6109 29.5973 39.8003 27.6431 38.6447C25.5954 37.4532 23.6509 36.0501 21.8351 34.4535L21.8153 34.4313L21.8125 34.4341C21.8028 34.4258 21.7931 34.418 21.7839 34.4096C21.7853 34.4124 21.787 34.4147 21.7882 34.417C21.7509 34.3821 21.7039 34.3627 21.6553 34.3621C21.6005 34.3609 21.5475 34.3842 21.508 34.4269C21.4684 34.4696 21.4456 34.5282 21.4445 34.5898C21.4453 34.6419 21.4628 34.6921 21.4937 34.7311L21.4871 34.7371C23.018 36.9668 25.1441 39.1892 27.7272 41.1682L27.7142 41.1534C29.4353 42.4782 31.3531 43.4473 33.3776 44.0151C33.9807 44.1819 34.5932 44.3026 35.2108 44.3763C35.8322 44.4564 36.4578 44.4876 37.0831 44.4696C37.7132 44.4517 38.3417 44.3881 38.9645 44.2793C39.2763 44.2211 39.5868 44.1515 39.8961 44.0705C40.0734 44.0234 40.1766 43.9962 40.3465 43.9458L40.8043 43.8059C43.2254 42.9914 45.4868 41.6687 47.4689 39.9078C49.4797 38.1266 51.2403 36.0156 52.6914 33.6457C53.4281 32.4574 54.0912 31.2137 54.676 29.9233C55.268 28.631 55.7762 27.2923 56.1966 25.9178C57.0082 23.3551 57.4407 20.6605 57.477 17.9409V17.8395C57.4766 17.6761 57.4744 17.513 57.4705 17.3502C57.4459 15.9044 57.2522 14.4686 56.8942 13.0795C56.5353 11.7217 55.9859 10.4369 55.2666 9.27329C54.565 8.14904 53.7267 7.14057 52.7761 6.27722C51.8514 5.42828 50.8502 4.69033 49.7887 4.0754C47.6936 2.87276 45.4738 1.96637 43.1801 1.37699C42.0432 1.07113 40.8948 0.829486 39.7423 0.629959C38.5894 0.432631 37.4299 0.298132 36.2691 0.191204C35.1084 0.0824547 33.9444 0.0315202 32.7807 0.00785038C32.4677 0.00323937 32.1546 0.000622684 31.8413 0H31.7002Z" fill="url(#paint0_linear_5053_9677)"/>
<defs>
<linearGradient id="paint0_linear_5053_9677" x1="13.7513" y1="29.377" x2="57.5926" y2="15.1656" gradientUnits="userSpaceOnUse">
<stop offset="0.10573" stop-color="#6C1C73"/>
<stop offset="0.43194" stop-color="#1F3B72"/>
<stop offset="0.72024" stop-color="#AAC811"/>
<stop offset="0.96482" stop-color="#6C1C73"/>
</linearGradient>
</defs>
</svg>
