<svg width="72" height="60" viewBox="0 0 72 60" fill="none" xmlns="http://www.w3.org/2000/svg">
<path d="M46.9977 28.28C43.5069 14.7711 40.5758 6.26221 33.2762 6.26221C23.4394 6.26221 22.7671 25.5999 17.0625 42.8246C19.3804 48.5682 20.559 58.2161 26.4718 59.9967H30.317C42.2411 56.5314 40.8121 33.6063 47.0006 28.2769L46.9977 28.28Z" fill="#00AEEF"/>
<path d="M49.4195 25.3096C48.2053 25.3096 47.186 25.7342 46.3105 26.4822C50.0701 40.9102 54.4413 56.328 64.8476 59.9995H71.6502C57.7721 55.8511 59.9098 25.3096 49.4195 25.3096Z" fill="#FFCD00"/>
<path d="M46.3748 26.2734C39.8717 31.94 41.3711 56.3152 28.835 59.9997H64.66C54.3921 56.3053 50.0833 40.7881 46.3748 26.2734V26.2734Z" fill="#00395D"/>
<path d="M17.0633 42.8244C16.0393 40.2895 14.796 38.5151 12.8242 38.5151C6.46412 38.5151 8.83824 57.4277 0 59.9966H4.03656C10.5204 57.7708 14.3572 50.9947 17.0604 42.8244H17.0633Z" fill="#FFC9C9"/>
<path d="M17.0634 42.8247C14.3574 50.995 10.5206 57.7742 4.03955 59.9969H26.4727C20.5599 58.2132 19.3813 48.5652 17.0634 42.8247V42.8247Z" fill="#7A0FF9"/>
</svg>
