<svg width="96" height="96" viewBox="0 0 96 96" fill="none" xmlns="http://www.w3.org/2000/svg">
<g clip-path="url(#clip0_4551_19038)">
<path d="M12.0916 78.6295L14.0255 76.4061L12.9138 74.0553L13.956 72.0867L13.0527 69.7359L15.6467 67.8946L15.8436 66.6671L14.176 64.3511L14.1992 63.3552L16.3415 61.2592L18.8429 48.4167C25.9068 47.525 31.8938 42.1518 33.2255 34.7636C33.2834 34.4741 33.3181 34.1846 33.3644 33.8951C33.3644 33.8951 33.4802 32.4592 33.4802 32.4476C33.4802 31.6601 33.4802 31.1159 33.4802 31.1159V31.0927C33.1792 23.415 27.5859 16.6985 19.7114 15.2857C19.0745 15.1699 18.426 15.1004 17.7891 15.0541C17.7891 15.0541 17.7891 15.0657 17.7891 15.0773C17.2216 14.9846 16.3531 14.9846 15.0214 15.1236C7.79533 15.8647 1.63465 21.2958 0.279764 28.8114C-1.07512 36.3154 2.67687 43.3098 8.98809 46.6218L4.26336 78.4674L5.01607 81.9646L7.67952 83.7132L12.0221 81.9067L12.1032 78.6295H12.0916ZM14.9635 32.1697C12.4274 30.7106 11.5473 27.4681 13.0064 24.932C14.4655 22.396 17.708 21.5159 20.2441 22.975C22.7801 24.4341 23.6602 27.6765 22.2011 30.2126C20.742 32.7487 17.4995 33.6288 14.9635 32.1697Z" fill="#001276"/>
<path d="M30.573 8.62695C31.5341 8.62695 32.31 9.40283 32.31 10.364C32.31 11.3251 31.5341 12.101 30.573 12.101C29.6118 12.101 28.8359 11.3251 28.8359 10.364C28.8359 9.40283 29.6118 8.62695 30.573 8.62695Z" fill="#1A2142"/>
<path d="M34.0456 8.62695C35.0068 8.62695 35.7827 9.40283 35.7827 10.364C35.7827 11.3251 35.0068 12.101 34.0456 12.101C33.0845 12.101 32.3086 11.3251 32.3086 10.364C32.3086 9.40283 33.0845 8.62695 34.0456 8.62695Z" fill="#1A2142"/>
<path d="M37.5183 8.62695C38.4794 8.62695 39.2553 9.40283 39.2553 10.364C39.2553 11.3251 38.4794 12.101 37.5183 12.101C36.5571 12.101 35.7812 11.3251 35.7812 10.364C35.7812 9.40283 36.5571 8.62695 37.5183 8.62695Z" fill="#1A2142"/>
<path d="M40.9948 8.62695C41.956 8.62695 42.7319 9.40283 42.7319 10.364C42.7319 11.3251 41.956 12.101 40.9948 12.101C40.0337 12.101 39.2578 11.3251 39.2578 10.364C39.2578 9.40283 40.0337 8.62695 40.9948 8.62695Z" fill="#1A2142"/>
<path d="M27.0964 8.62695C28.0576 8.62695 28.8334 9.40283 28.8334 10.364C28.8334 11.3251 28.0576 12.101 27.0964 12.101C26.1352 12.101 25.3594 11.3251 25.3594 10.364C25.3594 9.40283 26.1352 8.62695 27.0964 8.62695Z" fill="#1A2142"/>
<path d="M23.6238 8.62695C24.5849 8.62695 25.3608 9.40283 25.3608 10.364C25.3608 11.3251 24.5849 12.101 23.6238 12.101C22.6626 12.101 21.8867 11.3251 21.8867 10.364C21.8867 9.40283 22.6626 8.62695 23.6238 8.62695Z" fill="#1A2142"/>
<path d="M20.1511 8.62695C21.1123 8.62695 21.8881 9.40283 21.8881 10.364C21.8881 11.3251 21.1123 12.101 20.1511 12.101C19.1899 12.101 18.4141 11.3251 18.4141 10.364C18.4141 9.40283 19.1899 8.62695 20.1511 8.62695Z" fill="#1A2142"/>
<path d="M17.8347 10.9434C18.7958 10.9434 19.5717 11.7192 19.5717 12.6804C19.5717 13.6416 18.7958 14.4174 17.8347 14.4174C16.8735 14.4174 16.0977 13.6416 16.0977 12.6804C16.0977 11.7192 16.8735 10.9434 17.8347 10.9434Z" fill="#1A2142"/>
<path d="M96.117 5.15332H45.8989C38.452 5.15332 32.4258 10.8508 32.4258 17.8916V90.8469H96.117V5.15332Z" fill="#4C3D6C"/>
<path d="M37.7748 73.233L38.3422 70.3379L36.1999 68.8556L35.7019 67.0144L37.2768 64.0383L33.9765 62.3476L33.2932 60.321L34.0923 57.4375L29.8423 45.0583C35.5166 40.7504 38.018 33.1191 35.4819 26.0552C35.3777 25.7772 35.2734 25.5109 35.1692 25.2445L34.5555 23.936C34.1733 23.2412 33.8954 22.778 33.8954 22.778H33.8838C29.7844 16.2583 21.5972 13.2359 14.0701 15.9456C13.4563 16.1656 12.8657 16.4204 12.2867 16.7099C12.2867 16.7099 12.2867 16.7215 12.2867 16.7331C11.754 16.9415 11.0013 17.37 9.91277 18.1574C4.01844 22.3842 1.38973 30.1661 3.97212 37.3459C6.55451 44.5256 13.2942 48.7176 20.4044 48.4281L32.2163 78.3862L34.6134 81.038L37.7979 81.2233L40.2993 76.0122L37.7864 73.233H37.7748ZM18.3663 32.9222C15.4365 32.9222 13.0626 30.5599 13.051 27.6301C13.0394 24.7003 15.4134 22.3263 18.3432 22.3147C21.273 22.3032 23.6469 24.6771 23.6585 27.6069C23.6701 30.5367 21.2961 32.9106 18.3663 32.9222Z" fill="#E1C0E2"/>
<path d="M18.4116 14.418H17.2535C15.9744 14.418 14.9375 15.4549 14.9375 16.734V21.6903C14.9375 22.9695 15.9744 24.0064 17.2535 24.0064H18.4116C19.6907 24.0064 20.7276 22.9695 20.7276 21.6903V16.734C20.7276 15.4549 19.6907 14.418 18.4116 14.418Z" fill="#1A2142"/>
<path d="M47.3633 46.7032L63.9809 30.6299L80.9459 46.7032H77.2518V60.7384H50.7794V46.7032H47.3633Z" fill="#1A2142"/>
</g>
<defs>
<clipPath id="clip0_4551_19038">
<rect width="96" height="85.6936" fill="white" transform="translate(0 5.15332)"/>
</clipPath>
</defs>
</svg>
