<?xml version="1.0" encoding="utf-8"?>
<!-- Generator: Adobe Illustrator 16.0.0, SVG Export Plug-In . SVG Version: 6.00 Build 0)  -->
<!DOCTYPE svg PUBLIC "-//W3C//DTD SVG 1.1//EN" "http://www.w3.org/Graphics/SVG/1.1/DTD/svg11.dtd">
<svg version="1.1" id="Layer_1" xmlns="http://www.w3.org/2000/svg" xmlns:xlink="http://www.w3.org/1999/xlink" x="0px" y="0px"
	 width="32px" height="64px" viewBox="0 0 32 64" style="enable-background:new 0 0 32 64;" xml:space="preserve">
<style type="text/css">
<![CDATA[
	.st0{fill:#00395D;}
	.st1{fill:#0074A6;}
]]>
</style>
<g>
	<g>
		<defs>
			<path id="SVGID_1_" d="M-39,494c-5.5,0-10-4.5-10-10s4.5-10,10-10s10,4.5,10,10c0,2.7-1.1,5.2-2.9,7.1
				C-33.8,492.9-36.3,494-39,494z M-39,472c-6.6,0-12,5.4-12,12s5.4,12,12,12s12-5.4,12-12S-32.4,472-39,472z"/>
		</defs>
		<clipPath id="SVGID_2_">
			<use xlink:href="#SVGID_1_"  style="overflow:visible;"/>
		</clipPath>
	</g>
</g>
<g>
	<g>
		<defs>
			<path id="SVGID_3_" d="M-38.1,482v-1.3c0-0.1,0-0.3,0.1-0.4c0.1-0.1,0.2-0.2,0.4-0.2h1.3v-2h-1.8c-0.7-0.1-1.3,0.2-1.8,0.7
				s-0.7,1.1-0.7,1.8v1.4h-1.1v2h1.2v5.8h2.4V484h1.6l0.2-2H-38.1z"/>
		</defs>
		<clipPath id="SVGID_4_">
			<use xlink:href="#SVGID_3_"  style="overflow:visible;"/>
		</clipPath>
	</g>
</g>
<g>
	<path class="st0" d="M16,36C9.4,36,4,41.4,4,48s5.4,12,12,12s12-5.4,12-12S22.6,36,16,36 M16,58c-5.5,0-10-4.5-10-10s4.5-10,10-10
		s10,4.5,10,10S21.5,58,16,58"/>
	<rect x="10.8" y="45.8" class="st0" width="2.2" height="6.9"/>
	<path class="st0" d="M18.9,45.7c-1.2,0-2,0.7-2.2,1.2v-1.1h-2.4c0,0.6,0,6.9,0,6.9h2.4V49c0-0.2,0-0.4,0.1-0.6
		c0.2-0.4,0.5-0.8,1.2-0.8c0.8,0,1.2,0.6,1.2,1.6v3.6h2.4V49C21.6,46.7,20.4,45.7,18.9,45.7"/>
	<path class="st0" d="M11.9,42.5c-0.8,0-1.3,0.5-1.3,1.2s0.5,1.2,1.3,1.2l0,0c0.8,0,1.3-0.5,1.3-1.2C13.2,43.1,12.7,42.5,11.9,42.5"
		/>
</g>
<g>
	<path class="st1" d="M16,4C9.4,4,4,9.4,4,16s5.4,12,12,12s12-5.4,12-12S22.6,4,16,4 M16,26c-5.5,0-10-4.5-10-10S10.5,6,16,6
		s10,4.5,10,10S21.5,26,16,26"/>
	<rect x="10.8" y="13.8" class="st1" width="2.2" height="6.9"/>
	<path class="st1" d="M18.9,13.7c-1.2,0-2,0.7-2.2,1.2v-1.1h-2.4c0,0.6,0,6.9,0,6.9h2.4V17c0-0.2,0-0.4,0.1-0.6
		c0.2-0.4,0.5-0.8,1.2-0.8c0.8,0,1.2,0.6,1.2,1.6v3.6h2.4V17C21.6,14.7,20.4,13.7,18.9,13.7"/>
	<path class="st1" d="M11.9,10.5c-0.8,0-1.3,0.5-1.3,1.2c0,0.7,0.5,1.2,1.3,1.2l0,0c0.8,0,1.3-0.5,1.3-1.2
		C13.2,11.1,12.7,10.5,11.9,10.5"/>
</g>
</svg>
