<?xml version="1.0" encoding="utf-8"?>
<!-- Generator: Adobe Illustrator 16.0.0, SVG Export Plug-In . SVG Version: 6.00 Build 0)  -->
<!DOCTYPE svg PUBLIC "-//W3C//DTD SVG 1.1//EN" "http://www.w3.org/Graphics/SVG/1.1/DTD/svg11.dtd">
<svg version="1.1" id="Layer_1" xmlns="http://www.w3.org/2000/svg" xmlns:xlink="http://www.w3.org/1999/xlink" x="0px" y="0px"
	 width="32px" height="64px" viewBox="0 0 32 64" style="enable-background:new 0 0 32 64;" xml:space="preserve">
<style type="text/css">
<![CDATA[
	.st0{fill:#00395D;}
	.st1{fill:#0074A6;}
]]>
</style>
<g>
	<g>
		<defs>
			<path id="SVGID_1_" d="M-39,494c-5.5,0-10-4.5-10-10s4.5-10,10-10s10,4.5,10,10c0,2.7-1.1,5.2-2.9,7.1
				C-33.8,492.9-36.3,494-39,494z M-39,472c-6.6,0-12,5.4-12,12s5.4,12,12,12s12-5.4,12-12S-32.4,472-39,472z"/>
		</defs>
		<clipPath id="SVGID_2_">
			<use xlink:href="#SVGID_1_"  style="overflow:visible;"/>
		</clipPath>
	</g>
</g>
<g>
	<g>
		<defs>
			<path id="SVGID_3_" d="M-38.1,482v-1.3c0-0.1,0-0.3,0.1-0.4c0.1-0.1,0.2-0.2,0.4-0.2h1.3v-2h-1.8c-0.7-0.1-1.3,0.2-1.8,0.7
				s-0.7,1.1-0.7,1.8v1.4h-1.1v2h1.2v5.8h2.4V484h1.6l0.2-2H-38.1z"/>
		</defs>
		<clipPath id="SVGID_4_">
			<use xlink:href="#SVGID_3_"  style="overflow:visible;"/>
		</clipPath>
	</g>
</g>
<g>
	<path class="st0" d="M27.2,38.7H4.9c-1,0-1.9,0.9-1.9,2v14.9c0,1,0.8,1.7,1.9,1.7h22.3c1,0,1.9-0.7,1.9-1.7V40.7
		C28.9,39.7,28.2,38.7,27.2,38.7 M25.6,40.6l-9.7,9.7l-9.7-9.7H25.6z M4.9,55.5V42l11,11l11.3-11.3v13.7L4.9,55.5L4.9,55.5z"/>
</g>
<g>
	<path class="st1" d="M27.2,6.8H4.9c-1,0-1.9,0.9-1.9,2v14.9c0,1,0.8,1.7,1.9,1.7h22.3c1,0,1.9-0.7,1.9-1.7V8.8
		C28.9,7.8,28.2,6.8,27.2,6.8 M25.6,8.7l-9.7,9.7L6.1,8.7H25.6z M4.9,23.6V10.1l11,11L27.2,9.8v13.7H4.9V23.6z"/>
</g>
</svg>
