<?xml version="1.0" encoding="utf-8"?>
<!-- Generator: Adobe Illustrator 16.0.0, SVG Export Plug-In . SVG Version: 6.00 Build 0)  -->
<!DOCTYPE svg PUBLIC "-//W3C//DTD SVG 1.1//EN" "http://www.w3.org/Graphics/SVG/1.1/DTD/svg11.dtd">
<svg version="1.1" id="Layer_1" xmlns="http://www.w3.org/2000/svg" xmlns:xlink="http://www.w3.org/1999/xlink" x="0px" y="0px"
	 width="32px" height="64px" viewBox="0 0 32 64" style="enable-background:new 0 0 32 64;" xml:space="preserve">
<style type="text/css">
<![CDATA[
	.st0{fill:#00395D;}
	.st1{fill:#0074A6;}
]]>
</style>
<g>
	<path class="st0" d="M8.9,54.8c-0.6,0-1.1,0.5-1.1,1.1c0,0.6,0.5,1.1,1.1,1.1c0.6,0,1.1-0.5,1.1-1.1C10,55.3,9.5,54.8,8.9,54.8"/>
	<path class="st0" d="M24.5,51.6v-14c0-0.9-0.7-1.7-1.7-1.7H9.1c-0.9,0-1.7,0.8-1.7,1.7v14c-2,0.7-3.4,2.7-3.4,4.9v1.7
		c0,0.9,0.8,1.6,1.7,1.6h20.6c0.9,0,1.7-0.7,1.7-1.6v-1.7C27.9,54.3,26.5,52.3,24.5,51.6 M9.1,37.6h13.7v13.7H9.1l0,0V37.6z
		 M26.2,58.2H5.6v-1.6c0-1.9,1.6-3.5,3.5-3.5h13.7l0,0c1.9,0,3.4,1.6,3.4,3.5V58.2z"/>
	<rect x="10.8" y="40.2" class="st0" width="10.3" height="1.7"/>
	<rect x="10.8" y="43.6" class="st0" width="6" height="1.7"/>
	<rect x="10.8" y="47" class="st0" width="10.3" height="1.7"/>
</g>
<g>
	<path class="st1" d="M8.9,22.9c-0.6,0-1.1,0.5-1.1,1.1s0.5,1.1,1.1,1.1c0.6,0,1.1-0.5,1.1-1.1S9.5,22.9,8.9,22.9"/>
	<path class="st1" d="M24.5,19.7v-14c0-0.9-0.7-1.7-1.7-1.7H9.1C8.2,4,7.4,4.8,7.4,5.7v14c-2,0.7-3.4,2.7-3.4,4.9v1.7
		c0,0.9,0.8,1.6,1.7,1.6h20.6c0.9,0,1.7-0.7,1.7-1.6v-1.7C27.9,22.4,26.5,20.4,24.5,19.7 M9.1,5.7h13.7v13.7H9.1l0,0V5.7z
		 M26.2,26.2H5.6v-1.6c0-1.9,1.6-3.5,3.5-3.5h13.7l0,0c1.9,0,3.4,1.6,3.4,3.5V26.2z"/>
	<rect x="10.8" y="8.2" class="st1" width="10.3" height="1.7"/>
	<rect x="10.8" y="11.7" class="st1" width="6" height="1.7"/>
	<rect x="10.8" y="15.1" class="st1" width="10.3" height="1.7"/>
</g>
</svg>
