<?xml version="1.0" encoding="utf-8"?>
<!-- Generator: Adobe Illustrator 16.0.0, SVG Export Plug-In . SVG Version: 6.00 Build 0)  -->
<!DOCTYPE svg PUBLIC "-//W3C//DTD SVG 1.1//EN" "http://www.w3.org/Graphics/SVG/1.1/DTD/svg11.dtd">
<svg version="1.1" id="Layer_1" xmlns="http://www.w3.org/2000/svg" xmlns:xlink="http://www.w3.org/1999/xlink" x="0px" y="0px"
	 width="32px" height="64px" viewBox="0 0 32 64" style="enable-background:new 0 0 32 64;" xml:space="preserve">
<style type="text/css">
<![CDATA[
	.st0{fill:#00395D;}
	.st1{fill:#0074A6;}
]]>
</style>
<g>
	<g>
		<defs>
			<path id="SVGID_1_" d="M-39,494c-5.5,0-10-4.5-10-10s4.5-10,10-10s10,4.5,10,10c0,2.7-1.1,5.2-2.9,7.1
				C-33.8,492.9-36.3,494-39,494z M-39,472c-6.6,0-12,5.4-12,12s5.4,12,12,12s12-5.4,12-12S-32.4,472-39,472z"/>
		</defs>
		<clipPath id="SVGID_2_">
			<use xlink:href="#SVGID_1_"  style="overflow:visible;"/>
		</clipPath>
	</g>
</g>
<g>
	<g>
		<defs>
			<path id="SVGID_3_" d="M-38.1,482v-1.3c0-0.1,0-0.3,0.1-0.4c0.1-0.1,0.2-0.2,0.4-0.2h1.3v-2h-1.8c-0.7-0.1-1.3,0.2-1.8,0.7
				s-0.7,1.1-0.7,1.8v1.4h-1.1v2h1.2v5.8h2.4V484h1.6l0.2-2H-38.1z"/>
		</defs>
		<clipPath id="SVGID_4_">
			<use xlink:href="#SVGID_3_"  style="overflow:visible;"/>
		</clipPath>
	</g>
</g>
<g>
	<path class="st0" d="M16,36C9.4,36,4,41.3,4,48s5.4,12,12,12c6.6,0,12-5.4,12-12S22.6,36,16,36 M16,58c-5.5,0-10-4.5-10-10
		s4.5-10,10-10s10,4.5,10,10S21.5,58,16,58"/>
	<path class="st0" d="M16.9,45.9v-1.2c0-0.5,0.3-0.6,0.5-0.6h1.3v-2h-1.8c-2,0-2.4,1.5-2.4,2.4v1.3h-1.1V48h1.1v5.8h2.4V48h1.6
		l0.2-2.1H16.9z"/>
</g>
<g>
	<path class="st1" d="M16,4C9.4,4,4,9.3,4,16s5.4,12,12,12c6.6,0,12-5.4,12-12S22.6,4,16,4 M16,26c-5.5,0-10-4.5-10-10S10.5,6,16,6
		s10,4.5,10,10S21.5,26,16,26"/>
	<path class="st1" d="M16.9,13.9v-1.2c0-0.5,0.3-0.6,0.5-0.6h1.3v-2h-1.8c-2,0-2.4,1.5-2.4,2.4v1.3h-1.1V16h1.1v5.8h2.4V16h1.6
		l0.2-2.1H16.9z"/>
</g>
</svg>
