<svg id="icons" xmlns="http://www.w3.org/2000/svg" viewBox="0 0 32 32"><defs><style>.cls-1{fill:#0074a6;}</style></defs><title>GA4_Icons</title><path class="cls-1" d="M22,28.13c-3.22,0-7.07-2.19-11.46-6.53-5.16-5.22-7.28-9.66-6.32-13.2l.07-.26L8.19,4.24l.3-.06a3.08,3.08,0,0,1,3.57,1.58l1.39,3.48a3,3,0,0,1-.67,3.25l-.44.43a1,1,0,0,0-.14,1.25,19.69,19.69,0,0,0,2.64,3.08A19.83,19.83,0,0,0,18,19.93a1,1,0,0,0,1.25-.14l.43-.43a3,3,0,0,1,3.25-.68L26.32,20a3.1,3.1,0,0,1,1.63,3.59l-.06.3L24,27.83l-.26.07A6.55,6.55,0,0,1,22,28.13ZM6.09,9.16c-.41,2,.35,5.44,5.86,11S21,26.44,23,26L26,23a1,1,0,0,0-.49-1.09l-3.38-1.35a1,1,0,0,0-1.08.22l-.43.43a3,3,0,0,1-3.81.38,21.62,21.62,0,0,1-3.4-2.91,21.51,21.51,0,0,1-2.88-3.37,3,3,0,0,1,.38-3.81l.44-.43A1,1,0,0,0,11.59,10L10.22,6.55a1,1,0,0,0-1.07-.44Z"/></svg>