<svg id="Oth07_Laptop" xmlns="http://www.w3.org/2000/svg" viewBox="0 0 84.1 60.4"><defs><style>.cls-1{fill:#0475a7;}</style></defs><title>LinktoSite</title><path class="cls-1" d="M27.2,46.8a4.5,4.5,0,0,0-4.5,4.5v4.5a4.5,4.5,0,0,0,4.5,4.5H79.6a4.5,4.5,0,0,0,4.5-4.5V51.3a4.5,4.5,0,0,0-4.5-4.5V19.6a4.5,4.5,0,0,0-4.5-4.5H31.6a4.6,4.6,0,0,0-4.4,4.5v.9L31.7,25V19.6H75V46.8H31.8V41l-4.5,4.5v1.3Zm52.4,9.1H27.2V51.4H79.5v4.5Z"/><polyline class="cls-1" points="37.6 32.9 24.8 20.1 21.7 23.1 29.2 30.6 0 30.6 0 35.1 29.2 35.1 21.7 42.6 24.8 45.7 37.6 32.9"/></svg>