<svg id="icons" xmlns="http://www.w3.org/2000/svg" viewBox="0 0 32 32"><defs><style>.cls-1{fill:#0074a6;}</style></defs><title>GA4_Icons</title><path class="cls-1" d="M15.22,25,16,26l.78-1c0-.05,4.23-4.69,5.81-6.76,1.21-1.58,2.81-4,2.81-6.92a9.4,9.4,0,0,0-18.81,0c0,3.11,2.07,6,2.7,6.82C11,20.36,15.22,25,15.22,25ZM16,3.94a7.41,7.41,0,0,1,7.41,7.4c0,1.75-.76,3.56-2.4,5.71-1.15,1.51-3.71,4.13-5,5.75-1.3-1.62-3.88-4.26-5.13-5.87A10.1,10.1,0,0,1,8.6,11.34,7.41,7.41,0,0,1,16,3.94Z"/><path class="cls-1" d="M24.5,28H7.5a2,2,0,0,0-2,2h21A2,2,0,0,0,24.5,28Z"/><circle class="cls-1" cx="16" cy="10" r="2"/></svg>