<svg id="icons" xmlns="http://www.w3.org/2000/svg" viewBox="0 0 32 32"><defs><style>.cls-1{fill:#0074a6;}</style></defs><title>GA4_Icons</title><path class="cls-1" d="M26,4a2,2,0,0,0-2-2H8A2,2,0,0,0,6,4V28a2,2,0,0,0,2,2H24a2,2,0,0,0,2-2Zm-2-.12V16.56a8.64,8.64,0,0,0-2.64-2.21c0-.1.06-.19.09-.29a7,7,0,0,0,.37-2.22,6,6,0,0,0-11.93,0,7,7,0,0,0,.38,2.21c0,.1.08.2.12.3a5.89,5.89,0,0,0-2.48,2L8,3.88Zm-4.36,8a4.62,4.62,0,0,1-.2,1.31c-.52,1.73-2,3.37-3.59,3.37s-3.07-1.64-3.59-3.37a4.62,4.62,0,0,1-.2-1.31,3.79,3.79,0,1,1,7.59,0ZM8,27.89V23c0-3.21.72-5.92,3.26-7.05a5.68,5.68,0,0,0,4.61,2.74,5.78,5.78,0,0,0,4.67-2.74c2,.85,3.39,2.9,3.39,7.05L24,27.88Z"/><rect class="cls-1" x="10" y="24" width="12" height="2"/></svg>