<svg width="96" height="96" viewBox="0 0 96 96" fill="none" xmlns="http://www.w3.org/2000/svg">
<path d="M27.9611 79.3671C29.0153 79.6887 30.9384 80.3736 33.0946 80.2453C43.7108 79.6116 43.0999 71.8875 55.0155 69.6394C63.0869 68.1166 65.6563 69.9056 71.0217 72.936C75.2656 75.3329 78.2431 81.3037 85.9292 81.5679C93.6153 81.8321 96.081 88.5765 95.5095 91.1013C95.5054 91.1153 81.804 91.002 75.4229 91.1013C62.8271 91.1832 2.77602 91.0081 2.75631 91.1013C2.71749 91.291 16.6096 75.9057 27.965 79.3697L27.9611 79.3671Z" fill="#FFCB05"/>
<path d="M48.9011 33.2786L46.3025 33.2634L46.0163 81.2571L48.6148 81.2722L48.9011 33.2786Z" fill="#515151"/>
<path d="M79.1332 28.0564L58.4807 27.9366L58.4218 27.9353L58.4211 30.67C58.4179 30.8159 58.4045 30.9546 58.3807 31.0931C58.3804 31.1105 58.3731 31.1277 58.3693 31.1415C58.6307 32.3287 59.6842 33.2203 60.9507 33.2271L76.8312 33.3194C78.2812 33.3266 79.438 32.1773 79.4832 30.7362C79.4837 30.7154 79.4841 30.6945 79.4847 30.6702L79.4983 28.6134C79.5019 28.2903 79.5 28.0574 79.5 28.0574L79.1332 28.0564Z" fill="#B8DED1"/>
<path d="M15.8764 30.3026L15.8928 27.801L15.8952 27.6899L15.8191 27.6882L0.468128 27.6005L0.419697 27.5994L0.394154 30.2016C0.386361 31.6713 1.56809 32.8716 3.03537 32.8792L13.2578 32.9386C14.6005 32.947 15.7158 31.9532 15.8998 30.6576C15.8882 30.5531 15.8767 30.4486 15.8756 30.3408C15.8759 30.3269 15.8761 30.3165 15.8763 30.3061L15.8764 30.3026Z" fill="#0095DB"/>
<path d="M95.0206 28.1454L94.9999 28.1449L79.5416 28.0549L79.5001 28.054C79.5001 28.054 79.4985 28.2867 79.4984 28.6099C79.4956 29.3743 79.4849 30.6598 79.4849 30.6598C79.4844 30.6807 79.4837 30.7154 79.4832 30.7362C79.5072 32.1788 80.6967 33.3376 82.1397 33.3482L92.338 33.407C93.8018 33.4146 94.9974 32.2314 95.0052 30.7582L95.0172 28.1453L95.0206 28.1454Z" fill="#0095DB"/>
<path d="M48.8289 7.24169L48.8288 7.24863C48.8286 7.25558 48.8146 7.26223 48.8075 7.2725C73.3642 12.4639 79.5 28.0574 79.5 28.0574L79.5416 28.0583L94.9998 28.1484L95.0205 28.1489C95.0205 28.1489 95.0106 28.1313 94.9905 28.0995C94.9705 28.0644 94.9336 28.0114 94.8901 27.941C93.6571 26.0759 83.2962 12.0339 48.8328 7.22092C48.8328 7.22092 48.8361 7.22795 48.8361 7.23142C48.836 7.23489 48.8325 7.23829 48.8288 7.24516L48.8289 7.24169Z" fill="#00AEEF"/>
<path d="M15.8157 27.6881L15.8918 27.6898C15.8918 27.6898 22.0574 12.6805 46.8146 7.24298C46.8146 7.24298 46.8077 7.24283 46.8042 7.24275L46.8052 7.1976C12.7256 12.0914 2.14451 25.1594 0.620078 27.298C0.480851 27.4931 0.416237 27.5994 0.416237 27.5994L0.464668 27.6004L15.8157 27.6881Z" fill="#00AEEF"/>
<path d="M36.9977 27.8091C36.9977 27.8091 39.0947 13.0482 47.2612 7.39518C47.0163 7.35857 46.8444 7.3027 46.8112 7.23943C22.0574 12.6805 15.8919 27.6863 15.8883 27.6897L47.4553 27.8736L47.4692 27.8739L36.9941 27.8125L36.9977 27.8091Z" fill="#CDF5E8"/>
<path d="M48.8075 7.2725C48.7544 7.32694 48.6046 7.37232 48.3963 7.39906C56.5014 13.1424 58.4218 27.9353 58.4218 27.9353L47.7634 27.8734L47.6596 27.8711L47.4762 27.8706L58.3942 27.9347L58.4218 27.9353L58.4807 27.9366L79.1332 28.0564L79.5 28.0574C79.5 28.0574 73.3608 12.4638 48.8075 7.2725Z" fill="#CDF5E8"/>
<path d="M36.9977 27.8091L47.4727 27.8705L47.6561 27.8745L47.7599 27.8733L58.4184 27.9352C58.4184 27.9352 56.4979 13.1458 48.3929 7.39898C48.2297 7.42323 48.0287 7.43622 47.8141 7.43502C47.5995 7.43383 47.4164 7.41941 47.2578 7.3951C39.0878 13.048 36.9942 27.809 36.9942 27.809L36.9977 27.8091Z" fill="#00AEEF"/>
<path d="M36.963 27.8118L36.9734 27.812L15.8918 27.6898C15.8918 27.6898 15.8894 27.7975 15.8894 27.801L15.8729 30.3025C15.8729 30.3025 15.8724 30.3268 15.8722 30.3373C15.8698 30.4449 15.8814 30.5494 15.8964 30.654C16.0584 31.9572 17.1611 32.9715 18.5038 32.9799L34.3012 33.0704C35.6888 33.0798 36.8264 32.017 36.9495 30.654C36.9501 30.6297 36.9505 30.6088 36.9511 30.5845C36.9514 30.5706 36.9517 30.5567 36.952 30.5428C36.952 30.5428 36.963 27.8118 36.9631 27.8083L36.963 27.8118Z" fill="#B8DED1"/>
<path d="M58.4177 30.6665L58.4185 27.9317L58.3908 27.9311L47.4728 27.867L47.459 27.8667L36.9735 27.8051L36.9632 27.8049L36.952 30.5394C36.9517 30.5533 36.9514 30.5672 36.9511 30.5811C36.9507 30.6019 36.9502 30.6227 36.9532 30.6471C37.0018 32.0694 38.1502 33.2099 39.5724 33.22L55.7609 33.3121C57.0586 33.3195 58.1381 32.3805 58.3659 31.1379C58.3663 31.1206 58.3735 31.1068 58.3774 31.0896C58.4011 30.9511 58.4145 30.8124 58.4177 30.6665Z" fill="#0095DB"/>
<path d="M46.8013 7.21836L46.8008 7.2392C46.8008 7.2392 46.8078 7.23935 46.8112 7.23943C46.8444 7.3027 47.0163 7.35857 47.2612 7.39518C47.4199 7.41949 47.61 7.43058 47.8176 7.4351C48.0355 7.43985 48.2331 7.4233 48.3963 7.39906C48.6046 7.36885 48.7545 7.32346 48.8075 7.2725C48.8146 7.2657 48.8251 7.25898 48.8288 7.24863C48.8288 7.24863 48.8288 7.24863 48.8322 7.24871L48.8324 7.24176C48.8324 7.24176 48.8394 7.23497 48.8396 7.22802C48.8396 7.22802 48.8398 7.22107 48.8364 7.21753L48.8494 5.18846C48.8512 4.62904 48.3975 4.16742 47.8404 4.16223C47.2833 4.15704 46.8234 4.61613 46.8181 5.17548L46.8053 7.19413L46.8047 7.21844L46.8013 7.21836Z" fill="#00AEEF"/>
<path d="M58.1141 78.8979C51.3723 80.1699 51.5324 80.1216 43.2218 75.5907C41.0162 74.1705 38.7236 72.9772 34.9679 73.6858C28.0159 74.9974 23.9617 86.8802 13.9816 91.1013L75.4229 91.1013C74.7227 84.0546 64.9746 77.6036 58.1141 78.8979Z" fill="#F3BF26"/>
</svg>
