<svg width="62" height="60" viewBox="0 0 62 60" fill="none" xmlns="http://www.w3.org/2000/svg">
<path d="M50.2134 20.7143C55.3515 20.7143 59.5167 16.5773 59.5167 11.4741C59.5167 6.37087 55.3515 2.23389 50.2134 2.23389C45.0754 2.23389 40.9102 6.37087 40.9102 11.4741C40.9102 16.5773 45.0754 20.7143 50.2134 20.7143Z" fill="#FFE05A"/>
<path d="M50.2157 19.1339C54.475 19.1339 57.9279 15.7044 57.9279 11.4739C57.9279 7.24345 54.475 3.81396 50.2157 3.81396C45.9563 3.81396 42.5034 7.24345 42.5034 11.4739C42.5034 15.7044 45.9563 19.1339 50.2157 19.1339Z" fill="#FFCD00"/>
<path d="M50.2129 22.9483C50.5697 22.9483 50.859 22.6611 50.859 22.3067C50.859 21.9523 50.5697 21.665 50.2129 21.665C49.8561 21.665 49.5669 21.9523 49.5669 22.3067C49.5669 22.6611 49.8561 22.9483 50.2129 22.9483Z" fill="#FFE05A"/>
<path d="M50.2129 1.2833C50.5697 1.2833 50.859 0.99602 50.859 0.641648C50.859 0.287276 50.5697 0 50.2129 0C49.8561 0 49.5669 0.287276 49.5669 0.641648C49.5669 0.99602 49.8561 1.2833 50.2129 1.2833Z" fill="#FFE05A"/>
<path d="M39.3111 12.1153C39.6679 12.1153 39.9571 11.8281 39.9571 11.4737C39.9571 11.1193 39.6679 10.832 39.3111 10.832C38.9543 10.832 38.665 11.1193 38.665 11.4737C38.665 11.8281 38.9543 12.1153 39.3111 12.1153Z" fill="#FFE05A"/>
<path d="M61.127 12.1153C61.4838 12.1153 61.773 11.8281 61.773 11.4737C61.773 11.1193 61.4838 10.832 61.127 10.832C60.7702 10.832 60.481 11.1193 60.481 11.4737C60.481 11.8281 60.7702 12.1153 61.127 12.1153Z" fill="#FFE05A"/>
<path d="M42.5059 19.775C42.8627 19.775 43.1519 19.4877 43.1519 19.1333C43.1519 18.779 42.8627 18.4917 42.5059 18.4917C42.1491 18.4917 41.8599 18.779 41.8599 19.1333C41.8599 19.4877 42.1491 19.775 42.5059 19.775Z" fill="#FFE05A"/>
<path d="M57.9317 4.45566C58.2885 4.45566 58.5777 4.16838 58.5777 3.81401C58.5777 3.45964 58.2885 3.17236 57.9317 3.17236C57.5749 3.17236 57.2856 3.45964 57.2856 3.81401C57.2856 4.16838 57.5749 4.45566 57.9317 4.45566Z" fill="#FFE05A"/>
<path d="M42.5059 4.45566C42.8627 4.45566 43.1519 4.16838 43.1519 3.81401C43.1519 3.45964 42.8627 3.17236 42.5059 3.17236C42.1491 3.17236 41.8599 3.45964 41.8599 3.81401C41.8599 4.16838 42.1491 4.45566 42.5059 4.45566Z" fill="#FFE05A"/>
<path d="M57.9317 19.775C58.2885 19.775 58.5777 19.4877 58.5777 19.1333C58.5777 18.779 58.2885 18.4917 57.9317 18.4917C57.5749 18.4917 57.2856 18.779 57.2856 19.1333C57.2856 19.4877 57.5749 19.775 57.9317 19.775Z" fill="#FFE05A"/>
<path d="M54.3531 22.1373C54.7098 22.1373 54.9991 21.85 54.9991 21.4956C54.9991 21.1413 54.7098 20.854 54.3531 20.854C53.9963 20.854 53.707 21.1413 53.707 21.4956C53.707 21.85 53.9963 22.1373 54.3531 22.1373Z" fill="#FFE05A"/>
<path d="M46.0811 2.09091C46.4379 2.09091 46.7271 1.80364 46.7271 1.44927C46.7271 1.09489 46.4379 0.807617 46.0811 0.807617C45.7243 0.807617 45.4351 1.09489 45.4351 1.44927C45.4351 1.80364 45.7243 2.09091 46.0811 2.09091Z" fill="#FFE05A"/>
<path d="M40.1285 16.2242C40.4852 16.2242 40.7745 15.9369 40.7745 15.5826C40.7745 15.2282 40.4852 14.9409 40.1285 14.9409C39.7717 14.9409 39.4824 15.2282 39.4824 15.5826C39.4824 15.9369 39.7717 16.2242 40.1285 16.2242Z" fill="#FFE05A"/>
<path d="M60.3116 8.00839C60.6683 8.00839 60.9576 7.72112 60.9576 7.36675C60.9576 7.01237 60.6683 6.7251 60.3116 6.7251C59.9548 6.7251 59.6655 7.01237 59.6655 7.36675C59.6655 7.72112 59.9548 8.00839 60.3116 8.00839Z" fill="#FFE05A"/>
<path d="M46.0103 22.1075C46.3671 22.1075 46.6563 21.8202 46.6563 21.4659C46.6563 21.1115 46.3671 20.8242 46.0103 20.8242C45.6535 20.8242 45.3643 21.1115 45.3643 21.4659C45.3643 21.8202 45.6535 22.1075 46.0103 22.1075Z" fill="#FFE05A"/>
<path d="M54.4346 2.12363C54.7914 2.12363 55.0806 1.83635 55.0806 1.48198C55.0806 1.12761 54.7914 0.840332 54.4346 0.840332C54.0778 0.840332 53.7886 1.12761 53.7886 1.48198C53.7886 1.83635 54.0778 2.12363 54.4346 2.12363Z" fill="#FFE05A"/>
<path d="M40.1587 7.93173C40.5155 7.93173 40.8047 7.64446 40.8047 7.29009C40.8047 6.93571 40.5155 6.64844 40.1587 6.64844C39.8019 6.64844 39.5127 6.93571 39.5127 7.29009C39.5127 7.64446 39.8019 7.93173 40.1587 7.93173Z" fill="#FFE05A"/>
<path d="M60.2783 16.2979C60.6351 16.2979 60.9244 16.0107 60.9244 15.6563C60.9244 15.3019 60.6351 15.0146 60.2783 15.0146C59.9216 15.0146 59.6323 15.3019 59.6323 15.6563C59.6323 16.0107 59.9216 16.2979 60.2783 16.2979Z" fill="#FFE05A"/>
<path d="M14.4622 39.8765H5.23682V53.845H14.4622V39.8765Z" fill="#CDF5E8"/>
<path d="M24.8402 39.8765H15.6147V53.845H24.8402V39.8765Z" fill="#CDF5E8"/>
<path d="M35.2498 39.8765H26.0244V53.845H35.2498V39.8765Z" fill="#CDF5E8"/>
<path d="M45.3566 39.4087H35.6904V54.2798H45.3566V39.4087Z" fill="#CDF5E8"/>
<path d="M5.23682 38.5714H14.4631V28.7642L5.23682 34.9822V38.5714Z" fill="#CDF5E8"/>
<path d="M24.9502 21.6968L15.8833 27.8074V38.5717H24.7732L24.9502 21.6968Z" fill="#CDF5E8"/>
<path d="M34.9414 27.6653L26.293 21.5991L26.1538 38.5714H34.9414V27.6653Z" fill="#CDF5E8"/>
<path d="M45.2508 35.0743L36.3584 28.686V38.5713H45.2508V35.0743Z" fill="#CDF5E8"/>
<path d="M46.3889 55.2374V53.6878L15.8872 53.8453V39.8768H24.7628L24.6639 55.2374H26.0687L26.1441 39.8768H34.9427V55.395H36.3625V39.8768H45.255V53.8453C45.6919 53.8848 46.3889 53.8453 46.3889 53.8453V34.1956L25.6451 19.4277L4.02832 34.2116V55.2856H24.9088L46.3889 55.2374ZM36.3634 28.6864L45.2558 35.0755V38.5725H36.3634V28.6864ZM26.2943 21.6002L34.9427 27.6656V38.5716H26.155L26.2943 21.5994V21.6002ZM15.8863 27.8073L24.9532 21.6967L24.7763 38.5716H15.8863V27.8073ZM14.4656 53.8453H5.2402V39.8768H14.4656V53.8453ZM14.4656 38.5725H5.2402V34.9824L14.4656 28.7652V38.5725Z" fill="#B8DED1"/>
<path d="M25.6723 14.5732L11.2462 24.2555L9.00027 25.7628L0 32.5031V60.0002L50.3106 59.9985V55.2288L4.02526 55.2855V34.2115L25.6421 19.4276L46.3867 34.1947V49.8568V53.9079V59.9985H50.3106V32.4881L25.6723 14.5732Z" fill="#001276"/>
<path d="M33.1289 55.2852H31.9204V55.3263V57.8947V59.2505H33.1289V57.9148V55.2852Z" fill="#001276"/>
<path d="M48.3311 34.2036L61.4172 43.1022V58.922H48.3311V34.2036Z" fill="#001276"/>
</svg>
