<svg width="43" height="60" viewBox="0 0 43 60" fill="none" xmlns="http://www.w3.org/2000/svg">
<path d="M11.5468 14.7013C11.5468 9.33233 15.8786 4.96665 21.2004 4.96665C26.5221 4.96665 30.8539 9.33481 30.8539 14.7013V19.586C31.9374 20.1447 32.9619 20.7929 33.9199 21.518C34.5725 22.0122 35.193 22.5436 35.7791 23.1073V14.7013C35.7791 6.59571 29.2384 0 21.2004 0C13.1623 0 6.62158 6.59571 6.62158 14.7013V23.1073C8.08192 21.7117 9.73927 20.5222 11.5468 19.5885V14.7013V14.7013Z" fill="#D9D9D9"/>
<path d="M21.2008 57.6931C10.7666 57.6931 2.30749 49.1629 2.30749 38.6411C2.30749 29.5794 8.58473 22.0003 16.9897 20.0708L14.8915 18.2157C16.2337 17.7911 17.6251 17.5005 19.0509 17.354C16.3716 17.6272 13.8375 18.4044 11.5473 19.589C9.73971 20.5227 8.08236 21.7122 6.62202 23.1079C2.54636 27.0042 0 32.5097 0 38.6212C0 50.4294 9.49098 60.0001 21.2008 60.0001C31.6842 60.0001 40.3847 52.3242 42.0913 42.2419L40.0104 40.4017C39.1288 50.0966 31.0464 57.6906 21.2008 57.6906V57.6931Z" fill="#E5B800"/>
<path d="M41.5449 32.5936C41.5449 32.5936 41.54 32.5762 41.5375 32.5662C41.4981 32.4297 41.4563 32.2956 41.4144 32.1615C41.3996 32.1118 41.3824 32.0621 41.3676 32.0125C41.338 31.9206 41.306 31.8287 41.274 31.7368C41.2445 31.6474 41.2149 31.558 41.1829 31.4711C41.1657 31.4189 41.146 31.3693 41.1263 31.3171C41.0795 31.1905 41.0351 31.0663 40.9859 30.9397C40.981 30.9273 40.976 30.9124 40.9711 30.8999C40.3998 29.4199 39.6684 28.0143 38.7966 26.7031C38.7794 26.6758 38.7597 26.651 38.7424 26.6237C38.6661 26.5094 38.5898 26.3977 38.5109 26.2859C38.4445 26.1916 38.378 26.0997 38.3115 26.0078C38.2795 25.9631 38.2499 25.9209 38.2179 25.8762C38.2056 25.8613 38.1957 25.8464 38.1859 25.829C38.1514 25.7843 38.1169 25.7396 38.0824 25.6949C37.9987 25.5856 37.915 25.4739 37.8288 25.3671C37.7598 25.2777 37.6884 25.1908 37.617 25.1014C37.5653 25.0368 37.5111 24.9722 37.4569 24.9077C37.2772 24.6916 37.0925 24.4781 36.9053 24.267C36.8979 24.2595 36.8905 24.2496 36.8831 24.2421C36.7674 24.113 36.6492 23.9864 36.531 23.8597C36.531 23.8597 36.5285 23.8572 36.5261 23.8547C36.2847 23.599 36.036 23.3506 35.7824 23.1073C35.1938 22.5436 34.5732 22.0121 33.9231 21.5179C32.9651 20.7928 31.9406 20.1447 30.8571 19.5859C30.1454 19.2184 29.4066 18.8906 28.6456 18.6025C28.6333 18.5976 28.621 18.5926 28.6087 18.5876C28.4708 18.5355 28.3329 18.4858 28.195 18.4386C28.126 18.4138 28.0546 18.389 27.9857 18.3641C27.897 18.3343 27.8059 18.3045 27.7172 18.2747C27.5966 18.235 27.4734 18.1953 27.3503 18.158C27.3035 18.1431 27.2567 18.1307 27.2099 18.1158C27.0425 18.0661 26.875 18.0165 26.7076 17.9718C26.6977 17.9693 26.6854 17.9668 26.6755 17.9643C26.0648 17.8004 25.4418 17.6613 24.8064 17.5521C24.3853 17.4801 23.9642 17.418 23.5431 17.3733C23.5258 17.3733 23.5061 17.3683 23.4889 17.3683C23.3067 17.3484 23.1244 17.3311 22.9422 17.3162C22.8905 17.3112 22.8388 17.3087 22.787 17.3037C22.6368 17.2913 22.4866 17.2839 22.3388 17.2739C22.2551 17.269 22.1738 17.2665 22.0901 17.2615C21.9695 17.2566 21.8463 17.2516 21.7257 17.2491C21.6198 17.2466 21.5163 17.2441 21.4104 17.2441C21.307 17.2441 21.2011 17.2441 21.0977 17.2441C20.9869 17.2441 20.876 17.2466 20.7652 17.2491C20.6593 17.2491 20.5559 17.2541 20.45 17.2566C20.354 17.259 20.2555 17.264 20.1594 17.269C20.0363 17.2739 19.9156 17.2814 19.7925 17.2888C19.7235 17.2938 19.657 17.2988 19.5906 17.3037C19.4379 17.3162 19.2852 17.3286 19.1325 17.3435C19.1079 17.346 19.0808 17.3484 19.0562 17.3509C17.6303 17.4974 16.2389 17.7905 14.8968 18.2126L16.9949 20.0677C18.3494 19.7573 19.758 19.5859 21.206 19.5859C31.6402 19.5859 40.0993 28.1161 40.0993 38.638C40.0993 39.2315 40.0698 39.82 40.0156 40.3986L42.0965 42.2388L42.1039 42.2438C42.6728 38.9111 42.4413 35.6282 41.5498 32.5886L41.5449 32.5936Z" fill="#FEE05A"/>
<path d="M2.30749 38.6411C2.30749 49.1629 10.7666 57.6931 21.2008 57.6931C31.0464 57.6931 39.1289 50.0984 40.0105 40.4035C40.0623 39.8224 40.0943 39.2364 40.0943 38.6429C40.0943 28.121 31.6351 19.5908 21.201 19.5908C19.7529 19.5908 18.3443 19.7597 16.9899 20.0726C8.58243 22.0021 2.30764 29.5812 2.30764 38.6429L2.30749 38.6411ZM21.201 32.221C24.7176 32.221 27.5669 35.0942 27.5669 38.6404C27.5669 42.1866 24.7176 45.0598 21.201 45.0598C17.6843 45.0598 14.8351 42.1866 14.8351 38.6404C14.8351 35.0942 17.6843 32.221 21.201 32.221Z" fill="#FFCB05"/>
<path d="M21.201 45.0598C24.7176 45.0598 27.5669 42.1866 27.5669 38.6404C27.5669 35.0942 24.7176 32.221 21.201 32.221C17.6843 32.221 14.8351 35.0942 14.8351 38.6404C14.8351 42.1866 17.6843 45.0598 21.201 45.0598ZM16.5731 37.8163C17.0139 35.2386 19.442 33.5102 21.9958 33.9522C24.552 34.3967 26.266 36.8453 25.8276 39.4205C25.3868 41.9982 22.9587 43.7266 20.4049 43.2845C17.8487 42.84 16.1347 40.3915 16.5731 37.8163Z" fill="#515151"/>
<path d="M20.4052 43.2866C22.9614 43.7311 25.3895 42.0002 25.8279 39.4225C26.2687 36.8448 24.5523 34.3963 21.996 33.9543C19.4398 33.5097 17.0117 35.2406 16.5733 37.8183C16.1325 40.396 17.849 42.8446 20.4052 43.2866Z" fill="#333333"/>
</svg>
