<svg width="60" height="60" viewBox="0 0 60 60" fill="none" xmlns="http://www.w3.org/2000/svg">
<path d="M27.7254 12.2215C24.8189 17.825 27.1542 22.7218 31.8971 25.1743C36.6401 27.6267 41.9933 26.7054 44.9002 21.1013C49.1173 12.9723 43.6618 2.56055 43.6618 2.56055C43.6618 2.56055 32.0941 3.79889 27.7254 12.2215Z" fill="#3F7E37"/>
<path d="M31.7979 25.1231C36.5408 27.5755 41.8941 26.6542 44.8009 21.0502C49.0183 12.9205 43.5628 2.50879 43.5628 2.50879L31.7979 25.1231Z" fill="#0F6C2C"/>
<path d="M17.3356 25.6118C19.9485 28.7574 23.4774 28.7233 26.1581 26.6675C28.8381 24.6117 29.6544 21.312 27.042 18.1672C23.2504 13.6031 15.622 13.9545 15.622 13.9545C15.622 13.9545 13.4087 20.8843 17.3356 25.6118Z" fill="black"/>
<path d="M26.1006 26.7105C28.7806 24.6546 29.5969 21.3549 26.9845 18.2101C23.1934 13.6468 15.5645 13.9974 15.5645 13.9974L26.1006 26.7105Z" fill="#004750"/>
<path d="M28.4719 42.5235L29.0834 30.6894L21.0356 20.5567L29.9059 28.9046L38.6873 11.8784L32.3862 31.5396L32.3862 42.5235L28.4719 42.5235Z" fill="#B3F340"/>
<path d="M38.4222 41.9214L45.5183 37.2464L46.5834 36.4937C47.9172 35.5519 49.7776 36.065 50.0707 37.4776C50.0906 37.5751 50.1058 37.6691 50.1175 37.7594L50.9397 37.1789C52.3598 36.1758 54.3417 36.7225 54.6535 38.2267C54.7762 38.8192 54.7271 39.3177 54.7271 39.3177C54.7692 40.1884 52.7662 41.6541 52.7662 41.6541L44.0456 48.0079L42.8543 44.6624L40.1086 46.6627L38.421 41.9202L38.4222 41.9214Z" fill="#B08273"/>
<path d="M0 42.5436L12.5493 36.1287C12.7017 36.049 12.8732 36.0103 13.0458 36.0162L29.1069 36.5623C29.2618 36.567 29.4118 36.608 29.5476 36.6807L45.6861 45.355L54.7497 38.9811L55.5309 38.4619C57.4327 37.1963 60.0085 38.5381 59.9966 40.7975C59.9966 40.8303 59.9966 40.8479 59.9966 40.8479C60.093 41.8264 58.1127 43.3886 58.1127 43.3886L50.565 49.2269C50.5114 49.2996 50.4471 49.3676 50.3697 49.4262L43.3675 54.763C43.2234 54.8731 43.0507 54.9423 42.8685 54.961L31.2052 56.2114C30.4205 56.2958 29.6309 56.1247 28.9545 55.7263C28.9128 55.7016 28.8688 55.6794 28.8235 55.6606L17.0614 50.9367C16.7887 50.8277 16.4815 50.843 16.2219 50.9789L0.00357628 60.0001V42.5413L0 42.5436Z" fill="#C49480"/>
<path d="M47.3683 46.9905L31.5789 44.3578L31.6219 47.9812L43.1236 49.4441C44.564 49.6268 46.3639 49.8866 47.1987 48.0429L47.3683 46.9905Z" fill="#B08273"/>
<path d="M52.4991 32.9739C52.4991 27.2276 47.7986 22.5698 41.9996 22.5698C38.992 22.5698 36.2808 23.8238 34.3674 25.8312C34.3272 25.8728 34.2871 25.9143 34.2478 25.9568C32.5415 27.8068 31.5 30.2697 31.5 32.973C31.5 38.7194 36.2005 43.3771 41.9996 43.3771C44.7286 43.3771 47.2132 42.3451 49.0811 40.6543C49.1239 40.6154 49.1658 40.5756 49.2087 40.5358C51.2345 38.6389 52.5 35.9532 52.5 32.973L52.4991 32.9739Z" fill="#FFCD00"/>
<path d="M39.1381 37.5985V33.6578H38.0591V32.2517H39.1381V31.3576C39.1381 30.8208 39.2488 30.3052 39.471 29.8117C39.6923 29.3182 40.0449 28.9105 40.5277 28.5886C41.0105 28.2667 41.6415 28.1049 42.4198 28.1049C43.09 28.1049 43.6496 28.2225 44.0976 28.4568C44.5456 28.6912 44.9178 28.9698 45.2141 29.2917L43.9129 30.6978C43.7353 30.5121 43.5452 30.3582 43.3435 30.2362C43.1418 30.1141 42.8928 30.0531 42.5965 30.0531C42.1431 30.0531 41.8254 30.2123 41.6424 30.5289C41.4594 30.8464 41.3693 31.2001 41.3693 31.591V32.2499H44.0012V33.656H41.3693V35.6485H45.2578V37.5968H39.1372L39.1381 37.5985Z" fill="#E5B800"/>
<path d="M21.0529 36.4943L31.5683 44.297L31.5824 44.3017L31.5531 44.3086L43.1511 48.6582C45.8137 49.8363 46.8623 47.9868 46.8623 47.9868C47.5825 47.1102 47.3948 46.1883 47.1474 45.6131C47.0054 45.2827 46.7837 44.9916 46.5069 44.7597C45.707 44.0871 44.8754 43.5746 44.8754 43.5746L41.8163 41.7158H41.8105L34.1077 36.9569C33.0204 36.2855 31.7513 35.9597 30.4704 36.0235L21.0529 36.4954V36.4943Z" fill="#C49480"/>
</svg>
