<?xml version="1.0" encoding="utf-8"?>
<!-- Generator: Adobe Illustrator 26.0.2, SVG Export Plug-In . SVG Version: 6.00 Build 0)  -->
<svg version="1.1" xmlns="http://www.w3.org/2000/svg" xmlns:xlink="http://www.w3.org/1999/xlink" x="0px" y="0px"
	 viewBox="0 0 1410 234.04" style="enable-background:new 0 0 1410 234.04;" xml:space="preserve">
<style type="text/css">
	.st0{fill:#00AEEF;}
</style>
<g id="Logo__x26__Wordmark">
	<path class="st0" d="M77.03,224.56H0c9.72-8.55,12.27-41.92,16.5-100.68l0.94-13.75c2.24-33.33,4.04-59.03,3.71-76.99
		C20.84,17.7,19.11,7.78,14.85,4.39h86.13c20.57,0,61.67,1.08,61.67,43.88c0,28.53-26.5,46.22-50.82,52.51
		c34.33,3.4,59.96,19.96,59.96,55.31C171.79,194.33,135.83,224.56,77.03,224.56 M73.64,118.19H58.01l-2.34,32.48
		c-1.11,14.24-1.72,26.22-1.98,40.55c0,1.99,6.24,6.24,21.05,6.24c30.8,0,51.19-15.34,51.19-40.75
		C125.93,128.43,102.75,118.19,73.64,118.19 M80.74,30.88c-4.27,0-9.96,0-15.43,0.56c-2.24,15.33-3.66,30.22-4.81,46.49
		c0,0-0.83,13.99-0.83,13.4h5.64c28,0,53.72-9.74,53.72-35.37C119.03,41.08,106.74,30.88,80.74,30.88 M352.44,226.68
		c-18.85,0-20.3-0.61-35.39-52.52l-5.43-19.23c-9.11,4.35-25.34,6.35-51.37,6.35h-26.23l-4.54,9.68
		c-4.63,10.22-15.7,31.37-15.44,43.64c0,2.86,0.3,5.7,1.42,9.97h-52.81c15.2-15.06,34.23-50.18,60.74-106.9l15.44-32.88
		c13.98-29.71,28.85-63.34,28.85-68.19c0-4.34-1.14-8.3-2.87-12.2h47.96c0,0,12.51,47.56,23.69,87.25l9.44,34.73
		c16.29,58.61,26.56,87.07,40.18,98.2C373.85,226.07,358.4,226.68,352.44,226.68 M283.1,55.96l-35.69,76.75h57.92L283.1,55.96
		 M561.04,234.04c-16.29,0-20.23-2.61-25.67-10.06l-61.72-85.51c-4.8-6.65-8.53-12.1-16.2-12.1h-1.41l-1.15,16.57
		c-1.46,22.63-2.28,40.54-2.28,54c0.22,14.79,1.96,23.93,5.99,27.62h-59.64c8.53-7.63,11.74-33.34,16.62-100.68l0.77-13.97
		c2.28-33.11,3.98-58.8,3.76-76.77c-0.25-15.72-1.99-25.37-6.3-28.76c33.97,0,81.3,0,81.3,0c26.56,0,63.06,4.49,63.06,47.56
		c0,35.42-23.69,54.77-53.01,63.9c2.82,2.61,7.91,9.12,11.06,13.18l44.83,59.37c27.95,36.79,30.23,38.47,40.19,43.63
		C588.71,233.47,571.89,234.04,561.04,234.04 M481.42,31.12c-5.45,0-11.96,0-17.15,0.58c-1.69,9.37-3.13,25.65-5.1,51.92
		l-1.21,15.41c2.9,0.53,6.58,0.85,10.02,0.85c27.42,0,46.22-16.55,46.22-41.62C514.21,41.08,502.24,31.12,481.42,31.12
		 M678.28,228.83c-56.75,0-89.57-46.71-89.57-99.22C588.71,56.49,628.36,0,703.99,0c23.63,0,34.83,4.39,53.97,4.39l-5.74,56.15
		c-10.85-19.72-28.5-33.17-52.28-33.17c-47.03,0-66.18,50.87-66.18,94.48c0,47.44,26.57,73.36,61.94,73.36
		c19.15,0,35.95-5.13,64.2-24.89C748.48,206.95,721.96,228.83,678.28,228.83 M1066.63,226.68c-18.74,0-20.19-0.61-35.38-52.52
		l-5.36-19.23c-9.2,4.35-25.39,6.35-51.34,6.35h-26.27l-4.53,9.68c-6.6,14.55-15.48,31.66-15.48,43.64c0,2.86,0.34,5.99,1.45,9.97
		H773.9c8.86-9.97,11.68-42.19,15.96-100.68l0.96-13.97c2.2-33.4,3.91-59.09,3.65-77.13c-0.3-14.73-1.74-24.24-5.77-28.39h60.29
		c-8.54,6.52-11.72,41.84-15.69,100.35l-1.2,14.01c-1.37,21.67-4.26,44.05-4.26,65.6c0,9.98,4.01,12.32,14.29,12.32
		c36.53,0,45.72-0.84,62.19-12.02c10.34-18.78,21.98-42.55,33.41-66.98l15.42-32.88c14.56-30.85,28.8-62.23,28.8-68.19
		c0-4.34-1.1-8.3-2.84-12.2h47.96c0,0,19.38,71.82,23.66,87.25l9.39,34.73c16.25,58.61,26.5,87.07,40.24,98.2
		C1088.95,226.07,1072.65,226.68,1066.63,226.68 M997.36,55.96l-35.38,76.75h57.61L997.36,55.96 M1204.82,105.91
		c-5.15,8.59-11.7,20.23-15.63,28.83c-3.51,16.21-5.2,37.92-5.2,61.92c0,9.99,1.69,23.39,6.25,27.9h-59.65
		c10.6-9.97,14.87-71.28,14.28-90.7c-8-27.75-18.82-54.2-35.41-86.48c-10.45-20.23-22.84-39.36-30.49-43
		c13.41-1.23,30.49-2.03,38.81-2.03c14.89,0,18.8,2.03,27.92,21.89c14.29,32.25,24.91,56.56,31.13,74.59
		c15.13-23.77,25.73-40.05,39.47-62.23c3.39-5.48,6.24-12.36,6.24-18.9c0-5.1-0.89-10.85-3.14-13.31h59.01
		C1267.02,6.85,1215.66,87.68,1204.82,105.91 M1404.27,56.49c-9.17-16.49-28.82-29.12-50.25-29.12c-18.76,0-35.34,7.76-35.34,27.69
		c0,16.87,20.81,28.28,42.48,42.28c23.71,14.83,48.23,33.11,48.23,64.75c0,41.4-40.2,66.73-86.73,66.73
		c-19.13,0-39.14-3.63-61.61-12.15l3.68-55.17c10.88,21.97,31.13,39.44,61.07,39.44c23.06,0,40.24-11.16,40.24-30.63
		c0-16.47-14.03-26.73-31.11-37.06c-35.9-21.68-58.79-39.01-58.79-70.52c0-47.02,39.39-62.75,80.16-62.75
		c23.72,0,38.55,4.39,53.7,4.39L1404.27,56.49z"/>
</g>
<g id="Clearspace">
</g>
</svg>
