<svg width="49" height="60" viewBox="0 0 49 60" fill="none" xmlns="http://www.w3.org/2000/svg">
<path d="M12.8268 60L25.5446 38.9757L12.7904 30.8911L0 52.0376L9.50073 51.363L12.8268 60Z" fill="#006DE3"/>
<path d="M35.292 60L22.5742 38.9757L35.3283 30.8911L48.1188 52.0376L38.618 51.363L35.292 60Z" fill="#006DE3"/>
<path d="M29.322 0L24.3566 1.65987L19.3869 0L15.5207 3.54688L10.3121 4.06232L8.21384 8.88468L3.66554 11.4881L3.70029 16.7516L0.594238 20.9886L2.75327 25.7804L1.63249 30.9217L5.54654 34.4205L6.60217 39.5748L11.5892 41.1692L14.6388 45.4455L19.8387 44.8646L24.3566 47.5248L28.8702 44.8646L34.0744 45.4455L37.124 41.1692L42.1111 39.5748L43.1667 34.4205L47.0808 30.9217L45.9556 25.7804L48.119 20.9886L45.0129 16.7516L45.0477 11.4881L40.4994 8.88468L38.4012 4.06232L33.1926 3.54688L29.322 0Z" fill="#00AEEF"/>
<path d="M31.5697 35.3765L30.0639 26.9028L36 20.8255L27.6938 19.6804L23.9049 12L20.279 19.7642L12 21.0936L18.0612 27.0369L16.7348 35.5385L24.1114 31.4497L31.5697 35.3765Z" fill="#AFFDFD"/>
</svg>
